<?xml version="1.0" standalone="no"?> <!DOCTYPE svg PUBLIC "-//W3C//DTD SVG 1.0//EN" "http://www.w3.org/TR/2001/REC-SVG-20010904/DTD/svg10.dtd" > <svg xmlns="http://www.w3.org/2000/svg" width="100%" height="100%">
<defs >
<font id="myriadprocond" horiz-adv-x="755" ><font-face
    font-family="Myriad Pro Cond"
    units-per-em="2048"
    panose-1="2 11 5 6 3 4 3 2 2 4"
    ascent="1536"
    descent="-512"
    alphabetic="0" />
<missing-glyph horiz-adv-x="1024" d="M0 0V1434H1024V0H0ZM512 809L860 1331H164L512 809ZM573 717L922 195V1239L573 717ZM164 102H860L512 625L164 102ZM102 1239V195L451 717L102 1239Z" />
<glyph unicode=" " glyph-name="space" horiz-adv-x="321" />
<glyph unicode="!" glyph-name="exclam" horiz-adv-x="417" d="M274 383H143L123 1380H295L274 383ZM207 -16Q164 -16 137 14T109 94Q109 144 137 175T209 207Q254 207 280 176T307 94Q307 44 281 14T207 -16Z" />
<glyph unicode="&quot;" glyph-name="quotedbl" horiz-adv-x="632" d="M102 1399H248L219 922H131L102 1399ZM387 1399H532L504 922H416L387 1399Z" />
<glyph unicode="#" glyph-name="numbersign" horiz-adv-x="788" d="M297 516H457L496 827H336L297 516ZM231 0H127L178 410H47V516H193L233 827H92V932H248L299 1331H401L350 932H510L561 1331H666L614 932H743V827H600L561 516H702V412H547L496 0H389L440 412H285L231
0Z" />
<glyph unicode="$" glyph-name="dollar" horiz-adv-x="788" d="M444 -172H330V33Q211 36 104 100L141 223Q245 158 348 158Q438 158 488 216T539 365Q539 451 497 513T362 631Q318 658 288 679T221 733T163 798T126 875T111 969Q111 1089 177 1174T344 1286V1485H457V1298Q516
1298 568 1282T651 1243L612 1122Q528 1174 434 1174Q356 1174 308 1120T260 995Q260 950 270 918T307 856T366 805T455 748Q575 677 631 589T688 385Q688 245 620 158T444 45V-172Z" />
<glyph unicode="%" glyph-name="percent" horiz-adv-x="1320" d="M315 1348Q428 1348 495 1239T563 946Q563 748 490 645T313 541Q201 541 131 649T61 942Q61 1129 133 1238T315 1348ZM309 1249Q273 1249 247 1221T208 1146T188 1049T182 944Q182 887 188 837T208
741T249 667T313 639T377 666T417 741T436 837T442 942T437 1047T418 1144T376 1221T309 1249ZM354 -29H254L963 1358H1063L354 -29ZM1012 793Q1124 793 1192 683T1260 389Q1260 193 1187 90T1010 -14Q897 -14 828 94T758 387Q758 574 829 683T1012 793ZM1006 694Q970
694 944 666T905 591T885 495T879 389T885 282T906 185T947 112T1010 84Q1047 84 1073 111T1113 186T1133 282T1139 387T1134 492T1115 589T1073 666T1006 694Z" />
<glyph unicode="&amp;" glyph-name="ampersand" horiz-adv-x="1005" d="M969 0H795Q783 18 755 56T702 129Q647 60 568 22T403 -16Q293 -16 213 40T96 180T59 365Q59 601 270 760V766Q170 925 170 1075Q170 1208 247 1302T453 1397Q555 1397 625 1323T696 1114Q696
1008 642 920T459 741V735Q576 538 721 344Q793 498 803 741H944Q932 605 895 472T793 242Q812 212 969 0ZM430 109Q557 109 633 229Q476 443 336 664Q211 547 211 383Q211 270 269 190T430 109ZM438 1280Q380 1280 348 1225T315 1085Q315 958 393 834Q557 955
557 1106Q557 1179 529 1229T438 1280Z" />
<glyph unicode="&apos;" glyph-name="quotesingle" horiz-adv-x="348" d="M102 1399H248L219 922H131L102 1399Z" />
<glyph unicode="(" glyph-name="parenleft" horiz-adv-x="518" d="M344 1417H467Q254 1082 254 584Q254 94 467 -246H344Q250 -107 186 102T121 586Q124 862 188 1073T344 1417Z" />
<glyph unicode=")" glyph-name="parenright" horiz-adv-x="518" d="M174 -246H51Q147 -94 205 117T264 588Q264 847 206 1056T51 1417H174Q268 1284 332 1075T397 588Q394 309 331 101T174 -246Z" />
<glyph unicode="*" glyph-name="asterisk" horiz-adv-x="763" d="M500 1397L610 1335L434 1090L436 1085L713 1120V997L436 1028L434 1024L614 788L500 723L379 993L375 991L252 717L147 784L322 1030L319 1032L49 997V1120L317 1087L319 1092L150 1329L256 1391L379
1128H383L500 1397Z" />
<glyph unicode="+" glyph-name="plus" horiz-adv-x="1220" d="M553 1092H670V604H1141V492H670V0H553V492H84V604H553V1092Z" />
<glyph unicode="," glyph-name="comma" horiz-adv-x="397" d="M143 -244L35 -258Q68 -167 103 -26T154 219L332 240Q295 111 240 -34T143 -244Z" />
<glyph unicode="-" glyph-name="hyphen" horiz-adv-x="571" d="M61 596H510V475H61V596Z" />
<glyph unicode="." glyph-name="period" horiz-adv-x="397" d="M203 -16Q159 -16 130 17T100 102T130 187T205 221Q251 221 280 189T309 102T281 16T203 -16Z" />
<glyph unicode="/" glyph-name="slash" horiz-adv-x="575" d="M135 -82H16L457 1397H575L135 -82Z" />
<glyph unicode="0" glyph-name="zero" horiz-adv-x="788" d="M406 1348Q565 1348 649 1169T733 668Q733 322 638 153T387 -16Q231 -16 143 162T55 664Q55 996 147 1172T406 1348ZM397 1212Q304 1212 259 1066T213 666Q212 501 230 381T291 190T397 119Q488 119
531 265T575 666Q575 786 565 883T534 1055T478 1171T397 1212Z" />
<glyph unicode="1" glyph-name="one" horiz-adv-x="788" d="M385 0V1171H381L160 1044L129 1167L410 1331H539V0H385Z" />
<glyph unicode="2" glyph-name="two" horiz-adv-x="788" d="M707 0H68V102L178 254Q222 315 233 330T285 404T340 485T387 562T433 645T469 724T500 810T516 890T524 975Q524 1087 476 1149T336 1212Q316 1212 298 1210T261 1201T231 1191T202 1177T180 1164T158
1150L143 1139L104 1257Q146 1293 214 1320T365 1348Q445 1348 507 1320T606 1241T661 1125T680 983Q680 893 654 801T576 612T475 442T352 266L264 143V139H707V0Z" />
<glyph unicode="3" glyph-name="three" horiz-adv-x="788" d="M57 45L92 170Q182 115 283 115Q388 115 451 186T514 379Q514 509 441 582T246 655H209V774H240Q277 774 317 788T394 830T455 905T479 1012Q479 1111 432 1164T303 1217Q226 1217 137 1153L102 1272Q143
1304 207 1326T342 1348Q479 1348 558 1261T637 1040Q637 938 585 856T438 729V725Q538 697 605 610T672 377Q672 208 569 96T291 -16Q226 -16 162 0T57 45Z" />
<glyph unicode="4" glyph-name="four" horiz-adv-x="788" d="M623 0H479V369H37V475L469 1331H623V498H766V369H623V0ZM186 498H479V872Q479 972 492 1135H483Q430 1010 371 885L186 502V498Z" />
<glyph unicode="5" glyph-name="five" horiz-adv-x="788" d="M680 1331V1192H324L268 838Q285 842 317 842Q377 842 449 816T569 741Q682 633 682 438Q682 238 570 111T281 -16Q218 -16 155 0T53 43L88 166Q179 115 274 115Q382 115 454 195T526 422Q526 573 444
647T225 721Q157 721 121 715L205 1331H680Z" />
<glyph unicode="6" glyph-name="six" horiz-adv-x="788" d="M653 1348V1214Q614 1214 559 1202Q480 1182 418 1134T317 1016T254 876T217 721H223Q308 848 449 848Q576 848 655 737T735 438Q735 241 649 113T408 -16Q239 -16 148 135T57 526Q57 890 229 1126Q287
1207 374 1261T553 1335Q627 1346 653 1348ZM410 106Q483 106 530 184T578 426Q578 573 530 650T399 727Q346 727 300 692T225 584Q215 552 215 504Q216 307 269 207T410 106Z" />
<glyph unicode="7" glyph-name="seven" horiz-adv-x="788" d="M76 1331H717V1237L287 0H133L555 1188V1192H76V1331Z" />
<glyph unicode="8" glyph-name="eight" horiz-adv-x="788" d="M276 707L274 711Q192 767 146 848T100 1016Q100 1165 191 1256T410 1348Q501 1348 567 1301T665 1184T696 1034Q696 843 518 719V715Q731 573 731 350Q731 193 636 89T389 -16Q309 -16 245 14T140
93T79 201T57 324Q57 553 276 707ZM395 100Q474 100 524 161T575 342Q575 415 547 475T481 573T385 649Q306 600 260 520T213 350Q213 238 262 169T395 100ZM399 1231Q333 1231 293 1174T252 1026T296 877T416 770Q477 814 512 878T547 1016Q547 1115 509 1173T399
1231Z" />
<glyph unicode="9" glyph-name="nine" horiz-adv-x="788" d="M137 -16V119Q184 119 236 131Q343 157 418 236Q542 369 573 612H569Q477 502 350 502Q224 502 143 610T61 897Q61 1085 154 1216T397 1348Q507 1348 584 1274T696 1082T731 813Q731 430 555 197Q497
118 417 66T248 -4Q196 -16 137 -16ZM387 1225Q318 1225 267 1147T217 909Q217 768 266 695T397 621Q447 621 491 653T561 739Q573 770 573 823Q573 1025 523 1125T387 1225Z" />
<glyph unicode=":" glyph-name="colon" horiz-adv-x="397" d="M203 735Q159 735 131 767T102 850T131 934T205 967Q251 967 279 935T307 850T280 767T203 735ZM203 -16Q159 -16 131 16T102 98Q102 149 131 182T205 215Q251 215 279 183T307 98Q307 47 280 16T203 -16Z" />
<glyph unicode=";" glyph-name="semicolon" horiz-adv-x="397" d="M141 -244L37 -258Q69 -166 104 -25T154 219L330 240Q293 111 238 -34T141 -244ZM225 735Q182 735 154 767T125 850T154 934T227 967Q273 967 301 935T330 850Q330 798 303 767T225 735Z" />
<glyph unicode="&lt;" glyph-name="less" horiz-adv-x="1220" d="M135 498V594L1085 1090V952L291 547V543L1085 135V0L135 498Z" />
<glyph unicode="=" glyph-name="equal" horiz-adv-x="1220" d="M1139 688H82V801H1139V688ZM1139 301H82V414H1139V301Z" />
<glyph unicode="&gt;" glyph-name="greater" horiz-adv-x="1220" d="M1085 604V485L135 0V135L954 543V547L135 954V1090L1085 604Z" />
<glyph unicode="?" glyph-name="question" horiz-adv-x="632" d="M354 377H215L211 408Q178 597 297 797Q371 923 389 967Q416 1035 416 1102Q416 1186 373 1227T258 1268Q178 1268 123 1231L90 1352Q119 1372 176 1388T293 1405Q367 1405 423 1382T513 1318T562
1228T578 1122Q578 1086 571 1049T554 985T526 919T495 862T458 801T424 745Q375 661 359 587T352 412L354 377ZM274 -16Q231 -16 203 15T174 96Q174 148 203 180T276 213Q324 213 351 181T379 96Q379 46 352 15T274 -16Z" />
<glyph unicode="@" glyph-name="at" horiz-adv-x="1208" d="M713 479L772 778Q753 786 715 786Q640 786 575 722T473 560T436 360Q436 294 458 263T518 231Q578 231 635 308T713 479ZM838 -57L864 -129Q734 -207 561 -207Q458 -207 371 -170T216 -62T110 123T72
383Q72 608 156 800T389 1105T719 1219Q921 1219 1034 1083T1147 725Q1147 443 1060 288T831 133Q772 133 740 175T713 297H707Q659 209 600 171T483 133Q408 133 363 191T317 358Q317 428 334 499T388 639T476 760T599 845T756 877Q836 877 899 848L817 434Q775
219 862 219Q937 219 996 352T1055 686Q1055 902 968 1020T705 1139Q599 1139 501 1083T328 928T209 687T164 381Q164 134 275 6T586 -123Q716 -123 838 -57Z" />
<glyph unicode="A" glyph-name="A" horiz-adv-x="890" d="M596 414H289L199 0H45L360 1380H535L842 0H686L596 414ZM311 541H573L502 891Q486 965 446 1206H440Q412 1025 383 891L311 541Z" />
<glyph unicode="B" glyph-name="B" horiz-adv-x="851" d="M125 6V1360Q231 1386 354 1386Q559 1386 659 1290Q750 1207 750 1055Q750 949 695 870T537 750V743Q657 711 725 618T793 391Q793 224 694 117Q583 -8 330 -8Q200 -8 125 6ZM281 1253V795H352Q451 795
521 863T592 1038Q592 1141 538 1202T365 1264Q309 1264 281 1253ZM281 674V125Q317 117 360 117Q484 117 556 188T629 391Q629 527 549 599T350 674H281Z" />
<glyph unicode="C" glyph-name="C" horiz-adv-x="763" d="M700 156L727 25Q658 -12 528 -12Q318 -12 192 161T66 674Q66 831 96 957T174 1163T288 1296T420 1371T555 1393Q672 1393 725 1358L690 1225Q624 1253 553 1253Q507 1253 463 1236T377 1176T302 1070T251
909T231 688Q231 565 249 468T297 308T369 204T457 145T557 127Q638 127 700 156Z" />
<glyph unicode="D" glyph-name="D" horiz-adv-x="911" d="M125 6V1360Q210 1386 336 1386Q544 1386 659 1282Q745 1208 795 1069T846 723Q846 322 680 139Q548 -8 299 -8Q188 -8 125 6ZM281 1249V127Q303 123 340 123Q395 123 442 139T535 198T612 306T663 477T682
719Q682 983 600 1120T354 1257Q308 1257 281 1249Z" />
<glyph unicode="E" glyph-name="E" horiz-adv-x="724" d="M627 788V655H281V137H674V0H123V1380H649V1243H281V788H627Z" />
<glyph unicode="F" glyph-name="F" horiz-adv-x="706" d="M123 0V1380H649V1243H281V760H625V627H281V0H123Z" />
<glyph unicode="G" glyph-name="G" horiz-adv-x="892" d="M801 721V35Q755 15 687 2T557 -12Q353 -12 231 121Q153 204 109 346T66 672Q67 828 98 953T179 1158T298 1293T438 1370T586 1393Q707 1393 780 1354L745 1219Q681 1251 588 1251Q534 1251 485 1234T388
1175T306 1070T250 909T229 686Q229 532 256 419T331 244T435 152T557 123Q629 123 653 139V590H475V721H801Z" />
<glyph unicode="H" glyph-name="H" horiz-adv-x="948" d="M123 1380H281V788H668V1380H825V0H668V645H281V0H123V1380Z" />
<glyph unicode="I" glyph-name="I" horiz-adv-x="407" d="M123 1380H281V0H123V1380Z" />
<glyph unicode="J" glyph-name="J" horiz-adv-x="542" d="M274 387V1380H432V389Q432 275 410 196T345 70T244 4T109 -16Q44 -16 6 -2L20 131Q48 123 96 123Q141 123 171 134T226 173T262 254T274 387Z" />
<glyph unicode="K" glyph-name="K" horiz-adv-x="827" d="M125 0V1380H281V725H285Q300 753 371 891L629 1380H803L465 791L811 0H641L358 666L281 532V0H125Z" />
<glyph unicode="L" glyph-name="L" horiz-adv-x="704" d="M123 0V1380H281V133H668V0H123Z" />
<glyph unicode="M" glyph-name="M" horiz-adv-x="1226" d="M987 0L958 594Q938 967 944 1135H936Q885 879 825 655L657 8H555L395 629Q321 905 281 1135H274Q276 1013 258 584L231 0H90L172 1380H344L504 750Q587 428 614 274H621Q648 439 723 750L879 1380H1055L1135
0H987Z" />
<glyph unicode="N" glyph-name="N" horiz-adv-x="952" d="M266 0H125V1380H272L526 733Q654 404 702 252H707Q688 569 688 887V1380H829V0H682L420 664Q318 909 254 1133H250Q266 886 266 477V0Z" />
<glyph unicode="O" glyph-name="O" horiz-adv-x="913" d="M471 1397Q648 1397 748 1214T848 700Q848 548 828 427T772 224T686 88T577 9T449 -16Q272 -16 169 167T66 692Q66 1028 176 1212T471 1397ZM459 1257Q396 1257 350 1209T279 1078T241 899T229 690Q229
577 241 481T278 301T351 171T461 123T569 173T639 309T673 489T684 694Q684 777 678 852T656 1003T616 1133T551 1222T459 1257Z" />
<glyph unicode="P" glyph-name="P" horiz-adv-x="817" d="M125 0V1360Q227 1386 352 1386Q558 1386 659 1286Q760 1187 760 999Q760 826 676 717Q622 642 534 603T350 563Q303 563 281 565V0H125ZM281 1247V696Q317 692 344 692Q463 692 532 768T602 989Q602 1045
590 1091T552 1175T480 1235T369 1257Q314 1257 281 1247Z" />
<glyph unicode="Q" glyph-name="Q" horiz-adv-x="913" d="M881 -59L821 -186Q632 -108 504 -37Q464 -16 453 -16Q275 -16 171 163T66 692Q66 1030 176 1213T473 1397Q650 1397 749 1213T848 700Q848 159 612 47V41Q694 5 881 -59ZM463 123Q513 123 552 157T616
245T656 376T678 529T684 694Q684 801 674 894T639 1073T570 1207T461 1257Q397 1257 350 1207T278 1073T241 893T229 692Q228 584 239 488T276 308T350 173T463 123Z" />
<glyph unicode="R" glyph-name="R" horiz-adv-x="837" d="M125 0V1360Q219 1386 350 1386Q561 1386 662 1288Q758 1189 758 1018Q758 765 537 662V657Q612 635 655 561T721 348Q771 60 801 0H641Q612 59 567 340Q544 483 494 541T342 600H281V0H125ZM281 1251V723H348Q460
723 529 799T598 999Q598 1256 365 1260Q311 1260 281 1251Z" />
<glyph unicode="S" glyph-name="S" horiz-adv-x="739" d="M57 47L92 182Q126 159 182 143T289 127Q396 127 458 190T520 360Q520 448 475 513T338 647Q78 825 78 1030Q78 1188 178 1290T442 1393Q502 1393 554 1378T635 1341L598 1206Q532 1253 434 1253Q338 1253
286 1194T233 1057Q233 1017 242 983T265 925T309 873T363 826T436 772Q676 603 676 375Q676 199 567 94T289 -12Q222 -12 155 6T57 47Z" />
<glyph unicode="T" glyph-name="T" horiz-adv-x="724" d="M285 0V1239H33V1380H694V1239H442V0H285Z" />
<glyph unicode="U" glyph-name="U" horiz-adv-x="935" d="M121 1380H279V455Q279 280 330 202T465 123Q657 123 657 455V1380H815V479Q815 223 721 104T463 -16Q121 -16 121 461V1380Z" />
<glyph unicode="V" glyph-name="V" horiz-adv-x="862" d="M510 0H348L33 1380H203L336 733Q408 397 434 203H440Q459 361 532 737L664 1380H831L510 0Z" />
<glyph unicode="W" glyph-name="W" horiz-adv-x="1339" d="M455 0H305L41 1380H203L319 715Q362 476 389 217H395Q414 389 479 717L606 1380H739L868 731Q931 396 948 217H954Q976 406 1026 723L1141 1380H1296L1028 0H872L741 672Q696 904 670 1124H666Q636 879
590 666L455 0Z" />
<glyph unicode="X" glyph-name="X" horiz-adv-x="802" d="M774 0H610L485 332Q423 501 399 573H393L311 328L193 0H31L313 705L39 1380H203L328 1061Q384 912 408 842H412L487 1067L600 1380H760L489 709L774 0Z" />
<glyph unicode="Y" glyph-name="Y" horiz-adv-x="806" d="M481 0H324V584L18 1380H186L309 1034Q390 799 412 723H416Q441 826 516 1040L633 1380H797L481 590V0Z" />
<glyph unicode="Z" glyph-name="Z" horiz-adv-x="733" d="M41 0V94L514 1241V1245H80V1380H690V1274L225 141V135H688V0H41Z" />
<glyph unicode="[" glyph-name="bracketleft" horiz-adv-x="518" d="M455 -229H152V1405H455V1296H279V-121H455V-229Z" />
<glyph unicode="\" glyph-name="backslash" horiz-adv-x="538" d="M522 -82H403L2 1397H121L522 -82Z" />
<glyph unicode="]" glyph-name="bracketright" horiz-adv-x="518" d="M63 1405H369V-229H63V-121H240V1296H63V1405Z" />
<glyph unicode="^" glyph-name="asciicircum" horiz-adv-x="1220" d="M1090 387H956L612 1182H606L262 387H131L553 1331H668L1090 387Z" />
<glyph unicode="_" glyph-name="underscore" horiz-adv-x="1024" d="M0 -154H1024V-256H0V-154Z" />
<glyph unicode="`" glyph-name="grave" horiz-adv-x="614" d="M80 1397H242L399 1120H295L80 1397Z" />
<glyph unicode="a" glyph-name="a" horiz-adv-x="745" d="M633 655V225Q633 79 643 0H502L492 104H485Q416 -16 287 -16Q187 -16 120 61T53 266Q53 357 87 427T180 540T314 604T475 627V657Q475 766 440 823T317 881Q228 881 154 829L119 940Q155 966 218 986T350
1006Q633 1006 633 655ZM479 313V514Q453 514 430 512T373 502T312 479T260 439T221 375T207 283Q207 193 243 150T328 106Q381 106 420 145T473 256Q479 283 479 313Z" />
<glyph unicode="b" glyph-name="b" horiz-adv-x="817" d="M109 238V1417H264V872H268Q337 1006 479 1006Q600 1006 675 874T750 504Q750 252 662 118T449 -16Q376 -16 331 21T252 129H244L233 0H100Q101 18 103 68T107 163T109 238ZM264 627V348Q264 314 270 287Q314
115 420 115Q466 115 500 144T553 228T582 349T592 498Q592 603 576 683T519 817T416 870Q363 870 322 817T268 694Q264 650 264 627Z" />
<glyph unicode="c" glyph-name="c" horiz-adv-x="618" d="M571 145L594 25Q532 -12 430 -12Q264 -12 166 118T68 489Q68 633 113 749T248 935T459 1006Q542 1006 598 975L567 846Q515 872 455 872Q397 872 352 840T280 754T239 632T225 489Q225 316 287 218T459
119Q522 119 571 145Z" />
<glyph unicode="d" glyph-name="d" horiz-adv-x="817" d="M551 1417H707V238Q707 228 715 0H580L569 123H563Q535 64 482 24T354 -16Q226 -16 147 118T68 492Q68 619 93 719T160 881T254 974T365 1006Q493 1006 547 889H551V1417ZM551 350V612Q551 657 549 678Q541
758 499 814T401 870Q354 870 319 839T264 754T235 635T225 492Q225 385 243 302T299 167T393 115Q504 115 545 285Q551 312 551 350Z" />
<glyph unicode="e" glyph-name="e" horiz-adv-x="743" d="M680 481H221Q221 113 455 113Q551 113 618 150L645 35Q556 -12 426 -12Q251 -12 159 120T66 485Q66 723 158 864T401 1006Q474 1006 529 970T618 871T667 733T684 571Q684 531 680 481ZM223 598H532Q534
737 491 810T385 883Q336 883 299 839T244 733T223 598Z" />
<glyph unicode="f" glyph-name="f" horiz-adv-x="466" d="M301 0H143V872H18V991H143V1051Q143 1248 231 1350Q308 1434 430 1434Q501 1434 553 1409L528 1286Q485 1303 440 1303Q301 1303 301 1055V991H481V872H301V0Z" />
<glyph unicode="g" glyph-name="g" horiz-adv-x="817" d="M709 682V127Q709 -59 686 -152T610 -305Q516 -410 346 -410Q217 -410 129 -360L166 -238Q250 -281 350 -281Q449 -281 501 -210T553 23V123H549Q525 65 474 34T358 2Q227 2 148 137T68 492Q68 623 95
725T169 886T269 976T381 1006Q497 1006 565 881H569L578 991H717Q709 723 709 682ZM553 362V649Q553 693 545 721Q507 870 401 870Q317 870 271 768T225 498Q225 318 274 225T401 131Q506 131 543 272Q553 311 553 362Z" />
<glyph unicode="h" glyph-name="h" horiz-adv-x="829" d="M111 0V1417H268V883H272Q301 932 356 971Q412 1006 487 1006Q589 1006 654 920T719 657V0H561V639Q561 872 428 872Q372 872 333 832T274 715Q268 684 268 641V0H111Z" />
<glyph unicode="i" glyph-name="i" horiz-adv-x="376" d="M268 0H111V991H268V0ZM186 1350Q229 1350 255 1322T281 1247Q281 1201 255 1173T184 1145Q145 1145 120 1173T94 1247Q94 1293 120 1321T186 1350Z" />
<glyph unicode="j" glyph-name="j" horiz-adv-x="385" d="M-37 -410L-57 -285Q-26 -276 -8 -270T35 -247T76 -207Q103 -167 113 -99T123 109V991H281V63Q281 -89 258 -174T180 -315Q139 -358 77 -383T-37 -410ZM203 1350Q244 1350 269 1322T295 1247T270 1173T201
1145Q160 1145 135 1173T109 1247T136 1321T203 1350Z" />
<glyph unicode="k" glyph-name="k" horiz-adv-x="724" d="M264 1417V530H268Q274 543 285 566T305 608T322 641L518 991H688L426 573L713 0H537L322 467L264 375V0H109V1417H264Z" />
<glyph unicode="l" glyph-name="l" horiz-adv-x="391" d="M111 0V1417H268V0H111Z" />
<glyph unicode="m" glyph-name="m" horiz-adv-x="1269" d="M111 0V735Q111 803 107 886T102 991H240L248 868H252Q286 931 343 968T475 1006Q630 1006 682 854H686Q729 932 784 967Q842 1006 922 1006Q1029 1006 1094 921T1159 655V0H1004V621Q1004 676 999 716T980
794T937 853T864 874Q814 874 775 834T719 725Q713 688 713 637V0H557V649Q557 696 552 731T534 801T492 855T420 874Q368 874 327 832T272 713Q266 675 266 629V0H111Z" />
<glyph unicode="n" glyph-name="n" horiz-adv-x="829" d="M111 0V735Q111 803 107 886T102 991H240L248 870H252Q285 932 344 969T479 1006Q588 1006 653 922T719 666V0H561V637Q561 686 556 724T536 798T494 853T424 872Q372 872 331 830T276 713Q268 680 268
623V0H111Z" />
<glyph unicode="o" glyph-name="o" horiz-adv-x="784" d="M399 1006Q540 1006 629 875T719 496Q719 359 690 256T611 95T506 11T389 -16Q248 -16 158 114T68 494Q68 624 95 725T170 886T275 976T399 1006ZM433 881T393 881T322 855T273 790T244 696T229 595T225
496Q225 442 229 393T244 290T274 198T324 134T397 109Q445 109 479 146T530 245T554 368T561 496Q561 546 557 594T542 696T512 789T464 855Z" />
<glyph unicode="p" glyph-name="p" horiz-adv-x="817" d="M109 -393V682Q109 750 108 809T104 920T100 991H240L248 864H252Q326 1006 463 1006Q595 1006 672 873T750 498Q750 365 724 263T654 102T557 14T442 -16Q324 -16 268 98H264V-393H109ZM264 616V362Q264
313 272 281Q293 186 334 151T418 115Q465 115 500 145T554 230T583 350T592 494Q592 573 582 639T552 758T497 840T416 870Q363 870 320 816T270 692Q264 659 264 616Z" />
<glyph unicode="q" glyph-name="q" horiz-adv-x="817" d="M551 -393V102H545Q519 50 468 17T352 -16Q229 -16 149 116T68 483Q68 734 157 870T379 1006Q502 1006 563 877L567 874L575 991H715Q707 723 707 682V-393H551ZM551 362V621Q551 646 547 686Q538 763
496 816T401 870Q339 870 299 817T242 683T225 492T242 301T300 167T399 115Q503 115 543 279Q551 314 551 362Z" />
<glyph unicode="r" glyph-name="r" horiz-adv-x="507" d="M109 0V735Q109 784 105 878T100 991H242L250 834H254Q280 907 338 956T463 1006Q485 1006 496 1004V844H463Q389 844 337 786T272 639Q266 598 266 549V0H109Z" />
<glyph unicode="s" glyph-name="s" horiz-adv-x="591" d="M45 45L84 164Q162 113 244 113Q310 113 349 151T389 256Q389 315 362 358T262 451Q162 514 113 581T63 731Q63 851 141 928T336 1006Q427 1006 512 954L471 836Q404 881 338 881Q278 881 245 844T211
754Q211 704 236 669T334 584Q431 522 485 450T539 283Q539 140 455 64T240 -12Q185 -12 131 3T45 45Z" />
<glyph unicode="t" glyph-name="t" horiz-adv-x="522" d="M145 1159L303 1223V991H494V872H303V283Q303 119 406 119Q445 119 469 125L477 4Q432 -12 360 -12Q256 -12 205 47Q174 82 160 139T145 297V872H25V991H145V1159Z" />
<glyph unicode="u" glyph-name="u" horiz-adv-x="815" d="M705 991V270Q705 205 709 104T713 0H575L563 104H559Q532 59 476 22T348 -16Q222 -16 164 80T106 365V991H264V387Q264 302 274 246T314 154T397 117Q458 117 494 159T539 248Q547 283 547 338V991H705Z" />
<glyph unicode="v" glyph-name="v" horiz-adv-x="710" d="M27 991H190L315 434Q340 323 358 193H365Q376 282 406 434L528 991H684L424 0H285L27 991Z" />
<glyph unicode="w" glyph-name="w" horiz-adv-x="1159" d="M27 991H190L287 506Q330 276 340 190H348Q366 322 410 502L524 991H645L754 516Q801 300 817 190H825Q842 330 879 510L973 991H1130L881 0H752L637 481Q609 590 582 778H578Q554 614 520 475L401 0H268L27
991Z" />
<glyph unicode="x" glyph-name="x" horiz-adv-x="696" d="M29 991H199L289 778Q307 736 356 606H360Q372 642 397 705T426 778L514 991H676L440 502L674 0H504L410 225Q395 258 344 395H340Q325 353 274 223L182 0H23L258 498L29 991Z" />
<glyph unicode="y" glyph-name="y" horiz-adv-x="708" d="M25 991H190L324 422Q329 397 342 326T365 217H369Q376 256 410 420L528 991H684L522 354Q468 133 412 -24T276 -285Q193 -390 98 -434L39 -301Q112 -259 180 -176Q237 -102 268 -8Q281 28 281 41Q281
61 274 78L25 991Z" />
<glyph unicode="z" glyph-name="z" horiz-adv-x="641" d="M33 0V96L346 711Q358 734 385 783T424 856V860H72V991H600V887L291 283Q242 199 211 135V131H598V0H33Z" />
<glyph unicode="{" glyph-name="braceleft" horiz-adv-x="518" d="M57 539V641Q134 641 166 683T199 786Q199 853 186 961Q174 1079 174 1143Q174 1274 245 1339T430 1405H455V1298H426Q363 1291 334 1253T305 1145Q305 1087 317 985Q328 873 328 834Q329 722
294 668T186 592V588Q233 574 262 550T310 475T328 344Q328 287 315 190Q305 62 305 33Q305 -39 332 -77T428 -123H455V-229H428Q317 -229 246 -166T174 33Q174 95 186 217Q199 323 199 393Q199 453 167 496T57 539Z" />
<glyph unicode="|" glyph-name="bar" horiz-adv-x="411" d="M141 1536H270V-512H141V1536Z" />
<glyph unicode="}" glyph-name="braceright" horiz-adv-x="518" d="M461 641V539Q384 539 352 496T319 393Q319 340 332 217Q344 95 344 33Q344 -103 273 -166T90 -229H63V-123H90Q158 -116 185 -78T213 33Q213 63 203 190Q190 303 190 344Q189 460 224 514T332
588V592Q261 613 225 668T190 834Q190 874 203 985Q213 1112 213 1145Q213 1215 184 1253T92 1298H63V1405H88Q202 1405 273 1340T344 1143Q344 1079 332 961Q319 835 319 786Q319 724 351 683T461 641Z" />
<glyph unicode="~" glyph-name="asciitilde" horiz-adv-x="1220" d="M260 453H150Q145 583 207 655T375 727Q473 727 639 641Q794 559 866 559Q917 559 941 603T963 719H1071Q1078 584 1022 513T862 442Q804 442 746 460T598 524Q513 569 460 590T362 612Q312
612 286 572T260 453Z" />
</font>
</defs>
</svg>
