<?xml version="1.0" standalone="no"?>
<!DOCTYPE svg PUBLIC "-//W3C//DTD SVG 1.1//EN" "http://www.w3.org/Graphics/SVG/1.1/DTD/svg11.dtd" >
<svg xmlns="http://www.w3.org/2000/svg">
<metadata></metadata>
<defs>
<font id="egyptian505_btroman" horiz-adv-x="1024" >
<font-face units-per-em="2048" ascent="1638" descent="-410" />
<missing-glyph horiz-adv-x="571" />
<glyph horiz-adv-x="2048" />
<glyph horiz-adv-x="2048" />
<glyph unicode="&#xd;" horiz-adv-x="571" />
<glyph unicode=" "  horiz-adv-x="571" />
<glyph unicode="&#x09;" horiz-adv-x="571" />
<glyph unicode="&#xa0;" horiz-adv-x="571" />
<glyph unicode="!" horiz-adv-x="637" d="M213 70q0 50 25.5 74t78.5 24q54 0 79.5 -24t25.5 -74q0 -51 -25.5 -75t-79.5 -24q-53 0 -78.5 24t-25.5 75zM223 1255h189l-27 -890h-135z" />
<glyph unicode="&#x22;" horiz-adv-x="678" d="M90 1362q0 48 22 74t62 26q41 0 63.5 -26t22.5 -74q0 -9 -3 -34q-1 -5 -1 -7l-66 -457h-32l-64 457q-2 17 -3 26t-1 15zM418 1360q0 49 22.5 75.5t63.5 26.5q40 0 62 -26t22 -74q0 -14 -0.5 -23t-1.5 -18l-68 -457h-31l-65 457q0 2 -1 6q-3 22 -3 33z" />
<glyph unicode="#" horiz-adv-x="1575" d="M104 467l43 115h322l100 286h-348l43 117h348l166 471h133l-168 -471h287l168 471h131l-166 -471h307l-40 -117h-310l-100 -286h332l-43 -115h-330l-166 -469h-133l166 469h-287l-166 -469h-131l166 469h-324zM600 582h289l102 286h-291z" />
<glyph unicode="$" horiz-adv-x="1141" d="M156 39v334l96 -1q-1 -7 -1.5 -17.5t-0.5 -30.5q0 -131 60.5 -188.5t197.5 -57.5h14v518q-185 64 -272.5 151t-87.5 207q0 134 92 211t268 92v170h84v-167q71 -2 155.5 -13t188.5 -33v-309h-98q1 10 1.5 20.5t0.5 30.5q0 125 -54 173.5t-194 48.5v-463 q217 -72 307.5 -158.5t90.5 -216.5q0 -146 -107.5 -239t-290.5 -103v-197h-84v193q-112 6 -203 17.5t-163 27.5zM317 971q0 -79 48.5 -132.5t156.5 -95.5v433q-99 -13 -152 -66t-53 -139zM606 567l1 -487q112 9 173.5 71.5t61.5 170.5q0 84 -58 144.5t-178 100.5z" />
<glyph unicode="%" horiz-adv-x="1663" d="M98 936q0 164 83 256t231 92q142 0 222.5 -91t80.5 -253q0 -168 -81.5 -260t-230.5 -92q-145 0 -225 91t-80 257zM240 930q0 -134 42 -203.5t124 -69.5t125.5 70.5t43.5 202.5q0 148 -42 216t-134 68q-80 0 -119.5 -70t-39.5 -214zM358 -29l826 1313h125l-826 -1313h-125 zM948 319q0 165 83 258t231 93q145 0 224 -94t79 -269q0 -155 -84.5 -245.5t-229.5 -90.5t-224 91t-79 257zM1087 313q0 -133 43 -202.5t125 -69.5q83 0 126.5 70t43.5 202q0 149 -42 217t-134 68q-81 0 -121.5 -71t-40.5 -214z" />
<glyph unicode="&#x26;" horiz-adv-x="1575" d="M111 625q0 327 150 493t446 166q82 0 162.5 -11t162.5 -34q0 -35 -1 -92t-1 -78q0 -27 1 -66.5t1 -52.5h-108q-2 141 -48.5 193.5t-166.5 52.5q-189 0 -290.5 -116t-113.5 -345h1264v-266h-78q-2 109 -31 142.5t-119 33.5h-84v-610q-155 -32 -280 -48t-213 -16 q-342 0 -497.5 156t-155.5 498zM301 621q0 -290 116.5 -424t368.5 -134q70 0 144.5 9.5t156.5 27.5v545h-786v-24z" />
<glyph unicode="'" horiz-adv-x="348" d="M90 1360q0 50 21.5 76t62.5 26t63.5 -26t22.5 -74q0 -9 -3 -34q-1 -5 -1 -7l-66 -457h-32l-66 457q-1 8 -1.5 16t-0.5 23z" />
<glyph unicode="(" horiz-adv-x="631" d="M143 477q0 235 69 427t210 351h147q-131 -172 -195.5 -359.5t-64.5 -395.5t61.5 -391t192.5 -369h-147q-137 170 -205 354t-68 383z" />
<glyph unicode=")" horiz-adv-x="631" d="M57 -260q135 179 200 369.5t65 406.5q0 198 -61 377t-191 362h149q134 -164 201 -347t67 -384q0 -230 -68 -420.5t-214 -363.5h-148z" />
<glyph unicode="*" horiz-adv-x="840" d="M129 907v127l240 -35l-154 195l113 61l92 -227l92 227l113 -63l-154 -193l242 39v-125l-240 35l158 -194l-119 -68l-92 229l-92 -229l-115 66l156 194z" />
<glyph unicode="+" horiz-adv-x="1706" d="M254 553v117h541v551h118v-551h539v-117h-539v-553h-118v553h-541z" />
<glyph unicode="," horiz-adv-x="569" d="M86 -211l109 383h204l-200 -383h-113z" />
<glyph unicode="-" horiz-adv-x="780" d="M78 371v149h624v-149h-624z" />
<glyph unicode="." horiz-adv-x="569" d="M182 70q0 51 24.5 74.5t78.5 23.5t79 -23.5t25 -74.5t-25.5 -75t-78.5 -24q-54 0 -78.5 24t-24.5 75z" />
<glyph unicode="/" horiz-adv-x="569" d="M-70 -190l564 1474h124l-563 -1474h-125z" />
<glyph unicode="0" horiz-adv-x="1141" d="M96 629q0 328 118.5 491.5t354.5 163.5q238 0 356.5 -163.5t118.5 -491.5q0 -329 -118.5 -493.5t-356.5 -164.5q-237 0 -355 164t-118 494zM270 631q0 -293 72.5 -429t226.5 -136q155 0 228 136.5t73 428.5t-73 428.5t-228 136.5q-154 0 -226.5 -136.5t-72.5 -428.5z" />
<glyph unicode="1" horiz-adv-x="1141" d="M231 950v121q65 30 135.5 75t151.5 109h162v-1024q0 -97 27.5 -128t105.5 -31h66v-72q-49 2 -107.5 3t-177.5 1q-122 0 -183.5 -1t-115.5 -3v72h74q80 0 113.5 35.5t33.5 123.5v891q-70 -60 -140.5 -103t-144.5 -69z" />
<glyph unicode="2" horiz-adv-x="1141" d="M145 0v68q0 88 7.5 149t23.5 102q28 70 82.5 129t206.5 160l176 119q91 62 130.5 120.5t39.5 131.5q0 96 -75.5 154.5t-200.5 58.5q-148 0 -211.5 -53.5t-63.5 -177.5q0 -6 1 -19t1 -20h-90v309q78 27 166 40t190 13q222 0 333.5 -83t111.5 -249q0 -97 -44.5 -168.5 t-148.5 -140.5l-204 -139q-9 -6 -26 -17q-167 -109 -208 -206q-12 -33 -18.5 -68t-6.5 -74v-30h357q131 0 163.5 39t32.5 176v18h101v-342h-826z" />
<glyph unicode="3" horiz-adv-x="1141" d="M150 20v334h106q0 -8 -1 -24t-1 -23q0 -128 56 -183.5t184 -55.5q142 0 226.5 73.5t84.5 198.5q0 130 -83.5 202.5t-244.5 82.5v108q147 5 229 69.5t82 174.5q0 102 -72.5 160.5t-199.5 58.5q-141 0 -199.5 -56t-58.5 -190v-22h-100v309q89 24 178 35.5t178 11.5 q218 0 326 -78t108 -235q0 -121 -68.5 -193t-205.5 -96q153 -31 226 -113.5t73 -224.5q0 -183 -117.5 -278t-345.5 -95q-82 0 -172.5 12.5t-187.5 36.5z" />
<glyph unicode="4" horiz-adv-x="1141" d="M90 373v147l518 735h211v-780h223v-102h-223v-146q0 -98 29 -126.5t117 -28.5h43v-72q-49 2 -106.5 3t-172.5 1t-172.5 -1t-105.5 -3v72h71q88 0 117 31t29 124v146h-578zM195 473h475v684z" />
<glyph unicode="5" horiz-adv-x="1141" d="M172 18v328h102v-24q0 -143 57.5 -203t192.5 -60q146 0 222.5 85t76.5 245q0 150 -71.5 231.5t-202.5 81.5q-83 0 -143.5 -32.5t-100.5 -100.5h-119v686h760v-108h-608v-406q58 35 119 51.5t129 16.5q195 0 301 -107t106 -305q0 -204 -123 -315t-352 -111q-77 0 -164 12 t-182 35z" />
<glyph unicode="6" horiz-adv-x="1141" d="M121 604q0 361 121.5 520.5t394.5 159.5q101 0 192 -16.5t172 -48.5v-285h-106v33q0 124 -60.5 177.5t-201.5 53.5q-184 0 -266 -124t-82 -404q62 79 144 117t189 38q200 0 314.5 -108t114.5 -297q0 -212 -122.5 -329.5t-344.5 -117.5q-237 0 -348 152.5t-111 478.5z M297 393q0 -156 77.5 -243t217.5 -87q133 0 209 88t76 242q0 162 -75 246t-220 84q-133 0 -209 -88t-76 -242z" />
<glyph unicode="7" horiz-adv-x="1141" d="M168 905v350h860v-159q-177 -261 -292.5 -539.5t-168.5 -574.5h-184q60 301 186 593t320 576h-447q-101 0 -137.5 -31.5t-36.5 -113.5v-101h-100z" />
<glyph unicode="8" horiz-adv-x="1141" d="M109 319q0 131 79.5 217t237.5 128q-135 42 -204.5 122t-69.5 191q0 147 106.5 227t304.5 80q211 0 319.5 -76.5t108.5 -226.5q0 -113 -69 -188t-220 -123q169 -45 249.5 -130.5t80.5 -217.5q0 -173 -120 -262t-353 -89q-218 0 -334 90t-116 258zM268 319q0 -119 81 -184 t229 -65q139 0 222 66t83 175q0 100 -76.5 172t-243.5 129q-155 -47 -225 -117t-70 -176zM303 993q0 -90 67.5 -158.5t202.5 -115.5q136 50 199.5 115t63.5 153q0 95 -69.5 150t-191.5 55q-131 0 -201.5 -51.5t-70.5 -147.5z" />
<glyph unicode="9" horiz-adv-x="1141" d="M106 838q0 215 120.5 331.5t342.5 116.5q235 0 345 -153.5t110 -479.5q0 -360 -118.5 -521t-383.5 -161q-81 0 -168.5 13.5t-179.5 40.5v294h105q0 -6 -1.5 -18t-1.5 -18q0 -123 56 -174.5t188 -51.5q187 0 267.5 119t80.5 395v13q-54 -77 -138.5 -115.5t-197.5 -38.5 q-199 0 -312.5 108.5t-113.5 299.5zM274 850q0 -150 76 -234t211 -84q139 0 215 87.5t76 246.5q0 155 -77 240.5t-216 85.5q-135 0 -210 -89.5t-75 -252.5z" />
<glyph unicode=":" horiz-adv-x="586" d="M188 70q0 50 25.5 74t79.5 24t79 -24t25 -74q0 -51 -25 -75t-79 -24q-53 0 -79 24.5t-26 74.5zM188 758q0 50 25.5 74t79.5 24t79 -24t25 -74q0 -51 -25 -75t-79 -24q-53 0 -79 24.5t-26 74.5z" />
<glyph unicode=";" horiz-adv-x="586" d="M86 -211l109 383h202l-200 -383h-111zM186 758q0 51 24.5 74.5t78.5 23.5t79 -24t25 -74q0 -51 -25 -75t-79 -24t-78.5 24t-24.5 75z" />
<glyph unicode="&#x3c;" horiz-adv-x="1706" d="M264 559v103l1178 483v-127l-1000 -408l1000 -405v-129z" />
<glyph unicode="=" horiz-adv-x="1706" d="M254 360v117h1198v-117h-1198zM254 743v117h1198v-117h-1198z" />
<glyph unicode="&#x3e;" horiz-adv-x="1706" d="M264 76v129l1000 405l-1000 408v127l1178 -483v-103z" />
<glyph unicode="?" horiz-adv-x="995" d="M125 915v310q91 30 179 44.5t175 14.5q216 0 327.5 -78t111.5 -229q0 -83 -43.5 -155.5t-186.5 -200.5q-12 -12 -36 -32q-122 -106 -122 -186v-55h-165v72q0 107 125 220l4 3l10 9q239 213 239 339q0 95 -70.5 149t-195.5 54q-139 0 -200.5 -45.5t-61.5 -149.5v-84h-90z M336 70q0 51 24.5 74.5t77.5 23.5q56 0 80.5 -23t24.5 -75q0 -51 -25.5 -75t-79.5 -24q-53 0 -77.5 24t-24.5 75z" />
<glyph unicode="@" horiz-adv-x="2019" d="M145 537q0 204 86 381t250 313q131 110 291 165.5t344 55.5q347 0 553.5 -187t206.5 -499q0 -157 -58 -297t-163 -236q-57 -52 -123.5 -80t-134.5 -28q-97 0 -149 52.5t-58 158.5q-62 -106 -139 -158.5t-170 -52.5q-125 0 -201 92t-76 244q0 108 49 216t138 193 q65 64 144 100t155 36q87 0 143 -49.5t78 -145.5l53 180h143l-170 -610q0 -2 -1 -5q-17 -59 -17 -104q0 -47 25.5 -74.5t68.5 -27.5q34 0 79 17.5t85 48.5q122 90 187 231t65 315q0 140 -50 252t-153 203q-90 79 -216 122.5t-267 43.5q-187 0 -341.5 -58.5t-275.5 -175.5 q-130 -126 -197 -293.5t-67 -369.5q0 -175 57 -304.5t181 -234.5q114 -97 261 -146.5t320 -49.5q163 0 317.5 52t295.5 154l30 -36q-148 -110 -313 -166t-342 -56q-187 0 -342 46.5t-274 138.5q-151 113 -229.5 274.5t-78.5 358.5zM750 375q0 -93 40.5 -147t108.5 -54 q66 0 126 44.5t116 133.5q57 94 91 202.5t34 197.5q0 93 -47.5 153t-120.5 60q-54 0 -99 -31t-92 -100q-72 -108 -114.5 -234t-42.5 -225z" />
<glyph unicode="A" horiz-adv-x="1389" d="M17 0v72q65 1 100.5 28.5t68.5 112.5l414 1042h199l420 -1048q34 -88 69 -111t102 -24v-72q-95 2 -146.5 3t-96.5 1q-44 0 -95 -0.5t-154 -3.5l-1 72q100 0 126 12t26 47q0 14 -6 37t-17 53l-82 230h-514l-90 -254q-6 -18 -9 -32t-3 -26q0 -39 29 -53t118 -14v-72 q-90 2 -139 3t-90 1q-42 0 -88.5 -0.5t-140.5 -3.5zM469 549h436l-219 584z" />
<glyph unicode="B" horiz-adv-x="1235" d="M74 0v72h43q78 0 107.5 31.5t29.5 119.5v811q0 88 -29.5 120t-107.5 32h-43v69h522q259 0 369 -72.5t110 -238.5q0 -114 -61.5 -185.5t-188.5 -105.5q149 -29 222 -108.5t73 -210.5q0 -177 -110.5 -255.5t-360.5 -78.5h-575zM432 96h180q168 0 246 57t78 179 q0 131 -81 202.5t-230 71.5h-193v-510zM432 690h191q133 0 205.5 63.5t72.5 180.5q0 119 -76.5 174t-242.5 55h-150v-473z" />
<glyph unicode="C" horiz-adv-x="1274" d="M109 625q0 321 165 490t480 169q95 0 196.5 -19.5t212.5 -58.5v-297h-96q0 7 1 19.5t1 17.5q0 125 -72 182.5t-229 57.5q-225 0 -343 -142.5t-118 -414.5q0 -276 121 -417.5t356 -141.5q92 0 158.5 19.5t95.5 55.5q16 21 25 73.5t12 147.5l99 1v-332q-117 -32 -219 -48 t-191 -16q-325 0 -490 165t-165 489z" />
<glyph unicode="D" horiz-adv-x="1452" d="M74 0v72h43q78 0 107.5 32t29.5 119v811q0 88 -29.5 120t-107.5 32h-43v69h575q349 0 520.5 -151.5t171.5 -458.5q0 -327 -170 -486t-520 -159h-577zM434 96h178q271 0 401 132.5t130 408.5q0 272 -127.5 400t-397.5 128h-184v-1069z" />
<glyph unicode="E" horiz-adv-x="1155" d="M53 0v72h62q77 0 106 31t29 120v811q0 90 -28.5 121t-106.5 31h-43v65h991v-313h-92v20q0 125 -29 159t-170 34h-342v-461h135q141 0 169 30t28 130v12h76v-436h-76q0 111 -30.5 143.5t-180.5 32.5h-121v-502h348q135 0 167 41t34 215h90v-356h-1016z" />
<glyph unicode="F" horiz-adv-x="1073" d="M57 0v72h58q77 0 106 31t29 120v811q0 90 -28.5 121t-106.5 31h-43v69h981v-317h-90v20q0 127 -30 162t-169 35h-334v-465h133q138 0 166.5 30t28.5 130v12h76v-436h-76q0 110 -31 143t-162 33h-135v-369q0 -97 32 -129t120 -32h43v-72q-51 2 -110 3t-177 1 q-116 0 -173.5 -1t-107.5 -3z" />
<glyph unicode="G" horiz-adv-x="1425" d="M109 627q0 325 166 491t491 166q106 0 218 -15.5t230 -45.5v-332h-100v14q0 153 -74 216t-256 63q-235 0 -355 -138.5t-120 -410.5q0 -280 132 -420.5t395 -140.5q50 0 100.5 5.5t103.5 16.5v303q0 82 -33 105.5t-159 23.5v63q104 -2 158.5 -2.5t101.5 -0.5q48 0 104 0.5 t162 3.5v-63q-97 -3 -125 -27.5t-28 -104.5v-385q-116 -18 -215.5 -27.5t-184.5 -9.5q-365 0 -538.5 159.5t-173.5 492.5z" />
<glyph unicode="H" horiz-adv-x="1511" d="M74 0v72h43q78 0 107.5 32t29.5 119v811q0 88 -29.5 120t-107.5 32h-43v69q111 -2 167 -3t103 -1q48 0 105.5 1t162.5 3v-69h-43q-78 0 -106.5 -32t-28.5 -120v-329h645v329q0 88 -29 120t-108 32h-41v69l166.5 -3t101.5 -1q48 0 105.5 1t163.5 3v-69h-43 q-78 0 -106.5 -32t-28.5 -120v-811q0 -88 28.5 -119.5t106.5 -31.5h43v-72q-47 2 -102 3t-167 1q-110 0 -165 -1t-103 -3v72h41q79 0 108 32t29 119v385h-645v-385q0 -88 28.5 -119.5t106.5 -31.5h43v-72q-46 2 -101.5 3t-166.5 1t-167 -1t-103 -3z" />
<glyph unicode="I" horiz-adv-x="688" d="M78 0v72h41q78 0 107.5 32t29.5 119v811q0 88 -29.5 120t-107.5 32h-41v69l166.5 -3t101.5 -1q48 0 105.5 1t162.5 3v-69h-43q-78 0 -106.5 -32t-28.5 -120v-811q0 -88 28.5 -119.5t106.5 -31.5h43v-72q-46 2 -101 3t-167 1q-110 0 -165.5 -1t-102.5 -3z" />
<glyph unicode="J" horiz-adv-x="924" d="M41 4v307h100v-22q0 -121 37.5 -171t126.5 -50q114 0 159.5 61.5t45.5 232.5v672q0 88 -28.5 120t-106.5 32h-76v69h6q186 -4 279 -4q50 0 110.5 1t173.5 3v-69h-41q-78 0 -107.5 -32t-29.5 -120v-641q0 -240 -84 -331t-299 -91q-56 0 -122.5 8.5t-143.5 24.5z" />
<glyph unicode="K" horiz-adv-x="1292" d="M68 0v72h41q78 0 107.5 32t29.5 119v811q0 88 -29.5 120t-107.5 32h-41v69h5q175 -4 263 -4q46 0 101.5 1l166.5 3v-69h-41q-78 0 -107.5 -32t-29.5 -120v-370l395 372q36 34 50 55t14 39q0 26 -30 41t-83 15v69q46 -1 98 -1.5t154 -0.5q99 0 147.5 0.5t89.5 1.5l1 -69 q-63 0 -123.5 -29t-122.5 -88l-424 -397l491 -488q2 -2 6 -5q109 -109 175 -109q3 0 9 1t9 1v-72q-43 2 -94.5 3t-155.5 1t-155.5 -1t-96.5 -3v72q65 0 91 10.5t26 36.5q0 18 -9.5 34.5t-41.5 49.5l-420 426v-406q0 -87 29.5 -119t107.5 -32h41v-72q-47 2 -102.5 3t-165.5 1 q-111 0 -166 -1t-102 -3z" />
<glyph unicode="L" horiz-adv-x="1085" d="M74 0v72h43q78 0 107.5 32t29.5 119v811q0 88 -29.5 120t-107.5 32h-43v69q113 -2 170 -3t104 -1q48 0 105 1t167 3l1 -69h-52q-78 0 -106.5 -32t-28.5 -120v-932h305q135 0 168 45t35 205h88v-352h-956z" />
<glyph unicode="M" horiz-adv-x="1700" d="M55 0v72h43q78 0 106.5 31.5t28.5 119.5l5 815q0 82 -30 115t-102 33h-34v69q74 -2 118 -3t82 -1q68 0 213 4h7l276 -856q2 -6 7 -23q37 -116 71 -231q12 44 28.5 97t49.5 157l280 856q77 -2 123 -3t86 -1q37 0 84.5 1l142.5 3v-69h-43q-78 0 -107.5 -32t-29.5 -120 l4 -811q0 -86 29.5 -118.5t108.5 -32.5h43v-72q-48 2 -103.5 3t-163.5 1q-105 0 -156.5 -1t-95.5 -3v72h41q80 0 109 31.5t29 119.5v944l-381 -1167h-170l-383 1159v-936q0 -87 29 -119t108 -32h43v-72q-42 2 -92.5 3t-151.5 1q-104 0 -155.5 -1t-96.5 -3z" />
<glyph unicode="N" horiz-adv-x="1384" d="M51 0v72h41q79 0 108 32t29 119v824q0 77 -28 106t-103 29h-37l1 73q42 -1 87.5 -1.5t126.5 -0.5q79 0 114 0.5t63 1.5l579 -1112l-2 891q0 90 -28.5 121t-106.5 31h-41v69h6q162 -4 240 -4q43 0 94.5 1t140.5 3v-73h-41q-69 0 -98 -28t-29 -97v-1057h-219l-583 1120 v-897q0 -89 28 -120t107 -31h43v-72q-46 2 -98 3t-154 1q-101 0 -150 -1t-90 -3z" />
<glyph unicode="O" horiz-adv-x="1436" d="M111 629q0 312 159 483.5t449 171.5q289 0 448.5 -171.5t159.5 -483.5q0 -313 -159.5 -485.5t-448.5 -172.5q-290 0 -449 172.5t-159 485.5zM309 631q0 -273 104.5 -416t303.5 -143q200 0 304.5 143t104.5 416t-104.5 416t-304.5 143q-199 0 -303.5 -143.5t-104.5 -415.5 z" />
<glyph unicode="P" horiz-adv-x="1112" d="M72 0v72h43q78 0 106.5 31.5t28.5 119.5v811q0 88 -28.5 120t-106.5 32h-43v69h530q224 0 339.5 -87.5t115.5 -258.5q0 -178 -108.5 -260t-348.5 -82h-170v-344q0 -87 29.5 -119t107.5 -32h41v-72q-46 2 -101.5 3t-166.5 1q-110 0 -165.5 -1t-102.5 -3zM430 649h135 q162 0 241 64.5t79 195.5q0 129 -77 192.5t-233 63.5h-145v-516z" />
<glyph unicode="Q" horiz-adv-x="1436" d="M111 627q0 313 160 485t452 172q286 0 445 -172t159 -483q0 -266 -114 -430t-330 -209q99 -67 220 -120.5t263 -92.5l-20 -80q-143 16 -316.5 85t-382.5 191q-264 33 -400 198.5t-136 455.5zM309 631q0 -272 105 -415.5t303 -143.5q199 0 304 143.5t105 415.5t-105 415.5 t-304 143.5t-303.5 -143.5t-104.5 -415.5z" />
<glyph unicode="R" horiz-adv-x="1266" d="M74 0v72h43q78 0 107.5 32t29.5 119v811q0 88 -29.5 120t-107.5 32h-43v69h532q240 0 352.5 -79t112.5 -246q0 -113 -60.5 -190t-174.5 -109q81 -15 124.5 -66t83.5 -216q3 -11 8 -32q62 -245 185 -245h18v-72h-297q-36 110 -66 246t-38 157q-41 109 -98.5 145t-190.5 36 h-131v-363q0 -87 28.5 -118t106.5 -31h43v-72q-46 2 -101.5 3t-166.5 1t-167 -1t-103 -3zM434 666h113q183 0 266.5 58.5t83.5 186.5q0 132 -73.5 192t-233.5 60h-156v-497z" />
<glyph unicode="S" horiz-adv-x="1130" d="M113 18v347l112 -1q-1 -8 -1.5 -18t-0.5 -29q0 -135 73.5 -195.5t238.5 -60.5q144 0 224.5 64.5t80.5 179.5q0 73 -41.5 124.5t-130.5 88.5l-236 98q-171 72 -238 145.5t-67 182.5q0 164 121.5 252t347.5 88q77 0 174.5 -13t214.5 -38v-320l-108 1q1 10 1.5 21t0.5 32 q0 123 -62.5 176t-206.5 53q-140 0 -220.5 -57.5t-80.5 -157.5q0 -74 41.5 -121t149.5 -90l258 -102q135 -54 201.5 -134.5t66.5 -191.5q0 -177 -127 -274t-360 -97q-92 0 -199 12t-227 35z" />
<glyph unicode="T" horiz-adv-x="1219" d="M53 928v327q71 0 196.5 -2t178.5 -2h381q61 0 179.5 2t176.5 2v-327h-94v41q0 117 -31 151.5t-135 34.5h-200v-932q0 -88 28.5 -119.5t106.5 -31.5h49v-72q-49 2 -105.5 3t-169.5 1t-169 -1t-105 -3v72h47q79 0 108 32t29 119v932h-221q-95 0 -127.5 -35.5t-32.5 -138.5 q0 -8 1 -26t1 -27h-92z" />
<glyph unicode="U" horiz-adv-x="1352" d="M33 1186v69q108 -2 163 -3t101 -1t100 1t160 3v-69h-41q-80 0 -108.5 -30.5t-28.5 -121.5v-563q0 -213 74.5 -301t251.5 -88q91 0 160 29.5t108 85.5q26 38 37.5 91t11.5 173v559q0 105 -30.5 135.5t-123.5 30.5h-43v69q101 -2 152.5 -3t95.5 -1t97 1t151 3v-69h-45 q-68 0 -93.5 -29.5t-25.5 -122.5v-567q0 -267 -109 -381.5t-362 -114.5q-250 0 -367.5 119.5t-117.5 372.5v571q0 90 -27 121t-98 31h-43z" />
<glyph unicode="V" horiz-adv-x="1311" d="M10 1186v69q80 -2 127.5 -3t89.5 -1q74 0 241 4h13v-69q-108 -2 -138 -16.5t-30 -53.5q0 -11 3 -24.5t10 -30.5l356 -944l326 940q5 18 7.5 31t2.5 22q0 40 -34.5 58t-113.5 18h-28v69h18q153 -4 223 -4q43 0 90.5 1t126.5 3v-69q-57 -4 -89 -31.5t-56 -95.5l-383 -1069 h-203l-417 1057q-15 38 -30 66.5t-26 39.5q-16 15 -37 23t-49 10z" />
<glyph unicode="W" horiz-adv-x="1817" d="M14 1255q84 -2 131 -3t88 -1q74 0 233 4h17v-69q-104 -2 -137 -20t-33 -66q0 -10 1.5 -22.5t5.5 -29.5l225 -931l266 1138h211l274 -1144l230 946q4 14 6 27t2 22q0 43 -36 61.5t-120 18.5h-14v69h13q155 -4 225 -4q42 0 90 1t122 3v-69q-65 -7 -95 -31.5t-50 -97.5 l-280 -1067h-207l-277 1138l-264 -1138h-215l-272 1061q-20 82 -49 107t-90 28z" />
<glyph unicode="X" horiz-adv-x="1352" d="M25 0v72q56 2 100.5 28.5t101.5 100.5l346 434l-364 457q-38 48 -79 70t-97 24v69q87 -2 138.5 -3t96.5 -1q78 0 252 4h19v-69h-23q-68 0 -96.5 -12t-28.5 -39q0 -13 5.5 -25.5t21.5 -34.5l258 -327l221 290q21 27 31 48.5t10 37.5q0 33 -30.5 47.5t-104.5 14.5v69h12 q159 -4 238 -4q42 0 93 1t144 3v-69q-64 -2 -112.5 -29t-98.5 -90l-325 -416l379 -456q55 -68 97 -95t91 -29v-71q-43 2 -94.5 3t-155.5 1t-157.5 -1t-98.5 -3v71q84 4 113.5 17t29.5 43q0 14 -8.5 33t-23.5 39l-275 340l-256 -344q-15 -21 -22.5 -37t-7.5 -29 q0 -30 34.5 -44t124.5 -18v-71q-45 2 -98 3t-158 1q-102 0 -151.5 -1t-91.5 -3z" />
<glyph unicode="Y" horiz-adv-x="1251" d="M14 1255q78 -2 130.5 -3t99.5 -1q80 0 259 4h13v-69h-18q-76 0 -108 -15t-32 -51q0 -13 5.5 -28t19.5 -39l254 -430l248 411q16 26 24.5 49t8.5 39q0 33 -34 48.5t-106 15.5h-14v69h29q162 -4 233 -4q45 0 94.5 1t116.5 3v-69q-54 -3 -96.5 -35t-96.5 -115l-335 -526 v-293q0 -85 28.5 -115t110.5 -30h43v-72q-49 2 -105 3t-168 1q-110 0 -164.5 -1t-101.5 -3v72h43q83 0 111.5 29.5t28.5 115.5v297l-334 537q-49 78 -89 105.5t-97 29.5z" />
<glyph unicode="Z" horiz-adv-x="1106" d="M66 0v150l792 1007h-508q-110 0 -141 -30.5t-31 -135.5v-88h-96v348h932v-157l-785 -994h551q101 0 134 44t38 220l97 1v-365h-983z" />
<glyph unicode="[" horiz-adv-x="631" d="M174 -184v1439h401v-88h-239v-1263h239v-88h-401z" />
<glyph unicode="\" horiz-adv-x="569" d="M-49 1284h125l563 -1474h-125z" />
<glyph unicode="]" horiz-adv-x="631" d="M53 -96h242v1263h-242v88h404v-1439h-404v88z" />
<glyph unicode="^" horiz-adv-x="2048" d="M412 897l522 565h178l520 -565h-92l-518 436l-520 -436h-90z" />
<glyph unicode="_" d="M0 -365h1024v-118h-1024v118z" />
<glyph unicode="`" d="M248 1296q0 32 18.5 51t48.5 19q22 0 43 -14t50 -47l251 -297h-63l-285 211h-1q-62 49 -62 77z" />
<glyph unicode="a" horiz-adv-x="1008" d="M74 242q0 145 112.5 214.5t348.5 69.5h155v97q0 96 -62.5 145t-185.5 49q-101 0 -151.5 -46.5t-50.5 -139.5h-68v225q77 19 151.5 29t143.5 10q214 0 301.5 -83.5t87.5 -289.5v-334q0 -85 23.5 -108t91.5 -23h10v-57h-74q-64 0 -114.5 -2t-92.5 -6v145 q-36 -83 -113 -124.5t-194 -41.5q-150 0 -234.5 72t-84.5 199zM238 250q0 -86 54 -136.5t146 -50.5q125 0 188.5 77t63.5 227v82h-149q-152 0 -227.5 -49.5t-75.5 -149.5z" />
<glyph unicode="b" horiz-adv-x="1108" d="M51 1262h74q66 0 121 2t102 6v-510q54 69 124.5 103t160.5 34q184 0 287.5 -127t103.5 -354q0 -209 -102 -327t-283 -118q-102 0 -181 42t-130 124v-145q-44 4 -93.5 6t-111.5 2h-70v57q82 0 104.5 19t22.5 100v897q0 87 -24 107.5t-104 21.5zM336 426q0 -178 63 -265 t191 -87q126 0 194 92t68 264q0 178 -68.5 274.5t-193.5 96.5q-129 0 -191.5 -92.5t-62.5 -282.5z" />
<glyph unicode="c" horiz-adv-x="922" d="M78 434q0 218 116 339.5t324 121.5q67 0 143 -10.5t164 -32.5v-260h-73q-4 121 -52 168t-168 47q-137 0 -205.5 -91.5t-68.5 -273.5q0 -180 70 -279.5t196 -99.5q90 0 148.5 53t68.5 144h103q-13 -139 -103.5 -214t-246.5 -75q-194 0 -305 123.5t-111 339.5z" />
<glyph unicode="d" horiz-adv-x="1110" d="M82 426q0 219 104 344t287 125q98 0 169.5 -35t117.5 -104v323q0 83 -25 103t-117 20v60h78q68 0 124.5 2t105.5 6v-1094q0 -80 23 -99.5t104 -19.5v-57h-72q-62 0 -111.5 -2t-91.5 -6v145q-52 -82 -130.5 -124t-180.5 -42q-184 0 -284.5 119t-100.5 336zM256 430 q0 -174 67 -265t195 -91q123 0 187.5 90t64.5 262q0 180 -66.5 277.5t-189.5 97.5q-124 0 -191 -96t-67 -275z" />
<glyph unicode="e" horiz-adv-x="1020" d="M80 432q0 215 116 339t316 124q211 0 317.5 -113.5t106.5 -339.5v-45h-682q3 -169 77.5 -253.5t221.5 -84.5q106 0 172 47t86 138h107q-24 -135 -124.5 -204t-275.5 -69q-210 0 -324 120t-114 341zM252 485h528q0 160 -66.5 243t-195.5 83q-118 0 -186.5 -84t-79.5 -242z " />
<glyph unicode="f" horiz-adv-x="645" d="M57 784v84h154v144q0 140 74 206t231 66q53 0 108.5 -6.5t112.5 -20.5v-204h-63q0 79 -34.5 117t-107.5 38q-85 0 -120 -41.5t-35 -148.5v-150h246v-84h-246v-583q0 -89 29 -114.5t124 -25.5v-61q-39 2 -86.5 3t-142.5 1q-94 0 -141 -1t-86 -3v61q83 2 110 28.5t27 117.5 v577h-154z" />
<glyph unicode="g" horiz-adv-x="1096" d="M86 451q0 209 103 326.5t286 117.5q100 0 180.5 -41.5t137.5 -122.5v145q46 -5 91.5 -7.5t88.5 -2.5q36 0 54.5 0.5t35.5 1.5v-59q-81 0 -106 -20.5t-25 -106.5v-623q0 -127 -11 -195t-36 -108q-57 -89 -153 -130.5t-247 -41.5q-92 0 -177 16.5t-165 49.5v266h70v-20 q0 -127 61 -180.5t205 -53.5q148 0 219.5 76t71.5 231v181q-54 -71 -126.5 -105.5t-168.5 -34.5q-186 0 -287.5 115t-101.5 326zM260 449q0 -170 67.5 -260.5t194.5 -90.5q120 0 188 95.5t68 263.5q0 166 -66 253t-192 87t-193 -89.5t-67 -258.5z" />
<glyph unicode="h" horiz-adv-x="1151" d="M53 0v61q83 2 110 28.5t27 117.5v878q0 83 -23 101t-104 18l1 58q13 -1 29.5 -1.5t47.5 -0.5q49 0 100.5 2.5t110.5 6.5v-519q56 74 133 109.5t181 35.5q168 0 243.5 -92t75.5 -299v-295q0 -106 24.5 -126t108.5 -22v-61q-37 2 -82 3t-137 1t-139 -1t-88 -3v61 q91 2 119 26.5t28 115.5v321q0 143 -52 208t-165 65q-124 0 -186 -75.5t-62 -227.5v-293q0 -88 29 -114t121 -26l-1 -61q-39 2 -86 3t-141 1q-92 0 -138 -1t-85 -3z" />
<glyph unicode="i" horiz-adv-x="561" d="M66 0v61q83 2 110 28.5t27 117.5v485q0 82 -22.5 99.5t-104.5 19.5v57h67q63 0 117.5 2t106.5 7v-676q0 -88 28.5 -114t120.5 -26v-61q-39 2 -85 3t-140 1q-92 0 -139 -1t-86 -3zM172 1190q0 49 24 71.5t76 22.5q53 0 78 -23t25 -71q0 -49 -25 -72.5t-78 -23.5 q-51 0 -75.5 23t-24.5 73z" />
<glyph unicode="j" horiz-adv-x="555" d="M-123 -133h66v-21q0 -113 24.5 -152.5t89.5 -39.5q85 0 119.5 65t34.5 246v727q0 82 -23 100t-104 19v57h68q63 0 118 2t107 7v-904q0 -133 -8.5 -184t-28.5 -84q-38 -63 -101 -93t-155 -30q-59 0 -109 8.5t-98 26.5v250zM180 1190q0 49 24 71.5t77 22.5q54 0 78 -22 t24 -72q0 -49 -25 -72.5t-77 -23.5t-76.5 23t-24.5 73z" />
<glyph unicode="k" horiz-adv-x="1036" d="M55 0v61q83 2 110.5 28.5t27.5 117.5v870q0 85 -24 104.5t-103 20.5v58h73q65 0 118.5 2t98.5 6v-754l240 203q19 17 27 27.5t8 17.5q0 22 -17.5 32t-60.5 13v61h6q133 -4 199 -4q36 0 78.5 1t117.5 3v-61h-10q-43 0 -75 -10.5t-76 -44.5l-289 -234l348 -362 q55 -57 87 -76t67 -19h10v-61q-37 2 -80 3t-127 1t-125.5 -1t-77.5 -3v61h12q32 0 51 12.5t19 32.5q0 14 -8 27.5t-29 34.5l-295 309v-276q0 -87 29 -113.5t121 -26.5l-1 -61q-39 2 -86 3t-140 1t-139 -1t-85 -3z" />
<glyph unicode="l" horiz-adv-x="561" d="M59 61q84 2 111 28.5t27 117.5v870q0 88 -23 106t-104 19v58h67q63 0 117.5 2t105.5 6v-1067q0 -88 29 -114t121 -26v-61q-39 2 -85.5 3t-139.5 1q-92 0 -139 -1t-86 -3z" />
<glyph unicode="m" horiz-adv-x="1726" d="M53 0v61q83 2 110 28.5t27 117.5v485q0 83 -23 101t-104 18l1 57q17 -1 36.5 -1.5t57.5 -0.5q43 0 89 3t91 7v-151q53 86 134.5 128t193.5 42q89 0 159 -44t111 -126q55 84 133.5 127t177.5 43q163 0 237.5 -92.5t74.5 -298.5v-305q0 -96 25.5 -116t109.5 -22v-61 q-38 2 -83 3t-136 1q-94 0 -141.5 -1t-88.5 -3v61q93 2 121.5 27t28.5 115v321q0 141 -51 207t-160 66q-107 0 -165 -78t-58 -221v-299q0 -96 25.5 -116t109.5 -22v-61q-38 2 -83 3t-136 1q-94 0 -141.5 -1t-88.5 -3v61q92 2 120 26.5t28 115.5v321q0 139 -50 206t-153 67 q-117 0 -177.5 -77t-60.5 -226v-293q0 -88 29 -114t121 -26l-1 -61q-39 2 -86 3t-141 1q-92 0 -138 -1t-85 -3z" />
<glyph unicode="n" horiz-adv-x="1151" d="M53 61q83 2 110 28.5t27 117.5v485q0 81 -22 99t-104 20l-1 57h70q63 0 115 2t96 7v-136q49 74 130 114t181 40q177 0 253.5 -90t76.5 -301v-314q0 -89 25 -108t108 -21v-61q-37 2 -82 3t-137 1t-139 -1t-88 -3v61q91 2 119 27t28 115v321q0 142 -52 207.5t-165 65.5 q-124 0 -186 -76t-62 -227v-293q0 -88 28.5 -114t121.5 -26v-61q-39 2 -85 3t-138 1q-94 0 -141 -1t-86 -3z" />
<glyph unicode="o" horiz-adv-x="1034" d="M80 434q0 220 114.5 340.5t321.5 120.5q209 0 323.5 -120.5t114.5 -340.5t-115 -341.5t-323 -121.5q-207 0 -321.5 122t-114.5 341zM252 436q0 -183 68 -280t196 -97t196 97.5t68 279.5q0 183 -67.5 279t-196.5 96q-130 0 -197 -95t-67 -280z" />
<glyph unicode="p" horiz-adv-x="1102" d="M39 -332q83 2 110 29t27 117v878q0 80 -21.5 98.5t-105.5 21.5v56h66q60 0 111.5 2t97.5 7v-148q51 82 130 124t181 42q180 0 282.5 -118t102.5 -326q0 -224 -102 -352t-279 -128q-98 0 -170.5 34.5t-128.5 107.5v-306q0 -86 28.5 -112.5t120.5 -26.5h17v-61q-43 2 -93 3 t-147 1q-95 0 -141.5 -1t-85.5 -3v61zM326 442q0 -179 69 -277.5t193 -98.5q125 0 192.5 96t67.5 274q0 175 -68.5 267t-197.5 92q-125 0 -190.5 -90.5t-65.5 -262.5z" />
<glyph unicode="q" horiz-adv-x="1102" d="M90 451q0 209 101.5 326.5t283.5 117.5q102 0 180 -41.5t131 -124.5v148q44 -5 93.5 -7t111.5 -2h70v-56q-81 -2 -104 -20.5t-23 -99.5v-878q0 -92 26.5 -118t108.5 -28v-61q-39 2 -85.5 3t-141.5 1q-97 0 -147 -1t-93 -3v61h16q94 0 122 26t28 113v306 q-57 -73 -130 -107.5t-169 -34.5q-176 0 -277.5 128t-101.5 352zM260 434q0 -178 68.5 -274.5t193.5 -96.5t192.5 97.5t67.5 277.5q0 172 -66 263.5t-190 91.5q-128 0 -197 -92.5t-69 -266.5z" />
<glyph unicode="r" horiz-adv-x="788" d="M53 0v61q83 2 110 28.5t27 117.5v485q0 82 -22 99.5t-104 19.5v57q14 -1 29.5 -1.5t45.5 -0.5q47 0 97 2.5t108 7.5v-135q49 77 122 116.5t165 39.5q24 0 102 -12q10 -2 15 -2v-265h-72v29q0 83 -29 118.5t-94 35.5q-101 0 -149 -76.5t-48 -239.5v-284q0 -88 28 -114 t114 -26h12v-61q-41 2 -89 3t-145 1q-92 0 -138 -1t-85 -3z" />
<glyph unicode="s" horiz-adv-x="887" d="M94 651q0 116 94.5 180t266.5 64q72 0 147.5 -9t155.5 -28v-242h-66v7q0 107 -54.5 153.5t-180.5 46.5q-96 0 -151.5 -38.5t-55.5 -104.5q0 -94 198 -161q51 -17 80 -27q146 -52 204.5 -112.5t58.5 -154.5q0 -124 -90 -189t-261 -65q-82 0 -166 12.5t-168 36.5v256h60 v-12q0 -116 57 -168.5t183 -52.5q104 0 162.5 40.5t58.5 113.5q0 101 -206 174q-7 2 -12 4q-207 74 -261 129t-54 147z" />
<glyph unicode="t" horiz-adv-x="715" d="M27 784v62q113 12 171.5 65.5t80.5 163.5h67v-207h275v-84h-271v-526q0 -116 22.5 -157.5t78.5 -41.5q61 0 99.5 47t41.5 125h74q0 -125 -63 -191.5t-183 -66.5q-124 0 -179 62.5t-55 204.5v544h-159z" />
<glyph unicode="u" horiz-adv-x="1151" d="M51 809v55h96q36 0 78.5 2.5t114.5 9.5v-534q0 -141 53 -207.5t164 -66.5q124 0 186 75.5t62 227.5v315q0 79 -23.5 101t-93.5 22h-12v55h92q34 0 75.5 2.5t125.5 10.5v-701q0 -81 22.5 -99t104.5 -20v-57h-74q-65 0 -114.5 -2t-90.5 -6v133q-51 -74 -132 -114t-181 -40 q-177 0 -252.5 88.5t-75.5 300.5v318q0 88 -22 109.5t-91 21.5h-12z" />
<glyph unicode="v" horiz-adv-x="1061" d="M19 807v61q80 -2 125.5 -3t84.5 -1q72 0 222 4h6l-1 -61q-98 -4 -131.5 -19.5t-33.5 -52.5q0 -10 3 -21t11 -32l240 -584l229 574q8 19 12.5 34t4.5 25q0 40 -32.5 56t-129.5 20v61q80 -2 124 -3t81 -1q36 0 79.5 1t128.5 3v-61q-45 -10 -72.5 -34.5t-60.5 -98.5 l-293 -686h-176l-297 684q-35 82 -60.5 107t-63.5 28z" />
<glyph unicode="w" horiz-adv-x="1559" d="M17 807v61q72 -2 113.5 -3t76.5 -1q63 0 200 4h7l-1 -61q-85 -4 -113 -20t-28 -56q0 -9 2.5 -22t8.5 -34l178 -575l241 764h187l241 -770l160 580q4 13 6 26.5t2 26.5q0 40 -23.5 57.5t-88.5 22.5v61q73 -2 110 -3t68 -1t68 1t110 3v-61q-51 -6 -79 -35.5t-52 -109.5 l-197 -674h-196l-230 770l-239 -770h-195l-225 692q-24 75 -48 98.5t-64 28.5z" />
<glyph unicode="x" horiz-adv-x="1061" d="M27 0v61h10q35 0 66 17.5t67 56.5l260 301l-246 273q-54 58 -82 76t-59 22v61q83 -2 125 -3t76 -1q36 0 78.5 1t117.5 3v-61q-57 -2 -77.5 -13t-20.5 -38q0 -12 6 -24.5t19 -26.5l176 -193l159 190q10 13 15.5 25.5t5.5 22.5q0 27 -19.5 40t-68.5 17v61h6q125 -4 184 -4 q33 0 72 1t106 3l1 -61h-5q-38 0 -77.5 -23.5t-81.5 -72.5l-226 -260l275 -299q50 -57 79 -74t64 -17v-61q-34 2 -75.5 3t-125.5 1q-81 0 -123 -1t-77 -3v61h12q42 0 63 9.5t21 27.5t-6.5 32t-26.5 36l-184 207l-178 -209q-16 -18 -23.5 -34t-7.5 -34q0 -17 20.5 -26 t59.5 -9h25v-61q-34 2 -73 3t-118 1q-78 0 -116.5 -1t-71.5 -3z" />
<glyph unicode="y" horiz-adv-x="995" d="M-37 868q88 -2 133.5 -3t83.5 -1q74 0 224 4h6v-61q-98 0 -131 -16t-33 -58q0 -10 2.5 -20.5t7.5 -22.5l252 -557l252 555q6 15 9 27t3 20q0 37 -34 52.5t-127 19.5l-1 61l132 -3t79 -1q37 0 81 1t122 3v-61q-44 -7 -77 -38t-64 -97l-396 -848q-12 -27 -18 -48.5 t-6 -39.5q0 -38 24 -52t121 -16v-61q-33 2 -73 3t-121 1q-85 0 -128.5 -1t-80.5 -3v61q45 2 79 28.5t58 80.5l88 190l-332 707q-38 83 -65 106.5t-69 26.5z" />
<glyph unicode="z" horiz-adv-x="913" d="M76 0v127l586 651h-373q-75 0 -103 -35.5t-28 -130.5h-70v252h725v-129l-584 -649h361q130 0 155 32.5t25 160.5h68v-279h-762z" />
<glyph unicode="{" d="M176 606v60q165 15 223 74t58 216v213q0 200 81 273.5t298 73.5h10v-51q-142 -2 -194 -55.5t-52 -209.5v-143q0 -226 -61 -308.5t-226 -113.5q165 -31 226 -113.5t61 -308.5v-143q0 -156 51.5 -208.5t194.5 -54.5v-51h-10q-217 0 -298 73.5t-81 272.5v213q0 158 -59 218 t-222 73z" />
<glyph unicode="|" d="M449 -483v2048h126v-2048h-126z" />
<glyph unicode="}" d="M178 -193q143 2 194.5 54.5t51.5 208.5v143q0 226 61 308.5t226 113.5q-165 31 -226 113.5t-61 308.5v143q0 156 -52 209.5t-194 55.5v51h10q216 0 297.5 -74t81.5 -273v-213q0 -157 58 -216t223 -74v-60q-163 -13 -222 -73t-59 -218v-213q0 -198 -81.5 -272t-297.5 -74 h-10v51z" />
<glyph unicode="~" horiz-adv-x="1706" d="M178 461v133q105 73 202 109t185 36q56 0 116.5 -12.5t174.5 -52.5q12 -4 35 -13q164 -59 254 -59q85 0 176 36.5t209 119.5v-131q-101 -72 -197.5 -108t-189.5 -36q-43 0 -90.5 9t-100.5 26q-30 10 -87 31q-202 72 -302 72q-83 0 -173.5 -37.5t-211.5 -122.5z" />
<glyph unicode="&#xa1;" horiz-adv-x="637" d="M215 1186q0 51 24.5 74.5t77.5 23.5q54 0 79.5 -24t25.5 -74q0 -51 -25.5 -75t-79.5 -24t-78 23.5t-24 75.5zM223 0l27 891h135l27 -891h-189z" />
<glyph unicode="&#xa2;" horiz-adv-x="1141" d="M172 434q0 230 117.5 347.5t347.5 117.5q23 0 35 -0.5t22 -1.5l74 236h94l-78 -246q34 -6 110 -24l42 -9v-262h-73q-2 84 -29.5 135.5t-79.5 67.5l-232 -717q24 -10 50.5 -14.5t60.5 -4.5q93 0 151 52.5t70 148.5h102q-10 -135 -95.5 -212t-225.5 -77q-39 0 -74 3.5 t-68 10.5l-85 -272h-97l97 295q-116 49 -176 158t-60 268zM336 420q0 -108 24.5 -180t77.5 -119l225 690q-7 1 -15.5 1.5t-24.5 0.5q-145 0 -216 -97.5t-71 -295.5z" />
<glyph unicode="&#xa3;" horiz-adv-x="1141" d="M111 594v90h157v178q0 218 113 320t354 102q68 0 144.5 -5.5t169.5 -16.5v-304h-95v27q0 122 -47 169.5t-168 47.5q-161 0 -236 -79.5t-75 -250.5v-188h336v-90h-336v-494h326q130 0 170.5 41.5t40.5 171.5v43h96v-356h-932v61q84 0 111.5 28.5t27.5 125.5v379h-157z" />
<glyph unicode="&#xa4;" horiz-adv-x="1241" d="M86 424l207 205q-44 58 -66 122t-22 134q0 69 22 133.5t66 122.5l-207 205l72 73l207 -207q60 46 122.5 68.5t133.5 22.5t135.5 -22.5t124.5 -68.5l204 207l72 -73l-205 -205q43 -57 64.5 -121t21.5 -135t-21.5 -135.5t-64.5 -120.5l205 -205l-72 -74l-204 207 q-57 -44 -121.5 -66t-138.5 -22t-136.5 21.5t-119.5 66.5l-207 -207zM309 887q0 -131 91.5 -223.5t222.5 -92.5q129 0 221 93t92 223q0 129 -91.5 221t-221.5 92t-222 -92t-92 -221z" />
<glyph unicode="&#xa5;" horiz-adv-x="1157" d="M23 1186v69q37 -1 82 -1.5t143 -0.5q102 0 156.5 0.5t103.5 1.5v-69q-98 0 -128 -14t-30 -52q0 -12 4 -26t17 -43l211 -449l227 457q8 16 12 31t4 28q0 39 -30.5 53.5t-122.5 14.5v69q48 -1 99.5 -1.5t148.5 -0.5q92 0 134 0.5t76 1.5v-69q-59 -3 -104 -37.5t-88 -112.5 l-111 -202h232v-76h-279l-112 -199h391v-76h-414v-266q0 -85 28.5 -115t110.5 -30h45v-72q-45 2 -98.5 3t-161.5 1q-106 0 -159.5 -1t-100.5 -3v72h45q82 0 111 30t29 115v266h-392v76h371l-108 199h-263v76h222l-115 217q-37 70 -80.5 101.5t-105.5 33.5z" />
<glyph unicode="&#xa6;" d="M449 -350v758h126v-758h-126zM449 674v758h126v-758h-126z" />
<glyph unicode="&#xa7;" d="M111 561q0 73 40.5 134t124.5 114q-55 37 -81.5 87t-26.5 118q0 129 95.5 200.5t268.5 71.5q74 0 148 -11t149 -34v-266h-77v18q0 107 -54.5 158t-167.5 51q-94 0 -149 -42t-55 -113q0 -105 224 -195q55 -22 85 -35q145 -61 212.5 -135.5t67.5 -171.5q0 -74 -40 -136 t-123 -116q52 -43 77 -95t25 -118q0 -135 -92.5 -206.5t-267.5 -71.5q-81 0 -161.5 14.5t-162.5 44.5v280h74v-28q0 -124 56 -177t185 -53q99 0 155 42.5t56 115.5q0 125 -264 233q-47 19 -72 29q-125 53 -187 126t-62 167zM258 600q0 -133 327 -262q62 -24 95 -37 q44 43 67 86.5t23 83.5q0 134 -322 260q-64 25 -100 39q-45 -43 -67.5 -86t-22.5 -84z" />
<glyph unicode="&#xa8;" d="M240 1165q0 46 24 69t72 23t72 -23.5t24 -70.5q0 -46 -24.5 -69t-73.5 -23q-46 0 -70 24.5t-24 69.5zM592 1165q0 46 24 69t72 23t72 -23.5t24 -70.5q0 -46 -24.5 -69t-73.5 -23q-45 0 -69.5 24.5t-24.5 69.5z" />
<glyph unicode="&#xa9;" horiz-adv-x="1683" d="M139 678q0 140 53 268.5t152 229.5q98 99 228 152.5t272 53.5q137 0 266.5 -53.5t226.5 -150.5q98 -97 152.5 -228.5t54.5 -271.5t-53 -268t-154 -230q-98 -100 -225 -152.5t-270 -52.5t-269 52.5t-227 152.5t-154 227t-53 271zM225 678q0 -125 47 -238.5t136 -201.5 q88 -89 198.5 -135t235.5 -46q126 0 236.5 46t197.5 135q88 90 135 203t47 237t-47.5 240.5t-132.5 201.5q-86 87 -200.5 135t-233.5 48q-123 0 -237.5 -48.5t-200.5 -136.5q-88 -89 -134.5 -202.5t-46.5 -237.5zM426 664q0 186 116 312t285 126q74 0 148 -34t82 -34 q27 0 42 14.5t21 47.5h35l2 -314h-41q-34 137 -104 206t-176 69q-123 0 -185.5 -94.5t-62.5 -278.5q0 -189 67 -285t199 -96q86 0 156 43t127 131l34 -24q-58 -105 -143 -157t-199 -52q-167 0 -285 123t-118 297z" />
<glyph unicode="&#xaa;" horiz-adv-x="756" d="M55 819q0 102 85 150.5t261 48.5h117v67q0 68 -46.5 102t-139.5 34q-76 0 -114 -32.5t-38 -96.5h-51v157q61 13 117.5 20t103.5 7q161 0 227 -58.5t66 -201.5v-236q0 -59 17.5 -74.5t68.5 -15.5h6v-41h-55q-43 0 -82 -1.5t-71 -4.5l-1 102q-27 -58 -85 -87t-146 -29 q-113 0 -176.5 50t-63.5 140zM178 823q0 -59 41 -94t111 -35q93 0 140.5 53.5t47.5 157.5v58h-112q-115 0 -171.5 -35t-56.5 -105z" />
<glyph unicode="&#xab;" horiz-adv-x="938" d="M90 434l236 314h163l-241 -314l241 -313h-163zM449 434l235 314h164l-242 -314l242 -313h-164z" />
<glyph unicode="&#xac;" horiz-adv-x="1706" d="M254 741v117h1198v-502h-115v385h-1083z" />
<glyph unicode="&#xad;" horiz-adv-x="780" d="M78 371v149h624v-149h-624z" />
<glyph unicode="&#xae;" horiz-adv-x="1683" d="M139 678q0 140 53 268.5t152 229.5q98 99 228 152.5t272 53.5q138 0 268.5 -54t228.5 -152q97 -97 150 -228t53 -272q0 -137 -55.5 -267.5t-157.5 -232.5q-99 -99 -224.5 -150t-270.5 -51q-137 0 -263 52.5t-227 152.5t-154 227t-53 271zM225 678q0 -127 46.5 -239 t136.5 -201q88 -89 198.5 -135t235.5 -46q126 0 236.5 46t197.5 135q88 90 135 203t47 237t-47.5 241.5t-132.5 200.5q-86 87 -200.5 135t-233.5 48q-122 0 -236 -48t-202 -137t-134.5 -202.5t-46.5 -237.5zM469 291v40q72 3 99.5 24.5t27.5 76.5v516q0 55 -26 76t-101 25 v43h393q147 0 232.5 -54.5t85.5 -146.5q0 -76 -69.5 -124t-217.5 -75q93 -29 142 -77.5t71 -133.5q6 -22 11 -63q13 -88 59 -88q32 0 49.5 34t17.5 99h43v-12q0 -88 -40.5 -133.5t-119.5 -45.5q-46 0 -78.5 17t-48.5 49q-18 40 -21 113.5t-9 95.5q-20 68 -70.5 100.5 t-136.5 32.5h-33v-248q0 -54 26.5 -75.5t98.5 -25.5v-40h-385zM729 719q16 -1 32 -1.5t34 -0.5q112 0 173.5 45.5t61.5 128.5q0 73 -53 117.5t-143 44.5q-52 0 -78.5 -18.5t-26.5 -53.5v-262z" />
<glyph unicode="&#xaf;" d="M250 1104v121h524v-121h-524z" />
<glyph unicode="&#xb0;" horiz-adv-x="674" d="M55 1171q0 119 82.5 201t200.5 82q117 0 200 -83t83 -200q0 -116 -83.5 -199t-201.5 -83t-199.5 82t-81.5 200zM135 1171q0 -84 59.5 -143t143.5 -59t142.5 59t58.5 143t-58.5 142.5t-142.5 58.5t-143.5 -58.5t-59.5 -142.5z" />
<glyph unicode="&#xb1;" horiz-adv-x="1706" d="M254 41v117h1198v-117h-1198zM254 719v117h541v344h118v-344h539v-117h-539v-344h-118v344h-541z" />
<glyph unicode="&#xb2;" horiz-adv-x="754" d="M96 502v41q0 50 5 87t16 64q32 74 184 169l6 3l117 72q59 36 85 71.5t26 80.5q0 57 -50 92t-133 35q-97 0 -138.5 -32.5t-41.5 -107.5v-22h-59v186q54 16 112 23.5t123 7.5q147 0 221 -50t74 -149q0 -58 -29.5 -101t-99.5 -85l-135 -82l-11 -7q-114 -68 -143 -128 q-8 -20 -12 -41t-4 -43v-19h235q88 0 109.5 24t21.5 105v11h66v-205h-545z" />
<glyph unicode="&#xb3;" horiz-adv-x="754" d="M98 514v201h72q0 -6 -1 -15.5t-1 -13.5q0 -77 36.5 -110t121.5 -33q94 0 149 44.5t55 119.5q0 77 -54.5 120t-160.5 50l1 65q96 3 150 41.5t54 103.5q0 62 -48 97t-132 35q-93 0 -131.5 -33.5t-38.5 -114.5v-12h-66v184q59 14 118.5 21.5t117.5 7.5q144 0 215.5 -47 t71.5 -142q0 -71 -46 -114.5t-137 -57.5q102 -18 150.5 -68t48.5 -134q0 -111 -77.5 -167.5t-229.5 -56.5q-59 0 -118.5 7.5t-119.5 21.5z" />
<glyph unicode="&#xb4;" d="M365 1008l251 297q29 33 50 47t43 14q29 0 48 -19t19 -47q0 -19 -11 -35t-52 -46l-285 -211h-63z" />
<glyph unicode="&#xb5;" horiz-adv-x="1120" d="M-80 -330q0 40 64.5 273.5t105.5 427.5l109 514h147l-104 -492q-6 -30 -9.5 -58.5t-3.5 -53.5q0 -83 42 -129t118 -46q98 0 163.5 68.5t94.5 200.5l111 510h149l-114 -531q-13 -59 -17 -87.5t-4 -49.5q0 -48 26 -78t66 -30q35 0 65.5 18t51.5 51t41 93.5t39 60.5 q12 0 19 -10t7 -27q0 -25 -11 -66.5t-29 -83.5q-38 -82 -95 -122.5t-135 -40.5q-68 0 -108.5 51t-40.5 139v23q-46 -110 -116 -164t-165 -54q-96 0 -152.5 54.5t-70.5 161.5q-27 -136 -52 -339q-34 -272 -112 -272q-37 0 -58.5 23.5t-21.5 64.5z" />
<glyph unicode="&#xb6;" d="M76 1130q0 157 107.5 253t285.5 96h479v-78h-125v-1401h-94v1401h-182v-1401h-96v782q-173 8 -274 102.5t-101 245.5z" />
<glyph unicode="&#xb7;" horiz-adv-x="569" d="M180 639q0 44 30.5 75t74.5 31t75 -30.5t31 -75.5q0 -43 -31.5 -73.5t-74.5 -30.5t-74 30.5t-31 73.5z" />
<glyph unicode="&#xb8;" d="M276 -373l33 72q68 -34 125 -52t96 -18q64 0 93.5 23.5t29.5 73.5q0 42 -28.5 65t-81.5 23q-14 0 -28.5 -1.5t-33.5 -4.5v192h60v-119q14 3 29.5 4.5t29.5 1.5q83 0 130.5 -44.5t47.5 -121.5q0 -76 -58.5 -121.5t-156.5 -45.5q-56 0 -126 17.5t-161 55.5z" />
<glyph unicode="&#xb9;" horiz-adv-x="754" d="M154 1071v74q42 17 89 44.5t99 65.5h109v-614q0 -59 17.5 -77.5t68.5 -18.5h45l-1 -43q-32 1 -70.5 1.5t-117.5 0.5q-81 0 -121.5 -0.5t-76.5 -1.5v43h49q54 0 76 21t22 75v535q-44 -36 -90.5 -61.5t-97.5 -43.5z" />
<glyph unicode="&#xba;" horiz-adv-x="776" d="M59 952q0 154 86.5 239t241.5 85q157 0 243.5 -85t86.5 -239q0 -153 -87 -238t-243 -85q-154 0 -241 85t-87 238zM188 954q0 -128 51.5 -196t147.5 -68t147.5 68t51.5 196t-51 195.5t-148 67.5q-98 0 -148.5 -67t-50.5 -196z" />
<glyph unicode="&#xbb;" horiz-adv-x="938" d="M90 121l242 313l-242 314h166l233 -314l-233 -313h-166zM449 121l241 313l-241 314h163l236 -314l-236 -313h-163z" />
<glyph unicode="&#xbc;" horiz-adv-x="1780" d="M147 1085v68q41 17 85 42.5t96 59.5h100v-573q0 -53 17.5 -70.5t66.5 -17.5h43v-41q-31 1 -68 1.5t-112 0.5q-76 0 -115.5 -0.5t-72.5 -1.5l-1 41h47q51 0 72 19.5t21 68.5v500q-44 -35 -89 -59t-90 -38zM377 -29l899 1313h125l-899 -1313h-125zM1118 209v82l326 411h133 v-436h141v-57h-141v-82q0 -55 18 -70.5t74 -15.5h27l-1 -41q-29 1 -65.5 1.5t-109.5 0.5t-109 -0.5t-65 -1.5v41h45q55 0 72.5 16.5t17.5 69.5v82h-363zM1184 264h299v383z" />
<glyph unicode="&#xbd;" horiz-adv-x="1780" d="M147 1085v68q41 17 85 42.5t96 59.5h100v-573q0 -53 17.5 -70.5t66.5 -17.5h43v-41q-31 1 -68 1.5t-112 0.5q-76 0 -115.5 -0.5t-72.5 -1.5l-1 41h47q51 0 72 19.5t21 68.5v500q-44 -35 -89 -59t-90 -38zM377 -29l899 1313h125l-899 -1313h-125zM1153 0v37q0 53 4.5 86 t13.5 55q32 72 176 158l7 4l110 68q58 34 82.5 66.5t24.5 74.5q0 54 -47.5 86.5t-126.5 32.5q-93 0 -132.5 -30t-39.5 -99q0 -4 1 -11.5t1 -11.5h-58v174q49 15 104 22t122 7q139 0 208.5 -46.5t69.5 -140.5q0 -54 -27.5 -93.5t-93.5 -78.5l-128 -77l-25 -15 q-98 -59 -123 -110q-7 -17 -10.5 -37t-3.5 -43v-17h223q84 0 104.5 21.5t20.5 97.5v13h63v-193h-520z" />
<glyph unicode="&#xbe;" horiz-adv-x="1780" d="M94 565v187h68q0 -6 -1 -14.5t-1 -12.5q0 -72 35 -103.5t116 -31.5q90 0 143.5 42t53.5 111q0 73 -53 113.5t-154 46.5v59q93 4 145 40.5t52 97.5q0 57 -46.5 90t-125.5 33q-90 0 -127 -31.5t-37 -106.5v-12h-62v172q52 13 108 20t116 7q138 0 206 -43.5t68 -132.5 q0 -67 -44 -107.5t-130 -54.5q97 -17 142.5 -63t45.5 -126q0 -103 -73.5 -155.5t-216.5 -52.5q-51 0 -107.5 7t-120.5 21zM377 -29l899 1313h125l-899 -1313h-125zM1118 209v82l326 411h133v-436h141v-57h-141v-82q0 -55 18 -70.5t74 -15.5h27l-1 -41q-29 1 -65.5 1.5 t-109.5 0.5t-109 -0.5t-65 -1.5v41h45q55 0 72.5 16.5t17.5 69.5v82h-363zM1184 264h299v383z" />
<glyph unicode="&#xbf;" horiz-adv-x="995" d="M100 279q0 81 43 153t189 203q12 11 36 31q121 106 121 186v57h164v-73q0 -106 -121 -215l-7 -6l-20 -18q-231 -208 -231 -333q0 -94 70.5 -147.5t196.5 -53.5q140 0 201 45.5t61 149.5v82h92v-309q-91 -30 -180 -45t-176 -15q-216 0 -327.5 78t-111.5 230zM477 1186 q0 51 24.5 74.5t78.5 23.5q52 0 78 -24.5t26 -73.5q0 -51 -25.5 -75t-78.5 -24q-55 0 -79 23t-24 76z" />
<glyph unicode="&#xc0;" horiz-adv-x="1389" d="M17 0v72q65 1 100.5 28.5t68.5 112.5l414 1042h199l420 -1048q34 -88 69 -111t102 -24v-72q-95 2 -146.5 3t-96.5 1q-44 0 -95 -0.5t-154 -3.5l-1 72q100 0 126 12t26 47q0 14 -6 37t-17 53l-82 230h-514l-90 -254q-6 -18 -9 -32t-3 -26q0 -39 29 -53t118 -14v-72 q-90 2 -139 3t-90 1q-42 0 -88.5 -0.5t-140.5 -3.5zM441 1685q0 32 18.5 51t48.5 19q22 0 43 -14t50 -47l251 -297h-63l-285 211h-1q-62 49 -62 77zM469 549h436l-219 584z" />
<glyph unicode="&#xc1;" horiz-adv-x="1389" d="M17 0v72q65 1 100.5 28.5t68.5 112.5l414 1042h199l420 -1048q34 -88 69 -111t102 -24v-72q-95 2 -146.5 3t-96.5 1q-44 0 -95 -0.5t-154 -3.5l-1 72q100 0 126 12t26 47q0 14 -6 37t-17 53l-82 230h-514l-90 -254q-6 -18 -9 -32t-3 -26q0 -39 29 -53t118 -14v-72 q-90 2 -139 3t-90 1q-42 0 -88.5 -0.5t-140.5 -3.5zM469 549h436l-219 584zM558 1397l251 297q29 33 50 47t43 14q29 0 48 -19t19 -47q0 -19 -11 -35t-52 -46l-285 -211h-63z" />
<glyph unicode="&#xc2;" horiz-adv-x="1389" d="M17 0v72q65 1 100.5 28.5t68.5 112.5l414 1042h199l420 -1048q34 -88 69 -111t102 -24v-72q-95 2 -146.5 3t-96.5 1q-44 0 -95 -0.5t-154 -3.5l-1 72q100 0 126 12t26 47q0 14 -6 37t-17 53l-82 230h-514l-90 -254q-6 -18 -9 -32t-3 -26q0 -39 29 -53t118 -14v-72 q-90 2 -139 3t-90 1q-42 0 -88.5 -0.5t-140.5 -3.5zM424 1397l224 348h112l226 -348h-62l-219 213l-219 -213h-62zM469 549h436l-219 584z" />
<glyph unicode="&#xc3;" horiz-adv-x="1389" d="M17 0v72q65 1 100.5 28.5t68.5 112.5l414 1042h199l420 -1048q34 -88 69 -111t102 -24v-72q-95 2 -146.5 3t-96.5 1q-44 0 -95 -0.5t-154 -3.5l-1 72q100 0 126 12t26 47q0 14 -6 37t-17 53l-82 230h-514l-90 -254q-6 -18 -9 -32t-3 -26q0 -39 29 -53t118 -14v-72 q-90 2 -139 3t-90 1q-42 0 -88.5 -0.5t-140.5 -3.5zM418 1444q19 102 65 153.5t120 51.5q17 0 38 -3.5t44 -9.5l113 -33q15 -5 28 -7.5t22 -2.5q36 0 58 21t35 67h51q-18 -100 -66 -151t-123 -51q-15 0 -32 2.5t-36 7.5l-112 33q-18 5 -34.5 8.5t-24.5 3.5q-38 0 -60 -21 t-37 -69h-49zM469 549h436l-219 584z" />
<glyph unicode="&#xc4;" horiz-adv-x="1389" d="M17 0v72q65 1 100.5 28.5t68.5 112.5l414 1042h199l420 -1048q34 -88 69 -111t102 -24v-72q-95 2 -146.5 3t-96.5 1q-44 0 -95 -0.5t-154 -3.5l-1 72q100 0 126 12t26 47q0 14 -6 37t-17 53l-82 230h-514l-90 -254q-6 -18 -9 -32t-3 -26q0 -39 29 -53t118 -14v-72 q-90 2 -139 3t-90 1q-42 0 -88.5 -0.5t-140.5 -3.5zM433 1554q0 46 24 69t72 23t72 -23.5t24 -70.5q0 -46 -24.5 -69t-73.5 -23q-46 0 -70 24.5t-24 69.5zM469 549h436l-219 584zM785 1554q0 46 24 69t72 23t72 -23.5t24 -70.5q0 -46 -24.5 -69t-73.5 -23q-45 0 -69.5 24.5 t-24.5 69.5z" />
<glyph unicode="&#xc5;" horiz-adv-x="1389" d="M17 0v72q65 1 100.5 28.5t68.5 112.5l414 1042h199l420 -1048q34 -88 69 -111t102 -24v-72q-95 2 -146.5 3t-96.5 1q-44 0 -95 -0.5t-154 -3.5l-1 72q100 0 126 12t26 47q0 14 -6 37t-17 53l-82 230h-514l-90 -254q-6 -18 -9 -32t-3 -26q0 -39 29 -53t118 -14v-72 q-90 2 -139 3t-90 1q-42 0 -88.5 -0.5t-140.5 -3.5zM455 1581q0 101 69.5 169.5t171.5 68.5t171 -70t69 -174q0 -97 -70 -166.5t-170 -69.5q-101 0 -171 70.5t-70 171.5zM469 549h436l-219 584zM549 1581q0 -62 42 -104.5t103 -42.5q63 0 105.5 41t42.5 102q0 63 -42 106 t-104 43q-60 0 -103.5 -43t-43.5 -102z" />
<glyph unicode="&#xc6;" horiz-adv-x="1819" d="M-39 72h14q39 0 70.5 24.5t89.5 116.5l520 821q22 34 30.5 55t8.5 37q0 31 -28 45.5t-91 14.5h-14v69h1168v-317h-93v20q0 132 -33 168.5t-165 36.5h-342v-473h133q142 0 170 30t28 130v12h76v-436h-76q0 111 -30.5 143.5t-179.5 32.5h-121v-500h346q136 0 168.5 42.5 t34.5 211.5h90v-356h-1016v72h61q78 0 106.5 31t28.5 120v228h-479l-147 -246q-11 -20 -16 -35.5t-5 -28.5q0 -38 25.5 -53.5t93.5 -15.5h33l-1 -72q-93 3 -139.5 3.5t-86.5 0.5q-41 0 -88 -0.5t-143 -3.5zM494 545h421v618h-41z" />
<glyph unicode="&#xc7;" horiz-adv-x="1274" d="M109 625q0 321 165 490t480 169q95 0 196.5 -19.5t212.5 -58.5v-297h-96q0 7 1 19.5t1 17.5q0 125 -72 182.5t-229 57.5q-225 0 -343 -142.5t-118 -414.5q0 -276 121 -417.5t356 -141.5q92 0 158.5 19.5t95.5 55.5q16 21 25 73.5t12 147.5l99 1v-332q-117 -32 -219 -48 t-191 -16q-325 0 -490 165t-165 489zM466 -373l33 72q68 -34 125 -52t96 -18q64 0 93.5 23.5t29.5 73.5q0 42 -28.5 65t-81.5 23q-14 0 -28.5 -1.5t-33.5 -4.5v192h60v-119q14 3 29.5 4.5t29.5 1.5q83 0 130.5 -44.5t47.5 -121.5q0 -76 -58.5 -121.5t-156.5 -45.5 q-56 0 -126 17.5t-161 55.5z" />
<glyph unicode="&#xc8;" horiz-adv-x="1155" d="M53 0v72h62q77 0 106 31t29 120v811q0 90 -28.5 121t-106.5 31h-43v65h991v-313h-92v20q0 125 -29 159t-170 34h-342v-461h135q141 0 169 30t28 130v12h76v-436h-76q0 111 -30.5 143.5t-180.5 32.5h-121v-502h348q135 0 167 41t34 215h90v-356h-1016zM314 1685 q0 32 18.5 51t48.5 19q22 0 43 -14t50 -47l251 -297h-63l-285 211h-1q-62 49 -62 77z" />
<glyph unicode="&#xc9;" horiz-adv-x="1155" d="M53 0v72h62q77 0 106 31t29 120v811q0 90 -28.5 121t-106.5 31h-43v65h991v-313h-92v20q0 125 -29 159t-170 34h-342v-461h135q141 0 169 30t28 130v12h76v-436h-76q0 111 -30.5 143.5t-180.5 32.5h-121v-502h348q135 0 167 41t34 215h90v-356h-1016zM431 1397l251 297 q29 33 50 47t43 14q29 0 48 -19t19 -47q0 -19 -11 -35t-52 -46l-285 -211h-63z" />
<glyph unicode="&#xca;" horiz-adv-x="1155" d="M53 0v72h62q77 0 106 31t29 120v811q0 90 -28.5 121t-106.5 31h-43v65h991v-313h-92v20q0 125 -29 159t-170 34h-342v-461h135q141 0 169 30t28 130v12h76v-436h-76q0 111 -30.5 143.5t-180.5 32.5h-121v-502h348q135 0 167 41t34 215h90v-356h-1016zM297 1397l224 348 h112l226 -348h-62l-219 213l-219 -213h-62z" />
<glyph unicode="&#xcb;" horiz-adv-x="1155" d="M53 0v72h62q77 0 106 31t29 120v811q0 90 -28.5 121t-106.5 31h-43v65h991v-313h-92v20q0 125 -29 159t-170 34h-342v-461h135q141 0 169 30t28 130v12h76v-436h-76q0 111 -30.5 143.5t-180.5 32.5h-121v-502h348q135 0 167 41t34 215h90v-356h-1016zM306 1554 q0 46 24 69t72 23t72 -23.5t24 -70.5q0 -46 -24.5 -69t-73.5 -23q-46 0 -70 24.5t-24 69.5zM658 1554q0 46 24 69t72 23t72 -23.5t24 -70.5q0 -46 -24.5 -69t-73.5 -23q-45 0 -69.5 24.5t-24.5 69.5z" />
<glyph unicode="&#xcc;" horiz-adv-x="688" d="M78 0v72h41q78 0 107.5 32t29.5 119v811q0 88 -29.5 120t-107.5 32h-41v69l166.5 -3t101.5 -1q48 0 105.5 1t162.5 3v-69h-43q-78 0 -106.5 -32t-28.5 -120v-811q0 -88 28.5 -119.5t106.5 -31.5h43v-72q-46 2 -101 3t-167 1q-110 0 -165.5 -1t-102.5 -3zM80 1685 q0 32 18.5 51t48.5 19q22 0 43 -14t50 -47l251 -297h-63l-285 211h-1q-62 49 -62 77z" />
<glyph unicode="&#xcd;" horiz-adv-x="688" d="M78 0v72h41q78 0 107.5 32t29.5 119v811q0 88 -29.5 120t-107.5 32h-41v69l166.5 -3t101.5 -1q48 0 105.5 1t162.5 3v-69h-43q-78 0 -106.5 -32t-28.5 -120v-811q0 -88 28.5 -119.5t106.5 -31.5h43v-72q-46 2 -101 3t-167 1q-110 0 -165.5 -1t-102.5 -3zM197 1397 l251 297q29 33 50 47t43 14q29 0 48 -19t19 -47q0 -19 -11 -35t-52 -46l-285 -211h-63z" />
<glyph unicode="&#xce;" horiz-adv-x="688" d="M63 1397l224 348h112l226 -348h-62l-219 213l-219 -213h-62zM78 0v72h41q78 0 107.5 32t29.5 119v811q0 88 -29.5 120t-107.5 32h-41v69l166.5 -3t101.5 -1q48 0 105.5 1t162.5 3v-69h-43q-78 0 -106.5 -32t-28.5 -120v-811q0 -88 28.5 -119.5t106.5 -31.5h43v-72 q-46 2 -101 3t-167 1q-110 0 -165.5 -1t-102.5 -3z" />
<glyph unicode="&#xcf;" horiz-adv-x="688" d="M72 1554q0 46 24 69t72 23t72 -23.5t24 -70.5q0 -46 -24.5 -69t-73.5 -23q-46 0 -70 24.5t-24 69.5zM78 0v72h41q78 0 107.5 32t29.5 119v811q0 88 -29.5 120t-107.5 32h-41v69l166.5 -3t101.5 -1q48 0 105.5 1t162.5 3v-69h-43q-78 0 -106.5 -32t-28.5 -120v-811 q0 -88 28.5 -119.5t106.5 -31.5h43v-72q-46 2 -101 3t-167 1q-110 0 -165.5 -1t-102.5 -3zM424 1554q0 46 24 69t72 23t72 -23.5t24 -70.5q0 -46 -24.5 -69t-73.5 -23q-45 0 -69.5 24.5t-24.5 69.5z" />
<glyph unicode="&#xd0;" horiz-adv-x="1489" d="M37 606v99h252v329q0 88 -28.5 120t-106.5 32h-43v69h573q349 0 521.5 -151.5t172.5 -458.5q0 -326 -170.5 -485.5t-521.5 -159.5h-575v72h43q78 0 106.5 31.5t28.5 119.5v383h-252zM469 96h178q272 0 402.5 132.5t130.5 408.5q0 272 -128 400t-397 128h-186v-460h340 v-99h-340v-510z" />
<glyph unicode="&#xd1;" horiz-adv-x="1384" d="M51 0v72h41q79 0 108 32t29 119v824q0 77 -28 106t-103 29h-37l1 73q42 -1 87.5 -1.5t126.5 -0.5q79 0 114 0.5t63 1.5l579 -1112l-2 891q0 90 -28.5 121t-106.5 31h-41v69h6q162 -4 240 -4q43 0 94.5 1t140.5 3v-73h-41q-69 0 -98 -28t-29 -97v-1057h-219l-583 1120 v-897q0 -89 28 -120t107 -31h43v-72q-46 2 -98 3t-154 1q-101 0 -150 -1t-90 -3zM405 1444q19 102 65 153.5t120 51.5q17 0 38 -3.5t44 -9.5l113 -33q15 -5 28 -7.5t22 -2.5q36 0 58 21t35 67h51q-18 -100 -66 -151t-123 -51q-15 0 -32 2.5t-36 7.5l-112 33q-18 5 -34.5 8.5 t-24.5 3.5q-38 0 -60 -21t-37 -69h-49z" />
<glyph unicode="&#xd2;" horiz-adv-x="1436" d="M111 629q0 312 159 483.5t449 171.5q289 0 448.5 -171.5t159.5 -483.5q0 -313 -159.5 -485.5t-448.5 -172.5q-290 0 -449 172.5t-159 485.5zM309 631q0 -273 104.5 -416t303.5 -143q200 0 304.5 143t104.5 416t-104.5 416t-304.5 143q-199 0 -303.5 -143.5t-104.5 -415.5 zM455 1685q0 32 18.5 51t48.5 19q22 0 43 -14t50 -47l251 -297h-63l-285 211h-1q-62 49 -62 77z" />
<glyph unicode="&#xd3;" horiz-adv-x="1436" d="M111 629q0 312 159 483.5t449 171.5q289 0 448.5 -171.5t159.5 -483.5q0 -313 -159.5 -485.5t-448.5 -172.5q-290 0 -449 172.5t-159 485.5zM309 631q0 -273 104.5 -416t303.5 -143q200 0 304.5 143t104.5 416t-104.5 416t-304.5 143q-199 0 -303.5 -143.5t-104.5 -415.5 zM572 1397l251 297q29 33 50 47t43 14q29 0 48 -19t19 -47q0 -19 -11 -35t-52 -46l-285 -211h-63z" />
<glyph unicode="&#xd4;" horiz-adv-x="1436" d="M111 629q0 312 159 483.5t449 171.5q289 0 448.5 -171.5t159.5 -483.5q0 -313 -159.5 -485.5t-448.5 -172.5q-290 0 -449 172.5t-159 485.5zM309 631q0 -273 104.5 -416t303.5 -143q200 0 304.5 143t104.5 416t-104.5 416t-304.5 143q-199 0 -303.5 -143.5t-104.5 -415.5 zM438 1397l224 348h112l226 -348h-62l-219 213l-219 -213h-62z" />
<glyph unicode="&#xd5;" horiz-adv-x="1436" d="M111 629q0 312 159 483.5t449 171.5q289 0 448.5 -171.5t159.5 -483.5q0 -313 -159.5 -485.5t-448.5 -172.5q-290 0 -449 172.5t-159 485.5zM309 631q0 -273 104.5 -416t303.5 -143q200 0 304.5 143t104.5 416t-104.5 416t-304.5 143q-199 0 -303.5 -143.5t-104.5 -415.5 zM432 1444q19 102 65 153.5t120 51.5q17 0 38 -3.5t44 -9.5l113 -33q15 -5 28 -7.5t22 -2.5q36 0 58 21t35 67h51q-18 -100 -66 -151t-123 -51q-15 0 -32 2.5t-36 7.5l-112 33q-18 5 -34.5 8.5t-24.5 3.5q-38 0 -60 -21t-37 -69h-49z" />
<glyph unicode="&#xd6;" horiz-adv-x="1436" d="M111 629q0 312 159 483.5t449 171.5q289 0 448.5 -171.5t159.5 -483.5q0 -313 -159.5 -485.5t-448.5 -172.5q-290 0 -449 172.5t-159 485.5zM309 631q0 -273 104.5 -416t303.5 -143q200 0 304.5 143t104.5 416t-104.5 416t-304.5 143q-199 0 -303.5 -143.5t-104.5 -415.5 zM447 1554q0 46 24 69t72 23t72 -23.5t24 -70.5q0 -46 -24.5 -69t-73.5 -23q-46 0 -70 24.5t-24 69.5zM799 1554q0 46 24 69t72 23t72 -23.5t24 -70.5q0 -46 -24.5 -69t-73.5 -23q-45 0 -69.5 24.5t-24.5 69.5z" />
<glyph unicode="&#xd7;" horiz-adv-x="1706" d="M301 135l475 475l-475 477l80 82l477 -477l475 477l82 -82l-475 -477l475 -475l-82 -82l-475 475l-477 -475z" />
<glyph unicode="&#xd8;" horiz-adv-x="1436" d="M109 -135l182 254q-91 89 -135.5 215.5t-44.5 294.5q0 312 159 483.5t449 171.5q108 0 194.5 -23.5t157.5 -72.5l119 168h121l-164 -223q91 -85 135.5 -210t44.5 -294q0 -313 -159.5 -485.5t-448.5 -172.5q-108 0 -196 23t-154 67l-140 -196h-120zM301 631 q0 -116 21.5 -210t66.5 -171l606 837q-49 53 -119.5 80t-158.5 27q-202 0 -309 -144.5t-107 -418.5zM449 170q49 -50 119.5 -76t152.5 -26q199 0 306.5 145.5t107.5 417.5q0 118 -20 210.5t-60 162.5z" />
<glyph unicode="&#xd9;" horiz-adv-x="1352" d="M33 1186v69q108 -2 163 -3t101 -1t100 1t160 3v-69h-41q-80 0 -108.5 -30.5t-28.5 -121.5v-563q0 -213 74.5 -301t251.5 -88q91 0 160 29.5t108 85.5q26 38 37.5 91t11.5 173v559q0 105 -30.5 135.5t-123.5 30.5h-43v69q101 -2 152.5 -3t95.5 -1t97 1t151 3v-69h-45 q-68 0 -93.5 -29.5t-25.5 -122.5v-567q0 -267 -109 -381.5t-362 -114.5q-250 0 -367.5 119.5t-117.5 372.5v571q0 90 -27 121t-98 31h-43zM430 1685q0 32 18.5 51t48.5 19q22 0 43 -14t50 -47l251 -297h-63l-285 211h-1q-62 49 -62 77z" />
<glyph unicode="&#xda;" horiz-adv-x="1352" d="M33 1186v69q108 -2 163 -3t101 -1t100 1t160 3v-69h-41q-80 0 -108.5 -30.5t-28.5 -121.5v-563q0 -213 74.5 -301t251.5 -88q91 0 160 29.5t108 85.5q26 38 37.5 91t11.5 173v559q0 105 -30.5 135.5t-123.5 30.5h-43v69q101 -2 152.5 -3t95.5 -1t97 1t151 3v-69h-45 q-68 0 -93.5 -29.5t-25.5 -122.5v-567q0 -267 -109 -381.5t-362 -114.5q-250 0 -367.5 119.5t-117.5 372.5v571q0 90 -27 121t-98 31h-43zM547 1397l251 297q29 33 50 47t43 14q29 0 48 -19t19 -47q0 -19 -11 -35t-52 -46l-285 -211h-63z" />
<glyph unicode="&#xdb;" horiz-adv-x="1352" d="M33 1186v69q108 -2 163 -3t101 -1t100 1t160 3v-69h-41q-80 0 -108.5 -30.5t-28.5 -121.5v-563q0 -213 74.5 -301t251.5 -88q91 0 160 29.5t108 85.5q26 38 37.5 91t11.5 173v559q0 105 -30.5 135.5t-123.5 30.5h-43v69q101 -2 152.5 -3t95.5 -1t97 1t151 3v-69h-45 q-68 0 -93.5 -29.5t-25.5 -122.5v-567q0 -267 -109 -381.5t-362 -114.5q-250 0 -367.5 119.5t-117.5 372.5v571q0 90 -27 121t-98 31h-43zM413 1397l224 348h112l226 -348h-62l-219 213l-219 -213h-62z" />
<glyph unicode="&#xdc;" horiz-adv-x="1352" d="M33 1186v69q108 -2 163 -3t101 -1t100 1t160 3v-69h-41q-80 0 -108.5 -30.5t-28.5 -121.5v-563q0 -213 74.5 -301t251.5 -88q91 0 160 29.5t108 85.5q26 38 37.5 91t11.5 173v559q0 105 -30.5 135.5t-123.5 30.5h-43v69q101 -2 152.5 -3t95.5 -1t97 1t151 3v-69h-45 q-68 0 -93.5 -29.5t-25.5 -122.5v-567q0 -267 -109 -381.5t-362 -114.5q-250 0 -367.5 119.5t-117.5 372.5v571q0 90 -27 121t-98 31h-43zM422 1554q0 46 24 69t72 23t72 -23.5t24 -70.5q0 -46 -24.5 -69t-73.5 -23q-46 0 -70 24.5t-24 69.5zM774 1554q0 46 24 69t72 23 t72 -23.5t24 -70.5q0 -46 -24.5 -69t-73.5 -23q-45 0 -69.5 24.5t-24.5 69.5z" />
<glyph unicode="&#xdd;" horiz-adv-x="1251" d="M14 1255q78 -2 130.5 -3t99.5 -1q80 0 259 4h13v-69h-18q-76 0 -108 -15t-32 -51q0 -13 5.5 -28t19.5 -39l254 -430l248 411q16 26 24.5 49t8.5 39q0 33 -34 48.5t-106 15.5h-14v69h29q162 -4 233 -4q45 0 94.5 1t116.5 3v-69q-54 -3 -96.5 -35t-96.5 -115l-335 -526 v-293q0 -85 28.5 -115t110.5 -30h43v-72q-49 2 -105 3t-168 1q-110 0 -164.5 -1t-101.5 -3v72h43q83 0 111.5 29.5t28.5 115.5v297l-334 537q-49 78 -89 105.5t-97 29.5zM480 1397l251 297q29 33 50 47t43 14q29 0 48 -19t19 -47q0 -19 -11 -35t-52 -46l-285 -211h-63z" />
<glyph unicode="&#xde;" horiz-adv-x="1133" d="M74 0v72h43q78 0 107.5 32t29.5 119v811q0 88 -29.5 120t-107.5 32h-43v69q111 -2 167 -3t103 -1q48 0 105.5 1t162.5 3v-69h-43q-75 0 -105 -31t-30 -111v-38h172q222 0 338.5 -87.5t116.5 -252.5q0 -180 -109.5 -262t-349.5 -82h-168v-99q0 -88 28.5 -119.5 t106.5 -31.5h43v-72q-46 2 -101.5 3t-166.5 1t-167 -1t-103 -3zM434 406h135q162 0 240 63t78 195q0 126 -77 188.5t-232 62.5h-144v-509z" />
<glyph unicode="&#xdf;" horiz-adv-x="1116" d="M51 61q84 2 111.5 29t27.5 117v713q0 185 91 274.5t278 89.5q180 0 271.5 -77.5t91.5 -229.5q0 -101 -49.5 -165t-151.5 -95q158 -10 237.5 -99t79.5 -256q0 -191 -89.5 -291t-260.5 -100q-12 0 -28 1t-45 3l-1 74h23q112 0 169.5 76.5t57.5 226.5q0 166 -75 241t-242 75 h-8v81q118 4 169.5 59t51.5 179q0 100 -53.5 156.5t-147.5 56.5q-113 0 -159 -61t-46 -219v-719q0 -88 28 -114t120 -26v-61q-39 2 -85 3t-138 1q-94 0 -141 -1t-86 -3z" />
<glyph unicode="&#xe0;" horiz-adv-x="1008" d="M74 242q0 145 112.5 214.5t348.5 69.5h155v97q0 96 -62.5 145t-185.5 49q-101 0 -151.5 -46.5t-50.5 -139.5h-68v225q77 19 151.5 29t143.5 10q214 0 301.5 -83.5t87.5 -289.5v-334q0 -85 23.5 -108t91.5 -23h10v-57h-74q-64 0 -114.5 -2t-92.5 -6v145 q-36 -83 -113 -124.5t-194 -41.5q-150 0 -234.5 72t-84.5 199zM230 1296q0 32 18.5 51t48.5 19q22 0 43 -14t50 -47l251 -297h-63l-285 211h-1q-62 49 -62 77zM238 250q0 -86 54 -136.5t146 -50.5q125 0 188.5 77t63.5 227v82h-149q-152 0 -227.5 -49.5t-75.5 -149.5z" />
<glyph unicode="&#xe1;" horiz-adv-x="1008" d="M74 242q0 145 112.5 214.5t348.5 69.5h155v97q0 96 -62.5 145t-185.5 49q-101 0 -151.5 -46.5t-50.5 -139.5h-68v225q77 19 151.5 29t143.5 10q214 0 301.5 -83.5t87.5 -289.5v-334q0 -85 23.5 -108t91.5 -23h10v-57h-74q-64 0 -114.5 -2t-92.5 -6v145 q-36 -83 -113 -124.5t-194 -41.5q-150 0 -234.5 72t-84.5 199zM238 250q0 -86 54 -136.5t146 -50.5q125 0 188.5 77t63.5 227v82h-149q-152 0 -227.5 -49.5t-75.5 -149.5zM347 1008l251 297q29 33 50 47t43 14q29 0 48 -19t19 -47q0 -19 -11 -35t-52 -46l-285 -211h-63z" />
<glyph unicode="&#xe2;" horiz-adv-x="1008" d="M74 242q0 145 112.5 214.5t348.5 69.5h155v97q0 96 -62.5 145t-185.5 49q-101 0 -151.5 -46.5t-50.5 -139.5h-68v225q77 19 151.5 29t143.5 10q214 0 301.5 -83.5t87.5 -289.5v-334q0 -85 23.5 -108t91.5 -23h10v-57h-74q-64 0 -114.5 -2t-92.5 -6v145 q-36 -83 -113 -124.5t-194 -41.5q-150 0 -234.5 72t-84.5 199zM213 1008l224 348h112l226 -348h-62l-219 213l-219 -213h-62zM238 250q0 -86 54 -136.5t146 -50.5q125 0 188.5 77t63.5 227v82h-149q-152 0 -227.5 -49.5t-75.5 -149.5z" />
<glyph unicode="&#xe3;" horiz-adv-x="1008" d="M74 242q0 145 112.5 214.5t348.5 69.5h155v97q0 96 -62.5 145t-185.5 49q-101 0 -151.5 -46.5t-50.5 -139.5h-68v225q77 19 151.5 29t143.5 10q214 0 301.5 -83.5t87.5 -289.5v-334q0 -85 23.5 -108t91.5 -23h10v-57h-74q-64 0 -114.5 -2t-92.5 -6v145 q-36 -83 -113 -124.5t-194 -41.5q-150 0 -234.5 72t-84.5 199zM207 1055q19 102 65 153.5t120 51.5q17 0 38 -3.5t44 -9.5l113 -33q15 -5 28 -7.5t22 -2.5q36 0 58 21t35 67h51q-18 -100 -66 -151t-123 -51q-15 0 -32 2.5t-36 7.5l-112 33q-18 5 -34.5 8.5t-24.5 3.5 q-38 0 -60 -21t-37 -69h-49zM238 250q0 -86 54 -136.5t146 -50.5q125 0 188.5 77t63.5 227v82h-149q-152 0 -227.5 -49.5t-75.5 -149.5z" />
<glyph unicode="&#xe4;" horiz-adv-x="1008" d="M74 242q0 145 112.5 214.5t348.5 69.5h155v97q0 96 -62.5 145t-185.5 49q-101 0 -151.5 -46.5t-50.5 -139.5h-68v225q77 19 151.5 29t143.5 10q214 0 301.5 -83.5t87.5 -289.5v-334q0 -85 23.5 -108t91.5 -23h10v-57h-74q-64 0 -114.5 -2t-92.5 -6v145 q-36 -83 -113 -124.5t-194 -41.5q-150 0 -234.5 72t-84.5 199zM222 1165q0 46 24 69t72 23t72 -23.5t24 -70.5q0 -46 -24.5 -69t-73.5 -23q-46 0 -70 24.5t-24 69.5zM238 250q0 -86 54 -136.5t146 -50.5q125 0 188.5 77t63.5 227v82h-149q-152 0 -227.5 -49.5t-75.5 -149.5z M574 1165q0 46 24 69t72 23t72 -23.5t24 -70.5q0 -46 -24.5 -69t-73.5 -23q-45 0 -69.5 24.5t-24.5 69.5z" />
<glyph unicode="&#xe5;" horiz-adv-x="1008" d="M74 242q0 145 112.5 214.5t348.5 69.5h155v97q0 96 -62.5 145t-185.5 49q-101 0 -151.5 -46.5t-50.5 -139.5h-68v225q77 19 151.5 29t143.5 10q214 0 301.5 -83.5t87.5 -289.5v-334q0 -85 23.5 -108t91.5 -23h10v-57h-74q-64 0 -114.5 -2t-92.5 -6v145 q-36 -83 -113 -124.5t-194 -41.5q-150 0 -234.5 72t-84.5 199zM238 250q0 -86 54 -136.5t146 -50.5q125 0 188.5 77t63.5 227v82h-149q-152 0 -227.5 -49.5t-75.5 -149.5zM256 1221q0 101 69 169t171 68t170.5 -69t68.5 -172q0 -98 -70 -168t-169 -70q-100 0 -170 70 t-70 172zM348 1221q0 -62 42.5 -105t103.5 -43q62 0 104.5 41.5t42.5 102.5q0 63 -42 106t-103 43q-62 0 -105 -42t-43 -103z" />
<glyph unicode="&#xe6;" horiz-adv-x="1608" d="M59 240q0 150 112 221t347 71h158v56q0 115 -57.5 172t-174.5 57q-112 0 -166.5 -45.5t-54.5 -140.5h-65v225q78 19 150 29t134 10q129 0 203.5 -31.5t124.5 -103.5q58 67 144.5 101t201.5 34q200 0 305 -116.5t105 -338.5v-43h-682q5 -175 76 -256.5t219 -81.5 q110 0 175.5 47t84.5 138h106q-21 -133 -120 -203t-265 -70q-137 0 -233 46.5t-160 144.5q-60 -97 -146 -144t-204 -47q-150 0 -234 71t-84 198zM223 256q0 -90 53.5 -141.5t149.5 -51.5q122 0 186 78t64 226v88h-152q-150 0 -225.5 -50t-75.5 -149zM840 483l532 1 q-2 159 -69 242t-193 83q-120 0 -190 -84t-80 -242z" />
<glyph unicode="&#xe7;" horiz-adv-x="922" d="M78 434q0 218 116 339.5t324 121.5q67 0 143 -10.5t164 -32.5v-260h-73q-4 121 -52 168t-168 47q-137 0 -205.5 -91.5t-68.5 -273.5q0 -180 70 -279.5t196 -99.5q90 0 148.5 53t68.5 144h103q-13 -139 -103.5 -214t-246.5 -75q-194 0 -305 123.5t-111 339.5zM231 -373 l33 72q68 -34 125 -52t96 -18q64 0 93.5 23.5t29.5 73.5q0 42 -28.5 65t-81.5 23q-14 0 -28.5 -1.5t-33.5 -4.5v192h60v-119q14 3 29.5 4.5t29.5 1.5q83 0 130.5 -44.5t47.5 -121.5q0 -76 -58.5 -121.5t-156.5 -45.5q-56 0 -126 17.5t-161 55.5z" />
<glyph unicode="&#xe8;" horiz-adv-x="1020" d="M80 432q0 215 116 339t316 124q211 0 317.5 -113.5t106.5 -339.5v-45h-682q3 -169 77.5 -253.5t221.5 -84.5q106 0 172 47t86 138h107q-24 -135 -124.5 -204t-275.5 -69q-210 0 -324 120t-114 341zM246 1296q0 32 18.5 51t48.5 19q22 0 43 -14t50 -47l251 -297h-63 l-285 211h-1q-62 49 -62 77zM252 485h528q0 160 -66.5 243t-195.5 83q-118 0 -186.5 -84t-79.5 -242z" />
<glyph unicode="&#xe9;" horiz-adv-x="1020" d="M80 432q0 215 116 339t316 124q211 0 317.5 -113.5t106.5 -339.5v-45h-682q3 -169 77.5 -253.5t221.5 -84.5q106 0 172 47t86 138h107q-24 -135 -124.5 -204t-275.5 -69q-210 0 -324 120t-114 341zM252 485h528q0 160 -66.5 243t-195.5 83q-118 0 -186.5 -84t-79.5 -242z M363 1008l251 297q29 33 50 47t43 14q29 0 48 -19t19 -47q0 -19 -11 -35t-52 -46l-285 -211h-63z" />
<glyph unicode="&#xea;" horiz-adv-x="1020" d="M80 432q0 215 116 339t316 124q211 0 317.5 -113.5t106.5 -339.5v-45h-682q3 -169 77.5 -253.5t221.5 -84.5q106 0 172 47t86 138h107q-24 -135 -124.5 -204t-275.5 -69q-210 0 -324 120t-114 341zM229 1008l224 348h112l226 -348h-62l-219 213l-219 -213h-62zM252 485 h528q0 160 -66.5 243t-195.5 83q-118 0 -186.5 -84t-79.5 -242z" />
<glyph unicode="&#xeb;" horiz-adv-x="1020" d="M80 432q0 215 116 339t316 124q211 0 317.5 -113.5t106.5 -339.5v-45h-682q3 -169 77.5 -253.5t221.5 -84.5q106 0 172 47t86 138h107q-24 -135 -124.5 -204t-275.5 -69q-210 0 -324 120t-114 341zM238 1165q0 46 24 69t72 23t72 -23.5t24 -70.5q0 -46 -24.5 -69 t-73.5 -23q-46 0 -70 24.5t-24 69.5zM252 485h528q0 160 -66.5 243t-195.5 83q-118 0 -186.5 -84t-79.5 -242zM590 1165q0 46 24 69t72 23t72 -23.5t24 -70.5q0 -46 -24.5 -69t-73.5 -23q-45 0 -69.5 24.5t-24.5 69.5z" />
<glyph unicode="&#xec;" horiz-adv-x="561" d="M17 1296q0 32 18.5 51t48.5 19q22 0 43 -14t50 -47l251 -297h-63l-285 211h-1q-62 49 -62 77zM59 61q84 2 112 29t28 117v485q0 81 -23 99t-106 20v57h67q64 0 119 2t106 7v-676q0 -89 28.5 -114.5t119.5 -25.5v-61q-39 2 -85.5 3t-139.5 1q-92 0 -139 -1t-86 -3z" />
<glyph unicode="&#xed;" horiz-adv-x="561" d="M59 61q84 2 112 29t28 117v485q0 81 -23 99t-106 20v57h67q64 0 119 2t106 7v-676q0 -89 28.5 -114.5t119.5 -25.5v-61q-39 2 -85.5 3t-139.5 1q-92 0 -139 -1t-86 -3zM134 1008l251 297q29 33 50 47t43 14q29 0 48 -19t19 -47q0 -19 -11 -35t-52 -46l-285 -211h-63z" />
<glyph unicode="&#xee;" horiz-adv-x="561" d="M0 1008l224 348h112l226 -348h-62l-219 213l-219 -213h-62zM59 61q84 2 112 29t28 117v485q0 81 -23 99t-106 20v57h67q64 0 119 2t106 7v-676q0 -89 28.5 -114.5t119.5 -25.5v-61q-39 2 -85.5 3t-139.5 1q-92 0 -139 -1t-86 -3z" />
<glyph unicode="&#xef;" horiz-adv-x="561" d="M9 1165q0 46 24 69t72 23t72 -23.5t24 -70.5q0 -46 -24.5 -69t-73.5 -23q-46 0 -70 24.5t-24 69.5zM59 61q84 2 112 29t28 117v485q0 81 -23 99t-106 20v57h67q64 0 119 2t106 7v-676q0 -89 28.5 -114.5t119.5 -25.5v-61q-39 2 -85.5 3t-139.5 1q-92 0 -139 -1t-86 -3z M361 1165q0 46 24 69t72 23t72 -23.5t24 -70.5q0 -46 -24.5 -69t-73.5 -23q-45 0 -69.5 24.5t-24.5 69.5z" />
<glyph unicode="&#xf0;" horiz-adv-x="1034" d="M80 434q0 210 112 335.5t297 125.5q31 0 64.5 -4t71.5 -12l-123 182l-264 -123l-31 68l254 116l-109 162h156l76 -108l229 104l29 -66l-217 -98l182 -266q86 -127 116.5 -220t30.5 -202q0 -214 -115 -335.5t-317 -121.5q-212 0 -327 120.5t-115 342.5zM252 436 q0 -181 68 -279t194 -98q129 0 197.5 97.5t68.5 279.5q0 179 -69 277t-195 98q-130 0 -197 -95t-67 -280z" />
<glyph unicode="&#xf1;" horiz-adv-x="1151" d="M53 61q83 2 110 28.5t27 117.5v485q0 81 -22 99t-104 20l-1 57h70q63 0 115 2t96 7v-136q49 74 130 114t181 40q177 0 253.5 -90t76.5 -301v-314q0 -89 25 -108t108 -21v-61q-37 2 -82 3t-137 1t-139 -1t-88 -3v61q91 2 119 27t28 115v321q0 142 -52 207.5t-165 65.5 q-124 0 -186 -76t-62 -227v-293q0 -88 28.5 -114t121.5 -26v-61q-39 2 -85 3t-138 1q-94 0 -141 -1t-86 -3zM282 1055q19 102 65 153.5t120 51.5q17 0 38 -3.5t44 -9.5l113 -33q15 -5 28 -7.5t22 -2.5q36 0 58 21t35 67h51q-18 -100 -66 -151t-123 -51q-15 0 -32 2.5 t-36 7.5l-112 33q-18 5 -34.5 8.5t-24.5 3.5q-38 0 -60 -21t-37 -69h-49z" />
<glyph unicode="&#xf2;" horiz-adv-x="1034" d="M80 434q0 220 114.5 340.5t321.5 120.5q209 0 323.5 -120.5t114.5 -340.5t-115 -341.5t-323 -121.5q-207 0 -321.5 122t-114.5 341zM252 436q0 -183 68 -280t196 -97t196 97.5t68 279.5q0 183 -67.5 279t-196.5 96q-130 0 -197 -95t-67 -280zM254 1296q0 32 18.5 51 t48.5 19q22 0 43 -14t50 -47l251 -297h-63l-285 211h-1q-62 49 -62 77z" />
<glyph unicode="&#xf3;" horiz-adv-x="1034" d="M80 434q0 220 114.5 340.5t321.5 120.5q209 0 323.5 -120.5t114.5 -340.5t-115 -341.5t-323 -121.5q-207 0 -321.5 122t-114.5 341zM252 436q0 -183 68 -280t196 -97t196 97.5t68 279.5q0 183 -67.5 279t-196.5 96q-130 0 -197 -95t-67 -280zM371 1008l251 297 q29 33 50 47t43 14q29 0 48 -19t19 -47q0 -19 -11 -35t-52 -46l-285 -211h-63z" />
<glyph unicode="&#xf4;" horiz-adv-x="1034" d="M80 434q0 220 114.5 340.5t321.5 120.5q209 0 323.5 -120.5t114.5 -340.5t-115 -341.5t-323 -121.5q-207 0 -321.5 122t-114.5 341zM237 1008l224 348h112l226 -348h-62l-219 213l-219 -213h-62zM252 436q0 -183 68 -280t196 -97t196 97.5t68 279.5q0 183 -67.5 279 t-196.5 96q-130 0 -197 -95t-67 -280z" />
<glyph unicode="&#xf5;" horiz-adv-x="1034" d="M80 434q0 220 114.5 340.5t321.5 120.5q209 0 323.5 -120.5t114.5 -340.5t-115 -341.5t-323 -121.5q-207 0 -321.5 122t-114.5 341zM231 1055q19 102 65 153.5t120 51.5q17 0 38 -3.5t44 -9.5l113 -33q15 -5 28 -7.5t22 -2.5q36 0 58 21t35 67h51q-18 -100 -66 -151 t-123 -51q-15 0 -32 2.5t-36 7.5l-112 33q-18 5 -34.5 8.5t-24.5 3.5q-38 0 -60 -21t-37 -69h-49zM252 436q0 -183 68 -280t196 -97t196 97.5t68 279.5q0 183 -67.5 279t-196.5 96q-130 0 -197 -95t-67 -280z" />
<glyph unicode="&#xf6;" horiz-adv-x="1034" d="M80 434q0 220 114.5 340.5t321.5 120.5q209 0 323.5 -120.5t114.5 -340.5t-115 -341.5t-323 -121.5q-207 0 -321.5 122t-114.5 341zM246 1165q0 46 24 69t72 23t72 -23.5t24 -70.5q0 -46 -24.5 -69t-73.5 -23q-46 0 -70 24.5t-24 69.5zM252 436q0 -183 68 -280t196 -97 t196 97.5t68 279.5q0 183 -67.5 279t-196.5 96q-130 0 -197 -95t-67 -280zM598 1165q0 46 24 69t72 23t72 -23.5t24 -70.5q0 -46 -24.5 -69t-73.5 -23q-45 0 -69.5 24.5t-24.5 69.5z" />
<glyph unicode="&#xf7;" horiz-adv-x="1706" d="M254 553v117h1198v-117h-1198zM739 250q0 48 34 81.5t81 33.5t81 -34t34 -81t-33.5 -81t-81.5 -34t-81.5 33.5t-33.5 81.5zM739 971q0 47 34 80.5t81 33.5q48 0 81.5 -33.5t33.5 -80.5q0 -48 -33.5 -81.5t-81.5 -33.5q-49 0 -82 33.5t-33 81.5z" />
<glyph unicode="&#xf8;" horiz-adv-x="1034" d="M43 -147l164 227q-65 65 -96 151.5t-31 202.5q0 218 113.5 339.5t316.5 121.5q76 0 134.5 -14t111.5 -43l118 159h101l-152 -209q65 -54 98 -144.5t33 -209.5q0 -218 -114.5 -340.5t-317.5 -122.5q-71 0 -134 15t-116 45l-127 -178h-102zM248 449q0 -74 11 -136.5 t34 -113.5l397 551q-33 33 -77 50t-95 17q-130 0 -200 -96t-70 -272zM340 121q36 -33 81.5 -50.5t96.5 -17.5q127 0 197.5 96.5t70.5 270.5q0 84 -11.5 148t-35.5 108z" />
<glyph unicode="&#xf9;" horiz-adv-x="1151" d="M51 809v55h96q36 0 78.5 2.5t114.5 9.5v-534q0 -141 53 -207.5t164 -66.5q124 0 186 75.5t62 227.5v315q0 79 -23.5 101t-93.5 22h-12v55h92q34 0 75.5 2.5t125.5 10.5v-701q0 -81 22.5 -99t104.5 -20v-57h-74q-65 0 -114.5 -2t-90.5 -6v133q-51 -74 -132 -114t-181 -40 q-177 0 -252.5 88.5t-75.5 300.5v318q0 88 -22 109.5t-91 21.5h-12zM305 1296q0 32 18.5 51t48.5 19q22 0 43 -14t50 -47l251 -297h-63l-285 211h-1q-62 49 -62 77z" />
<glyph unicode="&#xfa;" horiz-adv-x="1151" d="M51 809v55h96q36 0 78.5 2.5t114.5 9.5v-534q0 -141 53 -207.5t164 -66.5q124 0 186 75.5t62 227.5v315q0 79 -23.5 101t-93.5 22h-12v55h92q34 0 75.5 2.5t125.5 10.5v-701q0 -81 22.5 -99t104.5 -20v-57h-74q-65 0 -114.5 -2t-90.5 -6v133q-51 -74 -132 -114t-181 -40 q-177 0 -252.5 88.5t-75.5 300.5v318q0 88 -22 109.5t-91 21.5h-12zM422 1008l251 297q29 33 50 47t43 14q29 0 48 -19t19 -47q0 -19 -11 -35t-52 -46l-285 -211h-63z" />
<glyph unicode="&#xfb;" horiz-adv-x="1151" d="M51 809v55h96q36 0 78.5 2.5t114.5 9.5v-534q0 -141 53 -207.5t164 -66.5q124 0 186 75.5t62 227.5v315q0 79 -23.5 101t-93.5 22h-12v55h92q34 0 75.5 2.5t125.5 10.5v-701q0 -81 22.5 -99t104.5 -20v-57h-74q-65 0 -114.5 -2t-90.5 -6v133q-51 -74 -132 -114t-181 -40 q-177 0 -252.5 88.5t-75.5 300.5v318q0 88 -22 109.5t-91 21.5h-12zM288 1008l224 348h112l226 -348h-62l-219 213l-219 -213h-62z" />
<glyph unicode="&#xfc;" horiz-adv-x="1151" d="M51 809v55h96q36 0 78.5 2.5t114.5 9.5v-534q0 -141 53 -207.5t164 -66.5q124 0 186 75.5t62 227.5v315q0 79 -23.5 101t-93.5 22h-12v55h92q34 0 75.5 2.5t125.5 10.5v-701q0 -81 22.5 -99t104.5 -20v-57h-74q-65 0 -114.5 -2t-90.5 -6v133q-51 -74 -132 -114t-181 -40 q-177 0 -252.5 88.5t-75.5 300.5v318q0 88 -22 109.5t-91 21.5h-12zM297 1165q0 46 24 69t72 23t72 -23.5t24 -70.5q0 -46 -24.5 -69t-73.5 -23q-46 0 -70 24.5t-24 69.5zM649 1165q0 46 24 69t72 23t72 -23.5t24 -70.5q0 -46 -24.5 -69t-73.5 -23q-45 0 -69.5 24.5 t-24.5 69.5z" />
<glyph unicode="&#xfd;" horiz-adv-x="995" d="M-37 868q88 -2 133.5 -3t83.5 -1q74 0 224 4h6v-61q-98 0 -131 -16t-33 -58q0 -10 2.5 -20.5t7.5 -22.5l252 -557l252 555q6 15 9 27t3 20q0 37 -34 52.5t-127 19.5l-1 61l132 -3t79 -1q37 0 81 1t122 3v-61q-44 -7 -77 -38t-64 -97l-396 -848q-12 -27 -18 -48.5 t-6 -39.5q0 -38 24 -52t121 -16v-61q-33 2 -73 3t-121 1q-85 0 -128.5 -1t-80.5 -3v61q45 2 79 28.5t58 80.5l88 190l-332 707q-38 83 -65 106.5t-69 26.5zM351 1008l251 297q29 33 50 47t43 14q29 0 48 -19t19 -47q0 -19 -11 -35t-52 -46l-285 -211h-63z" />
<glyph unicode="&#xfe;" horiz-adv-x="1092" d="M29 -332q83 2 110 29t27 117v1263q0 87 -22 105.5t-105 20.5v57h67q63 0 117.5 2t106.5 6v-525q42 73 118 112.5t177 39.5q182 0 283.5 -117.5t101.5 -326.5q0 -224 -102.5 -352t-278.5 -128q-97 0 -169.5 34.5t-129.5 107.5v-306q0 -87 28 -113t121 -26h17v-61 q-44 2 -93.5 3t-146.5 1q-95 0 -141.5 -1t-85.5 -3v61zM315 442q0 -179 69.5 -277.5t193.5 -98.5q125 0 192.5 95.5t67.5 274.5q0 175 -68.5 267t-198.5 92q-124 0 -190 -90.5t-66 -262.5z" />
<glyph unicode="&#xff;" horiz-adv-x="995" d="M-37 868q88 -2 133.5 -3t83.5 -1q74 0 224 4h6v-61q-98 0 -131 -16t-33 -58q0 -10 2.5 -20.5t7.5 -22.5l252 -557l252 555q6 15 9 27t3 20q0 37 -34 52.5t-127 19.5l-1 61l132 -3t79 -1q37 0 81 1t122 3v-61q-44 -7 -77 -38t-64 -97l-396 -848q-12 -27 -18 -48.5 t-6 -39.5q0 -38 24 -52t121 -16v-61q-33 2 -73 3t-121 1q-85 0 -128.5 -1t-80.5 -3v61q45 2 79 28.5t58 80.5l88 190l-332 707q-38 83 -65 106.5t-69 26.5zM226 1165q0 46 24 69t72 23t72 -23.5t24 -70.5q0 -46 -24.5 -69t-73.5 -23q-46 0 -70 24.5t-24 69.5zM578 1165 q0 46 24 69t72 23t72 -23.5t24 -70.5q0 -46 -24.5 -69t-73.5 -23q-45 0 -69.5 24.5t-24.5 69.5z" />
<glyph unicode="&#x152;" horiz-adv-x="1862" d="M104 641q0 317 169 465.5t528 148.5h968v-317h-92q0 145 -32.5 185t-165.5 40h-342v-473h120q152 0 181.5 29.5t29.5 130.5v12h76v-436h-76v12q0 102 -33.5 133t-177.5 31h-120v-500h346q134 0 167.5 45.5t35.5 208.5h90v-356h-957q-185 0 -304.5 29t-201.5 92 q-100 79 -154.5 213.5t-54.5 306.5zM303 639q0 -287 125.5 -414t409.5 -127h118v1065h-135q-269 0 -393.5 -125.5t-124.5 -398.5z" />
<glyph unicode="&#x153;" horiz-adv-x="1718" d="M80 434q0 220 113.5 340.5t320.5 120.5q121 0 210 -42.5t148 -127.5q61 85 148.5 127.5t202.5 42.5q202 0 307.5 -115t105.5 -334q0 -8 -1 -24t-1 -25h-682q7 -174 78 -256t217 -82q111 0 177 47t83 138h109q-23 -135 -121.5 -204t-267.5 -69q-127 0 -217 41.5 t-146 124.5q-54 -81 -142.5 -123.5t-203.5 -42.5q-207 0 -322.5 122t-115.5 341zM252 436q0 -181 68 -279t194 -98q129 0 197.5 96.5t68.5 276.5q0 184 -68 281.5t-196 97.5q-129 0 -196.5 -95.5t-67.5 -279.5zM950 485l531 1q-4 161 -70 243t-192 82q-120 0 -189 -83.5 t-80 -242.5z" />
<glyph unicode="&#x178;" horiz-adv-x="1251" d="M14 1255q78 -2 130.5 -3t99.5 -1q80 0 259 4h13v-69h-18q-76 0 -108 -15t-32 -51q0 -13 5.5 -28t19.5 -39l254 -430l248 411q16 26 24.5 49t8.5 39q0 33 -34 48.5t-106 15.5h-14v69h29q162 -4 233 -4q45 0 94.5 1t116.5 3v-69q-54 -3 -96.5 -35t-96.5 -115l-335 -526 v-293q0 -85 28.5 -115t110.5 -30h43v-72q-49 2 -105 3t-168 1q-110 0 -164.5 -1t-101.5 -3v72h43q83 0 111.5 29.5t28.5 115.5v297l-334 537q-49 78 -89 105.5t-97 29.5zM355 1554q0 46 24 69t72 23t72 -23.5t24 -70.5q0 -46 -24.5 -69t-73.5 -23q-46 0 -70 24.5t-24 69.5z M707 1554q0 46 24 69t72 23t72 -23.5t24 -70.5q0 -46 -24.5 -69t-73.5 -23q-45 0 -69.5 24.5t-24.5 69.5z" />
<glyph unicode="&#x2c6;" d="M231 1008l224 348h112l226 -348h-62l-219 213l-219 -213h-62z" />
<glyph unicode="&#x2dc;" d="M225 1055q19 102 65 153.5t120 51.5q17 0 38 -3.5t44 -9.5l113 -33q15 -5 28 -7.5t22 -2.5q36 0 58 21t35 67h51q-18 -100 -66 -151t-123 -51q-15 0 -32 2.5t-36 7.5l-112 33q-18 5 -34.5 8.5t-24.5 3.5q-38 0 -60 -21t-37 -69h-49z" />
<glyph unicode="&#x2000;" horiz-adv-x="909" />
<glyph unicode="&#x2001;" horiz-adv-x="1819" />
<glyph unicode="&#x2002;" horiz-adv-x="909" />
<glyph unicode="&#x2003;" horiz-adv-x="1819" />
<glyph unicode="&#x2004;" horiz-adv-x="606" />
<glyph unicode="&#x2005;" horiz-adv-x="454" />
<glyph unicode="&#x2006;" horiz-adv-x="303" />
<glyph unicode="&#x2007;" horiz-adv-x="303" />
<glyph unicode="&#x2008;" horiz-adv-x="227" />
<glyph unicode="&#x2009;" horiz-adv-x="363" />
<glyph unicode="&#x200a;" horiz-adv-x="101" />
<glyph unicode="&#x2010;" horiz-adv-x="780" d="M78 371v149h624v-149h-624z" />
<glyph unicode="&#x2011;" horiz-adv-x="780" d="M78 371v149h624v-149h-624z" />
<glyph unicode="&#x2012;" horiz-adv-x="780" d="M78 371v149h624v-149h-624z" />
<glyph unicode="&#x2013;" d="M0 391v109h1024v-109h-1024z" />
<glyph unicode="&#x2014;" horiz-adv-x="2048" d="M0 391v109h2048v-109h-2048z" />
<glyph unicode="&#x2018;" horiz-adv-x="569" d="M113 1255h204l109 -383h-111z" />
<glyph unicode="&#x2019;" horiz-adv-x="569" d="M137 872l109 383h205l-201 -383h-113z" />
<glyph unicode="&#x201a;" horiz-adv-x="569" d="M100 -211l109 383h205l-203 -383h-111z" />
<glyph unicode="&#x201c;" horiz-adv-x="938" d="M113 1255h204l109 -383h-111zM481 1255h205l109 -383h-111z" />
<glyph unicode="&#x201d;" horiz-adv-x="938" d="M139 872l109 383h203l-201 -383h-111zM506 872l108 383h205l-201 -383h-112z" />
<glyph unicode="&#x201e;" horiz-adv-x="938" d="M102 -211l109 383h205l-203 -383h-111zM471 -211l109 383h202l-200 -383h-111z" />
<glyph unicode="&#x2022;" horiz-adv-x="1208" d="M307 762q0 123 87 209t210 86q122 0 208.5 -86.5t86.5 -208.5t-87.5 -209.5t-209.5 -87.5q-123 0 -209 87t-86 210z" />
<glyph unicode="&#x2026;" horiz-adv-x="2048" d="M239 70q0 51 24.5 74.5t78.5 23.5t79 -23.5t25 -74.5t-25.5 -75t-78.5 -24q-54 0 -78.5 24t-24.5 75zM921 70q0 51 24.5 74.5t78.5 23.5t79 -23.5t25 -74.5t-25.5 -75t-78.5 -24q-54 0 -78.5 24t-24.5 75zM1605 70q0 51 24.5 74.5t78.5 23.5t79 -23.5t25 -74.5t-25.5 -75 t-78.5 -24q-54 0 -78.5 24t-24.5 75z" />
<glyph unicode="&#x202f;" horiz-adv-x="363" />
<glyph unicode="&#x2039;" horiz-adv-x="582" d="M90 436l248 312h164l-254 -312l254 -315h-164z" />
<glyph unicode="&#x203a;" horiz-adv-x="582" d="M90 121l242 313l-242 314h166l233 -314l-233 -313h-166z" />
<glyph unicode="&#x205f;" horiz-adv-x="454" />
<glyph unicode="&#x2122;" horiz-adv-x="1683" d="M244 1260l12 178h440l11 -178h-25q-8 79 -40.5 115t-96.5 36h-21v-426q0 -23 12 -37t33 -16l31 -2v-27h-248v27l31 2q21 1 33 15.5t12 37.5v426h-20q-64 0 -97 -36t-41 -115h-26zM788 903v27l34 2q21 2 32.5 16t11.5 37v371q0 23 -12.5 37t-34.5 16l-31 2v27h183 l141 -400l148 400h174v-25l-30 -2q-22 -2 -34 -15.5t-12 -37.5v-373q0 -24 12 -37.5t34 -15.5l30 -2v-27h-236v27l31 2q21 2 33 16t12 37v395l-178 -479h-15l-174 479v-395q0 -23 12.5 -37t34.5 -16l31 -2v-27h-197z" />
<glyph unicode="&#xe000;" horiz-adv-x="870" d="M0 0v870h870v-870h-870z" />
</font>
</defs>
</svg>
