<?xml version="1.0" standalone="no"?>
<!DOCTYPE svg PUBLIC "-//W3C//DTD SVG 1.1//EN" "http://www.w3.org/Graphics/SVG/1.1/DTD/svg11.dtd" >
<svg xmlns="http://www.w3.org/2000/svg">
<metadata></metadata>
<defs>
<font id="american_typewriter_itc_t_oMd" horiz-adv-x="1304" >
<font-face units-per-em="2048" ascent="1638" descent="-410" />
<missing-glyph horiz-adv-x="512" />
<glyph unicode="&#xfb01;" horiz-adv-x="1228" d="M35 59q0 32 22.5 54t53.5 22q12 0 36 -4q49 -12 56 -12q36 0 45 51q14 93 14 446v211q0 35 -6.5 43.5t-34.5 8.5h-94q-35 0 -54.5 17t-19.5 48q0 32 19.5 50t54.5 18h88q35 0 44 6t9 31q4 186 100 276t287 90q157 0 257 -61t100 -156q0 -47 -29 -75.5t-76 -28.5 q-44 0 -74 26t-30 66q0 31 16 55q-62 53 -170 53q-114 0 -173.5 -60.5t-59.5 -174.5q0 -35 15.5 -41t107.5 -6h215q114 0 164 6q36 4 43 4q29 0 42 -17.5t13 -56.5q0 -8 -4 -84l-2 -96l-2 -104v-228q0 -225 6 -270q8 -49 53 -49q24 0 45 6q27 6 45 6q28 0 47 -20t19 -48 q0 -32 -21.5 -50.5t-58.5 -18.5q-33 0 -121 10q-56 6 -119 6q-57 0 -98 -6q-75 -10 -100 -10q-28 0 -45 18t-17 47q0 34 17.5 53t46.5 19q13 0 41 -4q24 -8 47 -8q42 0 51 65q6 38 7 70t1 184v185q0 193 -21 225.5t-145 32.5h-203q-37 0 -49 -5t-16 -22q-4 -10 -4 -250v-108 q0 -54 2 -91q2 -72 2 -145q0 -89 8.5 -115t36.5 -26q14 0 45 8q28 4 37 4q28 0 46.5 -20.5t18.5 -49.5q0 -28 -21.5 -47.5t-53.5 -19.5q-18 0 -93 10q-40 6 -98 6q-72 0 -213 -14q-6 -2 -20 -2q-35 0 -56.5 18t-21.5 49z" />
<glyph unicode="&#xfb02;" horiz-adv-x="1228" d="M35 63q0 28 21 48t50 20q24 0 48 -8q27 -6 47 -6q28 0 37 12q17 26 21 193l3 307v211q0 22 -8 30.5t-29 8.5h-102q-32 0 -52 18t-20 49q0 29 20 47.5t54 18.5h98q31 0 38 10.5t9 56.5q6 130 43 195q38 69 116.5 106t184.5 37q136 0 250 -57q34 0 62 4q40 4 47 4 q47 0 47 -61q0 -8 -8 -88q-15 -139 -15 -322v-287v-178q2 -68 2 -143q0 -101 10.5 -136.5t41.5 -35.5q18 0 45 6q21 8 41 8q28 0 47.5 -19.5t19.5 -45.5q0 -32 -21.5 -53t-52.5 -21q-30 0 -116 14q-47 8 -115 8q-76 0 -147 -16q-27 -6 -52 -6q-26 0 -42.5 19t-16.5 48 q0 31 19.5 50.5t50.5 19.5q8 0 24 -4q40 -8 43 -8q18 0 32 17t19 44q5 41 10 185t5 264v309q0 179 -2.5 215.5t-14.5 58.5q-17 34 -84 60t-137 26q-91 0 -140.5 -56.5t-49.5 -160.5q0 -49 8 -58t51 -9h92q47 0 68.5 -15t21.5 -49q0 -69 -86 -69h-108q-29 0 -38 -11t-9 -49 v-201q0 -407 6 -452q6 -49 45 -49q4 0 53 10l29 2q29 0 48 -19t19 -47q0 -29 -21 -50t-50 -21q-22 0 -84 10q-44 6 -119 6q-70 0 -117 -6q-82 -10 -102 -10q-38 0 -63 20t-25 51z" />
<glyph horiz-adv-x="2048" />
<glyph horiz-adv-x="2048" />
<glyph unicode="&#xd;" horiz-adv-x="2048" />
<glyph unicode=" "  horiz-adv-x="512" />
<glyph unicode="&#x09;" horiz-adv-x="512" />
<glyph unicode="&#xa0;" horiz-adv-x="512" />
<glyph unicode="!" horiz-adv-x="858" d="M301 100q0 50 37 86.5t88 36.5q54 0 93.5 -38.5t39.5 -90.5q0 -53 -37.5 -91t-89.5 -38t-91.5 40.5t-39.5 94.5zM348 1305q0 106 86 106q47 0 66.5 -27.5t19.5 -93.5q0 -12 -8 -219q-6 -159 -6 -221l2 -223l-2 -162v-25q0 -76 -16 -102.5t-62 -26.5q-38 0 -55 24t-17 79 v432q-1 89 -2.5 184.5t-2.5 154.5t-1 77q-2 18 -2 43z" />
<glyph unicode="&#x22;" d="M430 1305q-3 57 15 82.5t59 25.5q77 0 71 -108l-22 -404q-3 -47 -49 -47q-48 0 -51 47zM727 1323q-3 42 17 66t57 24q38 0 55.5 -21.5t17.5 -68.5v-18l-22 -404q-3 -47 -51 -47q-49 0 -49 47l-23 404z" />
<glyph unicode="#" d="M-10 500q0 35 30.5 57.5t77.5 22.5h224l120 303h-272q-33 0 -47 8t-14 27q0 35 29.5 57t78.5 22h272l123 306q29 73 95 73q22 0 34.5 -9t12.5 -24q0 -5 -13 -40l-123 -306h283l123 306q30 73 94 73q47 0 47 -35q0 -8 -12 -38l-123 -306h227q33 0 45.5 -7t12.5 -25 q0 -35 -29.5 -58.5t-73.5 -23.5h-229l-121 -303h283q31 0 43 -7t12 -26q0 -35 -29 -58.5t-73 -23.5h-283l-125 -311q-29 -72 -92 -72q-22 0 -34.5 9t-12.5 24q0 14 10 39l125 311h-285l-125 -311q-26 -72 -92 -72q-22 0 -34.5 9t-12.5 24q0 9 13 39l124 311h-221 q-35 0 -49 8t-14 27zM451 580h282l121 303h-283z" />
<glyph unicode="$" d="M129 352q0 83 41 135t106 52q47 0 79 -29.5t32 -73.5q0 -90 -106 -96q0 -89 94.5 -150t234.5 -63v516q-155 35 -217 59q-97 35 -148.5 108.5t-51.5 176.5q0 108 59.5 200t155.5 132q68 31 202 55v164q0 28 16 44.5t42 16.5q25 0 42 -17.5t17 -43.5v-164q125 -14 213 -55 q84 -38 135 -106t51 -142q0 -54 -32 -89.5t-80 -35.5q-41 0 -70 26.5t-29 63.5q0 42 46 70q-17 61 -80 97t-154 36v-459q10 -2 21 -5t18 -4.5t10 -2.5q121 -27 176.5 -48.5t100.5 -55.5q125 -101 125 -263q0 -107 -59.5 -200.5t-157.5 -139.5q-91 -42 -234 -69v-174 q0 -22 -18 -38t-41 -16q-25 0 -41.5 15.5t-16.5 38.5v174q-135 11 -213 37q-124 41 -196 128t-72 195zM350 1018q0 -82 68 -141q36 -31 155 -62q10 0 37 -10v434q-116 -5 -188 -66t-72 -155zM727 127q125 2 208 74.5t83 179.5q0 109 -80 170q-47 38 -178 61q-7 2 -33 6v-491 z" />
<glyph unicode="%" horiz-adv-x="1640" d="M74 989q0 202 106 324q82 98 230 98q82 0 133 -24t129 -99q47 -46 99 -72t95 -26q139 0 248 186q20 35 38 47.5t50 12.5q26 0 42 -8.5t16 -22.5q0 -10 -25 -55l-698 -1344q-26 -50 -44 -64t-55 -14q-53 0 -53 35q0 13 31 68l561 1081q-61 -39 -115 -39q-96 0 -147 72 q16 -73 16 -152q0 -192 -89.5 -303.5t-242.5 -111.5q-148 0 -236.5 112t-88.5 299zM211 989q0 -140 51.5 -217.5t143.5 -77.5q188 0 188 297q0 148 -47.5 225.5t-136.5 77.5q-95 0 -147 -79.5t-52 -225.5zM905 352q0 202 92 319t252 117q77 0 143.5 -34t108.5 -97 q31 -46 49.5 -121t18.5 -159q0 -188 -91 -305t-237 -117q-155 0 -245.5 106.5t-90.5 290.5zM1042 362q0 -136 52 -213t143 -77t143 81t52 222q0 143 -46.5 220t-134.5 77q-98 0 -153.5 -82.5t-55.5 -227.5z" />
<glyph unicode="&#x26;" horiz-adv-x="1677" d="M76 391q0 115 51 209.5t147 157.5q64 40 152 82q-62 115 -86.5 184t-24.5 133q0 122 86.5 197.5t225.5 75.5q145 0 229 -72t84 -195q0 -224 -297 -379q76 -122 116.5 -181.5t125.5 -174.5q9 18 94 244q72 193 171 285t236 92q120 0 197.5 -72t77.5 -182 q0 -109 -73 -183.5t-179 -74.5q-77 0 -126.5 40t-49.5 101q0 42 24 69t62 27q31 0 52.5 -18.5t21.5 -46.5q0 -9 -9 -33q24 -4 33 -4q39 0 66.5 32.5t27.5 79.5q0 58 -39 93.5t-102 35.5q-91 0 -152.5 -85.5t-156.5 -342.5q-53 -143 -78 -184q86 -98 145.5 -131t149.5 -33 q29 0 43 2q53 6 65 6q38 0 61 -20.5t23 -52.5q0 -33 -23.5 -53.5t-60.5 -20.5q-154 0 -208 4.5t-97 20.5q-49 18 -92.5 50.5t-101.5 92.5q-84 -93 -177 -135.5t-212 -42.5q-186 0 -304 112.5t-118 290.5zM250 393q0 -114 72.5 -185t189.5 -71q169 0 281 142 q-217 272 -304 438q-123 -60 -181 -138.5t-58 -185.5zM485 1163q0 -47 18.5 -100.5t71.5 -155.5q199 93 199 244q0 64 -40.5 103.5t-106.5 39.5q-63 0 -102.5 -36.5t-39.5 -94.5z" />
<glyph unicode="'" horiz-adv-x="858" d="M356 1305q-3 57 15 82.5t59 25.5q78 0 72 -108l-23 -404q-3 -47 -49 -47q-48 0 -51 47z" />
<glyph unicode="(" horiz-adv-x="931" d="M135 555q0 229 99.5 416t291.5 319q77 55 171.5 96t142.5 41q37 0 37 -28q0 -24 -54 -49q-90 -42 -183 -116.5t-163 -158.5q-92 -108 -132 -229t-40 -287q0 -406 209 -653q64 -76 156 -149t166 -107q57 -27 57 -53q0 -11 -11 -19t-28 -8q-59 0 -171.5 55.5t-201.5 128.5 q-167 137 -256.5 343t-89.5 458z" />
<glyph unicode=")" horiz-adv-x="931" d="M37 1401q0 23 39 26q52 3 168.5 -54.5t204.5 -129.5q167 -136 256.5 -343t89.5 -458q0 -229 -98.5 -415.5t-290.5 -319.5q-77 -55 -171.5 -96t-142.5 -41q-37 0 -37 29q0 24 54 49q93 46 184 118.5t160 155.5q92 108 132 229t40 287q0 406 -209 656q-65 76 -157 149 t-163 105q-59 26 -59 53z" />
<glyph unicode="*" d="M305 1137q0 31 18.5 49t49.5 18q35 0 71 -22l138 -78q29 -14 34 -14q9 0 9 14q0 9 -4 29l-31 155q-4 20 -4 35q0 42 17.5 65t49.5 23t50 -23.5t18 -66.5q0 -13 -4 -33l-31 -155q-6 -23 -6 -29q0 -12 10 -12q9 0 33 12l137 78q39 22 74 22q31 0 49 -18t18 -49 q0 -28 -28 -50t-72 -26l-158 -17q-38 -5 -38 -14q0 -12 24 -31l117 -106q47 -47 47 -90q0 -24 -20.5 -43t-45.5 -19q-23 0 -47 21.5t-39 54.5l-65 144q-14 34 -23 34q-8 0 -24 -34l-64 -144q-15 -32 -39.5 -54t-46.5 -22q-25 0 -45 19.5t-20 42.5q0 46 47 90l117 106 q24 21 24 31q0 9 -39 14l-157 17q-44 4 -72.5 26t-28.5 50z" />
<glyph unicode="+" d="M135 750v8q0 38 17.5 53.5t60.5 15.5h369v369q0 78 63 78h8q37 0 53.5 -18.5t16.5 -59.5v-369h369q43 0 60 -16t17 -57q0 -68 -77 -68h-369v-369q0 -41 -17.5 -59t-58.5 -18q-65 0 -65 77v369h-369q-78 0 -78 64z" />
<glyph unicode="," horiz-adv-x="559" d="M119 88q0 59 41 98t102 39q72 0 118 -57.5t46 -149.5q0 -140 -100 -288q-37 -56 -63.5 -80.5t-49.5 -24.5q-15 0 -28 13t-13 28t18 39q113 152 113 227q0 23 -11.5 28t-64.5 5q-47 0 -77.5 34.5t-30.5 88.5z" />
<glyph unicode="-" horiz-adv-x="485" d="M0 547q0 32 22.5 51.5t59.5 19.5h321q35 0 58.5 -20t23.5 -49q0 -31 -23.5 -52.5t-58.5 -21.5h-321q-37 0 -59.5 20t-22.5 52z" />
<glyph unicode="." horiz-adv-x="559" d="M152 98q0 50 36.5 86.5t87.5 36.5q53 0 92.5 -38t39.5 -89q0 -52 -38 -90.5t-89 -38.5t-90 40t-39 93z" />
<glyph unicode="/" horiz-adv-x="819" d="M-80 -393q0 5 113 284q96 240 385 986q143 369 176 473q12 37 24.5 49t40.5 12h64q27 0 27 -22q0 -9 -19 -54q-348 -866 -659 -1697q-9 -29 -22.5 -41.5t-35.5 -12.5h-63q-13 0 -22 7t-9 16z" />
<glyph unicode="0" d="M86 686q0 331 157 528t421 197q258 0 405.5 -191t147.5 -524q0 -175 -44.5 -322t-125.5 -239q-157 -180 -408 -180q-259 0 -406 194t-147 537zM268 674q0 -189 43.5 -310t137.5 -196q76 -64 190 -64q189 0 294 160t105 445q0 264 -99.5 408.5t-279.5 144.5 q-187 0 -289 -153.5t-102 -434.5z" />
<glyph unicode="1" d="M252 61q0 35 25 54.5t71 19.5q22 0 68 -4q40 -6 67 -6q80 0 92 100q7 69 7 383v154q0 297 -13 399q-12 80 -90 80q-28 0 -65 -6q-40 -4 -56 -4q-37 0 -58 19t-21 53q0 32 20.5 51.5t54.5 19.5q22 0 84 -6q40 -4 74 -4q60 0 109 6q52 6 79 6q36 0 49 -19t13 -71 q0 -22 -8 -217q-4 -126 -4 -229v-232q0 -96 2 -188q1 -21 2 -74.5t2 -79.5q0 -75 22.5 -108t73.5 -33q32 0 78 6q46 4 59 4q44 0 69 -19t25 -53t-23.5 -52.5t-66.5 -18.5q-28 0 -65 6q-194 22 -260 22q-119 0 -224 -20q-68 -10 -104 -10q-40 0 -64 19.5t-24 51.5z" />
<glyph unicode="2" d="M96 172q0 254 246 406q68 42 128.5 66t266.5 89q248 82 248 268q0 127 -90.5 201t-245.5 74q-97 0 -177 -32.5t-124 -90.5q-23 -29 -31 -84q111 -9 111 -96q0 -54 -39 -91.5t-96 -37.5q-68 0 -111 49t-43 127q0 164 152.5 277.5t374.5 113.5q219 0 356 -114t137 -296 q0 -67 -23.5 -131t-64.5 -110q-52 -60 -115.5 -92.5t-238.5 -89.5q-255 -83 -351.5 -152.5t-113.5 -181.5q95 98 225 98q65 0 122 -24t132 -82q92 -71 137 -94t95 -23q54 0 89 38t35 97q0 22 -10 45q-30 -33 -73 -33q-38 0 -63.5 24.5t-25.5 61.5q0 47 36 78t93 31 q75 0 121.5 -55t46.5 -144q0 -129 -80 -218t-196 -89q-62 0 -120 26.5t-148 94.5q-83 64 -138 88t-120 24q-118 0 -144 -86q24 4 25 4q26 0 42.5 -17.5t16.5 -45.5q0 -37 -29.5 -62.5t-72.5 -25.5q-69 0 -110.5 59.5t-41.5 157.5z" />
<glyph unicode="3" d="M100 348q0 94 56.5 159.5t136.5 65.5q54 0 87.5 -31t33.5 -81t-31.5 -77.5t-89.5 -27.5h-23q0 -110 108.5 -185t266.5 -75q170 0 278.5 97t108.5 249q0 129 -78 198t-225 69q-58 0 -166 -19q-28 -4 -37 -4q-20 0 -33.5 15t-13.5 38q0 25 33 58l426 417h-475 q-72 0 -88 -2.5t-39 -19.5q-31 -24 -31 -66q0 -24 6 -73q2 -16 2 -49q0 -54 -16.5 -79.5t-52.5 -25.5q-34 0 -53 23t-19 63q0 8 4 70q2 25 2 80q0 51 -2 86q-2 25 -2 63q0 49 18.5 66.5t71.5 17.5h238h299q25 0 139 4l119 2q117 0 117 -74q0 -49 -52 -98l-376 -360l57 2 q175 0 287 -111t112 -284q0 -218 -159 -356t-410 -138q-227 0 -381 113t-154 280z" />
<glyph unicode="4" d="M31 500q0 40 22 65l543 676q86 104 127.5 136t93.5 32q31 0 57.5 -14t38.5 -37q15 -27 15 -92v-707h241q31 0 49.5 -19t18.5 -51t-19.5 -50.5t-52.5 -18.5h-237v-125q0 -89 22.5 -130.5t69.5 -41.5q24 0 67 6q32 4 46 4q40 0 62 -18t22 -52q0 -32 -20 -51.5t-52 -19.5 q-37 0 -123 12q-68 10 -160 10q-117 0 -182 -8q-122 -16 -160 -16q-37 0 -57.5 17.5t-20.5 49.5q0 35 25.5 55.5t69.5 20.5q11 0 43 -4q52 -6 79 -6q101 0 101 172v125h-635q-49 0 -71.5 19.5t-22.5 60.5zM229 559h531l14 670z" />
<glyph unicode="5" d="M129 311q0 73 47 123.5t115 50.5q52 0 86.5 -31.5t34.5 -78.5q0 -35 -24 -61.5t-56 -26.5q-15 -2 -20 -4.5t-5 -10.5q0 -30 41 -75q39 -42 127 -71.5t176 -29.5q79 0 155 30.5t132 84.5q92 89 92 248q0 151 -89.5 237t-244.5 86q-192 0 -305 -110q-55 -52 -72.5 -63 t-46.5 -11q-35 0 -56 25t-21 65v8l20 262l8 134q1 2 4 112q1 49 3.5 75.5t7.5 46.5t16.5 28t26 11t41.5 3h256h251q75 0 91 2q78 4 81 4q46 0 64 -27.5t18 -99.5q0 -69 17 -133q6 -27 6 -47q0 -26 -21 -44.5t-49 -18.5q-34 0 -50 22.5t-19 73.5q-1 61 -24.5 87.5t-76.5 26.5 h-426q-31 0 -42.5 -15t-14.5 -58l-25 -330q87 62 166.5 87.5t186.5 25.5q229 0 361 -122t132 -331q0 -230 -159 -373t-414 -143q-211 0 -356.5 103.5t-145.5 252.5z" />
<glyph unicode="6" d="M102 627q0 188 54 350.5t151 263.5q156 170 408 170q169 0 291 -85.5t122 -205.5q0 -58 -39 -100.5t-92 -42.5q-46 0 -78 32t-32 76q0 62 57 82q-29 53 -93 82t-151 29q-252 0 -366 -285q-54 -136 -62 -293q130 226 428 226q221 0 362.5 -131.5t141.5 -337.5 q0 -218 -151.5 -360t-384.5 -142q-134 0 -246 50t-184 142q-136 170 -136 480zM311 455q0 -164 96.5 -261.5t256.5 -97.5t260 99t100 256q0 152 -97.5 243.5t-258.5 91.5q-162 0 -259.5 -90.5t-97.5 -240.5z" />
<glyph unicode="7" d="M158 879q0 33 12 106q10 58 10 113q0 63 -8 123q-8 94 -8 114q0 41 17.5 63.5t49.5 22.5q31 0 47.5 -18.5t16.5 -52.5q0 -18 -8 -62l-4 -22q51 82 92 110.5t110 28.5q58 0 105.5 -21.5t130.5 -83.5q147 -114 235 -114q37 0 66.5 15t38.5 40h-17q-31 0 -54 25t-23 57 q0 38 31.5 66t72.5 28q61 0 97 -49.5t36 -134.5q0 -132 -67 -238q-28 -44 -57 -74t-126 -118q-143 -123 -190 -223q-33 -64 -53.5 -161.5t-20.5 -189.5l4 -153q0 -46 -29 -78.5t-73 -32.5q-105 0 -105 170q0 191 66 379q41 119 117.5 211.5t255.5 239.5q69 58 90.5 84.5 t27.5 62.5q-65 -59 -174 -59q-133 0 -258 94q-90 68 -117 82t-71 14q-59 0 -92 -44t-33 -122q0 -52 8 -96q15 -88 15 -104q0 -36 -24 -61t-58 -25q-35 0 -58.5 25.5t-23.5 62.5z" />
<glyph unicode="8" d="M104 397q0 268 287 375q-74 41 -112 74q-39 34 -61.5 87t-22.5 111q0 155 132 261t326 106q192 0 324.5 -106t132.5 -261q0 -59 -22 -111.5t-62 -86.5q-33 -28 -111 -74q285 -108 285 -375q0 -198 -151 -320t-396 -122q-246 0 -397.5 122t-151.5 320zM287 403 q0 -135 100.5 -219t261.5 -84q164 0 266.5 83t102.5 216q0 135 -99 215t-268 80q-166 0 -265 -79.5t-99 -211.5zM373 1053q0 -92 75 -147.5t201 -55.5q128 0 205.5 54t77.5 143q0 95 -79.5 157t-201.5 62q-118 0 -198 -61t-80 -152z" />
<glyph unicode="9" d="M123 911q0 217 147 358.5t373 141.5q255 0 399 -180.5t144 -501.5q0 -357 -164.5 -565.5t-446.5 -208.5q-179 0 -304.5 86t-125.5 209q0 60 37 100.5t92 40.5q46 0 78.5 -29.5t32.5 -72.5q0 -59 -59 -86q31 -53 101 -84t159 -31q192 0 306 153t118 418 q-55 -100 -161.5 -154t-246.5 -54q-212 0 -345.5 128t-133.5 332zM301 924q0 -152 89 -241t243 -89q158 0 250 88t92 240q0 155 -91.5 249.5t-240.5 94.5q-151 0 -246.5 -95.5t-95.5 -246.5z" />
<glyph unicode=":" horiz-adv-x="559" d="M152 98q0 50 36.5 86.5t87.5 36.5q53 0 92.5 -38t39.5 -89q0 -52 -38 -90.5t-89 -38.5t-90 40t-39 93zM152 791q0 50 36.5 86t87.5 36q53 0 92.5 -37.5t39.5 -89.5t-38 -90.5t-89 -38.5t-90 40.5t-39 93.5z" />
<glyph unicode=";" horiz-adv-x="559" d="M119 88q0 59 41 98t102 39q72 0 118 -57.5t46 -149.5q0 -140 -100 -288q-37 -56 -63.5 -80.5t-49.5 -24.5q-15 0 -28 13t-13 28t18 39q113 152 113 227q0 23 -11.5 28t-64.5 5q-47 0 -77.5 34.5t-30.5 88.5zM129 791q0 50 37 86t88 36q53 0 92 -38t39 -89 q0 -53 -37.5 -91t-89.5 -38q-51 0 -90 40.5t-39 93.5z" />
<glyph unicode="&#x3c;" horiz-adv-x="1024" d="M41 641v123l940 436v-133l-784 -365l784 -383v-133z" />
<glyph unicode="=" d="M135 571v9q0 38 17.5 53.5t60.5 15.5h879q43 0 60 -16.5t17 -57.5q0 -35 -18.5 -51t-58.5 -16h-879q-78 0 -78 63zM135 928v8q0 38 17.5 54t60.5 16h879q43 0 60 -16.5t17 -57.5q0 -68 -77 -68h-879q-78 0 -78 64z" />
<glyph unicode="&#x3e;" horiz-adv-x="1024" d="M43 186v133l780 361l-780 387v133l936 -457v-120z" />
<glyph unicode="?" horiz-adv-x="1228" d="M129 1014q0 173 147 284t377 111q226 0 364 -106t138 -281q0 -129 -73 -215.5t-240 -155.5q-116 -47 -160 -94.5t-47 -128.5q-2 -62 -10 -76q-20 -33 -70 -33q-84 0 -84 111q0 103 62.5 180t214.5 158q145 77 189 126.5t44 133.5q0 114 -92 182t-244 68 q-153 0 -257.5 -73t-104.5 -179q0 -50 41 -78l4 -2l2 -2q2 0 4 -2q-2 8 -2 21q0 27 23.5 46t56.5 19q38 0 63 -26t25 -66q0 -58 -47.5 -97.5t-118.5 -39.5q-88 0 -146.5 61.5t-58.5 153.5zM449 98q0 50 36.5 86.5t87.5 36.5q53 0 92.5 -38t39.5 -89q0 -52 -38 -90.5 t-89 -38.5t-90 40t-39 93z" />
<glyph unicode="@" horiz-adv-x="1417" d="M76 598q0 147 60.5 284t161 237.5t238.5 161t285 60.5q229 0 373.5 -136t144.5 -351q0 -130 -59 -255.5t-153.5 -203.5t-192.5 -78q-52 0 -87.5 27.5t-35.5 67.5q0 6 4 26q-37 -55 -102 -87t-142 -32q-95 0 -155 66.5t-60 171.5q0 119 62 228.5t164 176t213 66.5 q83 0 149 -41q26 35 60 35q25 0 40 -14t15 -37q0 -11 -4 -31l-109 -395q-16 -63 -16 -80q0 -39 39 -39q49 0 108 59q55 54 90 155.5t35 205.5q0 167 -113 280t-282 113q-115 0 -224 -52.5t-189 -139.5t-128.5 -205t-48.5 -244q0 -201 129.5 -335t323.5 -134 q104 0 184.5 29.5t189.5 107.5q50 31 70 31q17 0 28 -11t11 -28q0 -27 -35 -59q-80 -76 -214 -127.5t-253 -51.5q-163 0 -294.5 75t-206 207.5t-74.5 295.5zM496 575q0 -66 30.5 -102.5t87.5 -36.5q83 0 146.5 66t95.5 186l53 207q-62 29 -116 29q-120 0 -208.5 -104.5 t-88.5 -244.5z" />
<glyph unicode="A" horiz-adv-x="1527" d="M-16 59q0 33 20.5 51.5t56.5 18.5q17 0 25 -2h31q44 0 65.5 25t55.5 114l380 1030q17 46 48.5 66t85.5 20q45 0 74 -20.5t46 -65.5l367 -1013q35 -97 63.5 -128.5t79.5 -31.5q19 0 27 2q11 1 25.5 2t21.5 1.5t10 0.5q34 0 56 -19t22 -47q0 -31 -22 -50t-56 -19 q-13 0 -59 4q-129 14 -193 14q-103 0 -243 -16q-54 -4 -66 -4q-37 0 -60.5 19t-23.5 50q0 34 23.5 53t66.5 19l35 -2q49 -8 76 -8q28 0 46.5 16t18.5 39q0 11 -16 53l-57 160q-23 65 -37.5 78.5t-58.5 13.5h-365q-41 0 -57 -15t-39 -77l-60 -160q-8 -19 -8 -43q0 -65 78 -65 q17 0 63 4t60 4q37 0 57.5 -19t20.5 -53q0 -32 -23.5 -49.5t-66.5 -17.5q-25 0 -150 18q-46 4 -98 4q-71 0 -183 -16q-62 -8 -81 -8q-82 0 -82 69zM549 635q3 -19 29 -19h325q25 0 25 19l-2 14l-187 565l-188 -565q-2 -4 -2 -14z" />
<glyph unicode="B" horiz-adv-x="1417" d="M39 61q0 28 18.5 48t44.5 20q21 0 56 -6q32 -4 45 -4q47 0 71.5 28t30.5 89q0 18 2 360v174q-2 350 -4 377q-7 52 -31.5 76t-68.5 24q-13 0 -45 -4q-34 -6 -54 -6q-27 0 -46 20t-19 48q0 32 25.5 51.5t66.5 19.5q16 0 129 -14q63 -8 119 -8q72 0 219 12q117 10 205 10 q209 0 324.5 -87t115.5 -245q0 -127 -86 -210q-28 -27 -60 -45t-91 -39q89 -31 141 -60q77 -44 121.5 -122t44.5 -169q0 -101 -53 -190t-148 -146q-125 -73 -334 -73q-86 0 -223 10q-127 10 -190 10q-57 0 -207 -18q-10 -2 -31 -2q-38 0 -63 20t-25 51zM459 387 q0 -135 3.5 -168.5t20.5 -50.5q43 -49 252 -49q206 0 295 69q100 78 100 218q0 128 -94 195t-272 67h-170q-61 0 -90.5 -13t-38.5 -43q-4 -18 -6 -135v-90zM459 954q0 -58 3 -85.5t18 -46t37 -22t69 -3.5h114q177 0 269 60t92 175q0 110 -74 162.5t-229 52.5 q-93 0 -173.5 -11t-99.5 -26q-17 -15 -21.5 -36.5t-4.5 -90.5v-129z" />
<glyph unicode="C" d="M78 670q0 165 44.5 303t124 234.5t194 150t251.5 53.5q218 0 342 -139q4 -6 29 -35q-1 24 -2.5 39t-1.5 20q-4 32 -4 43q0 31 18 49.5t47 18.5q32 0 51 -23t19 -61q0 -18 -8 -100q-11 -90 -11 -140q0 -46 13 -192q2 -8 2 -23q0 -90 -76 -90t-76 84l2 84q0 145 -96 236.5 t-248 91.5q-201 0 -316.5 -157t-115.5 -431q0 -135 33.5 -253.5t93.5 -194.5q113 -146 318 -146q102 0 187.5 44.5t129.5 119.5q23 40 32 81.5t11 115.5q0 49 19 71.5t59 22.5q84 0 84 -96q0 -218 -152.5 -357t-390.5 -139q-277 0 -441.5 194.5t-164.5 520.5z" />
<glyph unicode="D" horiz-adv-x="1490" d="M39 61q0 28 19 48t46 20q19 0 54 -6q32 -4 45 -4q47 0 71.5 28t30.5 91q0 16 2 358v174q-2 350 -4 377q-7 52 -31.5 76t-68.5 24q-13 0 -45 -4q-34 -6 -54 -6q-27 0 -46 20t-19 48q0 32 25 51.5t65 19.5q14 0 139 -16q52 -8 129 -8q58 0 248 18q50 6 109 6 q295 0 460 -157q95 -94 147 -235.5t52 -307.5q0 -150 -45.5 -283t-128.5 -223q-163 -180 -485 -180q-52 0 -238 16q-86 6 -147 6q-47 0 -74 -2.5t-137 -17.5q-10 -2 -29 -2q-40 0 -65 19.5t-25 51.5zM477 319q0 -90 3.5 -114.5t17.5 -42.5q32 -37 243 -37q133 0 215 30.5 t142 102.5q133 161 133 422q0 175 -60 306.5t-167 193.5q-105 57 -289 57q-111 0 -159.5 -8t-61.5 -29q-11 -12 -13.5 -31.5t-3.5 -115.5v-734z" />
<glyph unicode="E" horiz-adv-x="1378" d="M39 61q0 28 19 48t46 20q18 0 56 -6q28 -4 43 -4q49 0 72.5 27.5t29.5 91.5l2 360v172q0 345 -4 377q-7 52 -31.5 76t-68.5 24q-13 0 -45 -4q-34 -6 -56 -6q-26 0 -44.5 20t-18.5 48q0 30 24.5 49.5t61.5 19.5q19 0 33 -2q202 -20 305 -20q49 0 291.5 9t308.5 13 q25 2 61 2q54 0 79.5 -23.5t25.5 -72.5q0 -20 -8 -102q-7 -75 -7 -121q0 -43 7 -101q6 -56 6 -90t-20.5 -56t-51.5 -22q-40 0 -58 25.5t-18 81.5q0 49 2 80v37q0 123 -41 172q-23 28 -82.5 36.5t-224.5 8.5q-72 0 -114 -3t-74 -9.5t-46 -22t-20 -36.5t-6 -56v-94 q0 -53 -2 -86v-31q0 -58 17 -76t71 -18h82q58 0 93.5 24t35.5 64q0 11 -4 65q-6 38 -6 70q0 36 19.5 58t51.5 22q34 0 54 -23.5t20 -64.5q0 -24 -12 -127q-12 -99 -12 -166q0 -93 18 -240q4 -40 4 -53q0 -32 -20 -51t-54 -19q-71 0 -71 86q0 31 6 68q6 38 6 65q0 89 -117 89 h-92q-57 0 -72.5 -19t-15.5 -90v-127l2 -94q2 -20 2 -86q1 -76 25.5 -96.5t113.5 -20.5h279q123 0 167 36.5t44 139.5q0 55 -2 86q-2 37 -2 92q0 44 19.5 68.5t54.5 24.5q75 0 75 -95q0 -18 -4 -92q-4 -90 -4 -135q0 -55 2 -78q4 -86 4 -92q0 -44 -25.5 -70t-68.5 -26 q-6 0 -72 4l-90 2q-10 0 -25 0.5t-50.5 1.5t-83.5 2q-164 4 -304 4q-264 0 -372 -12q-14 -2 -33 -2q-37 0 -61.5 20t-24.5 51z" />
<glyph unicode="F" horiz-adv-x="1267" d="M39 61q0 29 18.5 49.5t44.5 20.5q24 0 54 -6q32 -4 45 -4q47 0 70.5 28t27.5 91q4 62 4 358v172q-2 350 -4 377q-8 53 -31 76.5t-69 23.5q-11 0 -43 -4q-34 -6 -54 -6q-26 0 -44.5 20t-18.5 48q0 31 24.5 51t61.5 20q19 0 31 -2q189 -22 336 -22q63 0 286 7t275 11 q25 2 61 2q49 0 78 -25.5t29 -68.5q0 -19 -11 -98q-8 -52 -8 -129q0 -57 2 -84q6 -58 6 -90q0 -39 -20 -61.5t-55 -22.5q-40 0 -57 22.5t-17 75.5q0 10 4 96q2 23 2 80q0 72 -18 103t-64 42q-86 21 -272 21q-104 0 -149 -6t-66 -21q-17 -15 -22 -48.5t-5 -147.5v-154 q0 -57 16 -70.5t84 -13.5h68q72 0 103.5 23t31.5 75q0 20 -4 60q-6 37 -6 61q0 35 20 56.5t52 21.5q69 0 69 -88q0 -27 -16 -162q-6 -52 -6 -110q0 -95 16 -213q8 -62 8 -80q0 -35 -21 -57.5t-55 -22.5q-31 0 -50 24t-19 62q0 28 6 78q2 18 2 47q0 56 -26.5 75t-102.5 19 h-66q-71 0 -87.5 -17t-16.5 -89v-129q0 -154 2 -183.5t14 -52.5q26 -47 84 -47q14 0 50 4q18 2 47 2q43 0 66.5 -18t23.5 -52q0 -29 -21 -49t-53 -20q-29 0 -94 10q-86 14 -207 14q-81 0 -227 -22q-10 -2 -29 -2q-39 0 -63.5 19.5t-24.5 51.5z" />
<glyph unicode="G" horiz-adv-x="1454" d="M78 674q0 333 167 535t443 202q113 0 197.5 -35t171.5 -119q-1 6 -1.5 14t-1 12.5t-1.5 6.5q-4 36 -4 47q0 31 18.5 48.5t50.5 17.5q38 0 56 -21t18 -67q0 -20 -16 -139q-7 -51 -7 -93q0 -53 2 -88q7 -86 7 -102q0 -41 -20.5 -64.5t-57.5 -23.5q-72 0 -72 100l2 56 q0 130 -61 200q-46 52 -123 82.5t-162 30.5q-196 0 -310 -155.5t-114 -424.5q0 -281 116 -441.5t320 -160.5q97 0 175.5 41.5t113.5 110.5q41 80 41 202q0 68 -24 96.5t-82 28.5q-30 0 -50 -2t-49 -2q-44 0 -68 18t-24 52t22.5 53t61.5 19q17 0 57 -4q147 -17 209 -17 q77 0 213 19q30 6 56 6q34 0 56.5 -19.5t22.5 -50.5q0 -29 -20 -49.5t-49 -20.5l-37 2q-18 3 -31 3q-51 0 -71.5 -46t-20.5 -155v-78q2 -149 4 -180q6 -53 6 -68q0 -38 -20.5 -62t-54.5 -24q-32 0 -52 20t-20 52q0 13 4 49q4 29 4 64q-46 -65 -74 -89q-54 -49 -143 -77.5 t-186 -28.5q-265 0 -426.5 197.5t-161.5 521.5z" />
<glyph unicode="H" horiz-adv-x="1603" d="M39 63q0 28 18.5 48t44.5 20q21 0 56 -6q32 -4 47 -4q47 0 70.5 28t29.5 91q0 18 2 358v172q-2 350 -4 377q-7 52 -31.5 76t-68.5 24q-13 0 -45 -4q-34 -6 -56 -6q-26 0 -44.5 20t-18.5 48q0 32 25.5 51.5t66.5 19.5q21 0 76 -10q83 -14 192 -14q89 0 168 12q71 10 86 10 q40 0 65 -19.5t25 -51.5q0 -29 -18.5 -49.5t-44.5 -20.5q-5 0 -55 8q-24 6 -45 6q-48 0 -72.5 -28.5t-28.5 -90.5q-4 -66 -4 -340h655q0 302 -6 355q-6 52 -29.5 76t-68.5 24q-13 0 -45 -4q-37 -6 -55 -6q-26 0 -45 19.5t-19 47.5q0 32 24.5 52t63.5 20q34 0 105 -12 q79 -10 139 -10q117 0 205 14q57 8 78 8q40 0 65 -20t25 -52q0 -28 -19 -47.5t-45 -19.5q-21 0 -55 6q-32 4 -45 4q-75 0 -94 -67q-6 -29 -8 -85t-3 -325v-168q2 -337 5 -379q8 -51 32 -75.5t68 -24.5q13 0 45 4q31 8 55 8q26 0 45 -20.5t19 -49.5q0 -32 -25.5 -51.5 t-66.5 -19.5q-22 0 -78 12q-71 14 -156 14q-113 0 -190 -14q-73 -12 -99 -12q-40 0 -65 20.5t-25 52.5q0 28 19 48t45 20q20 0 55 -6q32 -4 45 -4q48 0 72 28t28 91q4 35 4 360v51h-655v-53q0 -340 6 -379q11 -100 99 -100q13 0 45 4q31 8 55 8q26 0 44.5 -20.5t18.5 -49.5 q0 -32 -25 -51.5t-65 -19.5q-24 0 -88 12q-90 18 -172 18q-108 0 -235 -28q-8 -2 -27 -2q-41 0 -66.5 20.5t-25.5 52.5z" />
<glyph unicode="I" horiz-adv-x="782" d="M39 61q0 29 18.5 49.5t46.5 20.5q23 0 54 -8q32 -4 45 -4q49 0 72.5 27.5t29.5 91.5l2 360v172q0 345 -4 377q-7 52 -31.5 76t-70.5 24q-11 0 -43 -4q-34 -6 -56 -6q-26 0 -44.5 20t-18.5 48q0 32 24.5 51.5t63.5 19.5q16 0 141 -18q57 -8 127 -8q38 0 55 1t56.5 5.5 t120.5 17.5q10 2 30 2q39 0 63.5 -19.5t24.5 -51.5q0 -28 -18.5 -48t-44.5 -20q-20 0 -55 6q-32 4 -45 4q-49 0 -73 -28t-30 -91l-2 -360v-172q0 -345 4 -377q14 -100 101 -100q13 0 45 4q31 8 55 8q26 0 44.5 -20.5t18.5 -49.5q0 -31 -25 -51t-65 -20q-14 0 -135 18 q-52 8 -117 8q-68 0 -245 -24q-10 -2 -29 -2q-40 0 -65 20t-25 51z" />
<glyph unicode="J" horiz-adv-x="1267" d="M39 354q0 131 83 220.5t206 89.5q86 0 142 -45.5t56 -116.5q0 -53 -32 -91t-78 -38q-38 0 -68.5 26t-30.5 60q0 30 29 53q-18 10 -31 10q-43 0 -77.5 -49.5t-34.5 -110.5q0 -116 89.5 -188t233.5 -72q259 0 324 220q24 85 24 380v68q-2 350 -4 377q-7 52 -31.5 76 t-70.5 24q-11 0 -43 -4q-35 -6 -55 -6q-26 0 -45 20t-19 48q0 32 24.5 51.5t63.5 19.5q15 0 142 -18q57 -8 127 -8q51 0 83.5 3t147.5 21q10 2 31 2q39 0 63.5 -19.5t24.5 -51.5q0 -28 -19 -48t-45 -20q-21 0 -55 6q-32 4 -45 4q-47 0 -71.5 -28t-30.5 -91l-3 -360v-66 q0 -261 -12.5 -353t-56.5 -167q-68 -109 -185.5 -168t-267.5 -59q-214 0 -348.5 111t-134.5 288z" />
<glyph unicode="K" horiz-adv-x="1603" d="M39 59q0 28 19 48t46 20q19 0 54 -6q32 -4 45 -4q55 0 78.5 35.5t23.5 117.5v144q2 94 2 180v172q0 90 -2 182v142q0 82 -23 117.5t-77 35.5q-15 0 -47 -4q-34 -6 -56 -6q-26 0 -44.5 19.5t-18.5 47.5q0 32 25 52t65 20q12 0 125 -14q52 -8 111 -8q70 0 262 24q12 2 32 2 q37 0 61.5 -19.5t24.5 -51.5q0 -28 -18.5 -48t-44.5 -20q-18 0 -55 6q-32 4 -45 4q-36 0 -61 -17.5t-32 -49.5q-9 -34 -10.5 -86.5t-1.5 -323.5v-74l578 492q24 21 24 33q0 24 -39 24q-8 0 -73 -6q-40 -4 -56 -4q-33 0 -54 20.5t-21 53.5q0 32 22.5 49.5t63.5 17.5 q38 0 194 -18q58 -6 111 -6q66 0 178 16q44 8 82 8q34 0 56 -19t22 -50q0 -32 -19 -51t-53 -19q-23 0 -43 2h-37q-41 0 -68 -10.5t-63 -40.5l-387 -324q-25 -22 -25 -35q0 -8 26 -46q14 -21 24 -35l327 -449q73 -95 119 -141q34 -37 80 -37q14 0 22 2q56 6 68 6q32 0 52 -19 t20 -51t-20.5 -50.5t-57.5 -18.5q-25 0 -60 6q-112 14 -217 14q-122 0 -231 -14q-52 -6 -88 -6q-37 0 -57.5 17.5t-20.5 49.5q0 34 22.5 54t59.5 20q15 0 61 -4q60 -8 95 -8q49 0 49 20q0 11 -19 39l-383 518q-10 17 -22 17q-8 0 -25 -17l-217 -188q0 -242 6 -291 q11 -100 99 -100q13 0 45 4q33 8 55 8q26 0 44.5 -20t18.5 -48q0 -32 -25 -51.5t-65 -19.5q-12 0 -145 18q-47 6 -127 6q-59 0 -87.5 -2.5t-137.5 -19.5q-8 -2 -29 -2q-40 0 -65 19t-25 50z" />
<glyph unicode="L" d="M39 63q0 28 18.5 48t44.5 20q25 0 56 -8q32 -4 45 -4q47 0 71.5 28t30.5 91q0 16 2 358v172q-2 352 -4 379q-7 52 -31.5 76t-68.5 24q-13 0 -45 -4q-34 -6 -54 -6q-27 0 -46 20t-19 48q0 31 25 51t63 20q12 0 139 -14q92 -10 135 -10q69 0 226 22q10 2 28 2 q40 0 65 -19.5t25 -51.5q0 -28 -18.5 -48t-44.5 -20q-18 0 -55 6q-32 4 -45 4q-76 0 -95 -67q-6 -28 -7.5 -79t-2.5 -331v-125v-156q2 -111 2 -186v-48t2.5 -38t3.5 -30.5t8.5 -22t12 -17t19.5 -10t25.5 -7.5t35.5 -3t44 -2h56h178q149 0 195 43q25 20 34 52.5t9 98.5 q0 48 -2 68q-6 74 -6 96q0 90 77 90q82 0 82 -84q0 -18 -18 -141q-4 -50 -4 -94q0 -56 6 -111q4 -46 4 -59q0 -44 -27 -68t-77 -24q-15 0 -97 4l-327 8q-447 0 -555 -12q-14 -2 -31 -2q-38 0 -63 20.5t-25 52.5z" />
<glyph unicode="M" horiz-adv-x="1939" d="M39 61q0 28 18.5 48t44.5 20q23 0 56 -8q32 -4 45 -4q47 0 71.5 28t30.5 91q0 16 2 360v174q-2 350 -4 377q-7 52 -31.5 76t-68.5 24q-13 0 -45 -4q-34 -6 -56 -6q-26 0 -44.5 20t-18.5 48q0 32 25 51.5t65 19.5q14 0 100 -12q46 -6 105 -6q66 0 110 8q65 10 91 10 q43 0 73 -41q17 -21 22.5 -34.5t24.5 -79.5l314 -1037l327 1037q20 70 25.5 84.5t19.5 33.5q23 37 64 37q13 0 102 -14q33 -8 99 -8q52 0 74 2.5t104 17.5q8 2 28 2q40 0 65.5 -19.5t25.5 -51.5q0 -28 -19 -48t-45 -20q-21 0 -55 6q-32 4 -45 4q-76 0 -92 -67 q-8 -29 -10 -84t-3 -326v-174q2 -348 4 -375q14 -100 101 -100q13 0 45 4q34 6 55 6q26 0 45 -20t19 -48q0 -32 -25 -52.5t-63 -20.5q-19 0 -31 2q-146 20 -240 20q-98 0 -186 -16q-38 -6 -66 -6q-34 0 -57 19t-23 48q0 31 22.5 50.5t59.5 19.5q21 0 31 -2q41 -6 55 -6 q38 0 57.5 31.5t28 107t9.5 225.5l2 197q1 38 2 82.5t1.5 68t0.5 33.5v365q0 12 -8 12q-9 0 -13 -12l-379 -1172q-14 -43 -40 -60t-78 -17q-51 0 -75.5 16.5t-37.5 60.5l-373 1172q-4 12 -12 12q-3 0 -6.5 -4t-3.5 -8l8 -465v-189q0 -151 4 -303q3 -147 82 -147q17 0 61 6 q10 2 27 2q37 0 58.5 -20t21.5 -52t-22.5 -51.5t-59.5 -19.5q-18 0 -139 18q-38 6 -119 6q-73 0 -100.5 -2.5t-118.5 -19.5q-8 -2 -27 -2q-41 0 -66.5 19.5t-25.5 51.5z" />
<glyph unicode="N" horiz-adv-x="1564" d="M39 57q0 29 18.5 48.5t46.5 19.5q22 0 56 -6q28 -4 45 -4q48 0 72 27.5t30 90.5q0 19 2 359v176q-2 350 -4 377q-7 52 -31.5 76t-70.5 24q-15 0 -43 -4q-38 -6 -56 -6q-28 0 -46.5 20.5t-18.5 49.5q0 31 25 51t63 20q19 0 31 -2q89 -12 159 -12q44 0 97 6q70 8 88 8 q43 0 69 -26q7 -7 37 -66l549 -1147v631q0 340 -6 377q-6 52 -29.5 76t-68.5 24q-13 0 -45 -4q-38 -6 -56 -6q-26 0 -44.5 20t-18.5 48q0 32 25 52.5t65 20.5q15 0 121 -16q52 -8 114 -8q64 0 144 12q78 12 100 12q40 0 63 -18.5t23 -50.5q0 -45 -39 -64q-16 -6 -65 -6 q-54 0 -72.5 -5t-28.5 -22q-30 -43 -30 -442v-375q0 -202 -2 -248t-13 -82q-13 -47 -46.5 -72.5t-80.5 -25.5q-53 0 -93 34t-77 110l-536 1116v-629q2 -350 4 -377q7 -52 31.5 -76t68.5 -24q13 0 45 4q34 6 56 6q26 0 44.5 -20t18.5 -48q0 -32 -24.5 -51.5t-63.5 -19.5 q-17 0 -115 14q-82 10 -131 10q-67 0 -237 -22q-10 -2 -29 -2q-40 0 -65 19t-25 48z" />
<glyph unicode="O" horiz-adv-x="1341" d="M78 698q0 160 46.5 303.5t129.5 235.5q75 84 185 129t241 45q270 0 427 -191t157 -520q0 -340 -163 -542.5t-437 -202.5q-272 0 -429 199t-157 544zM260 692q0 -175 37 -293t117 -196q106 -101 250 -101q107 0 196.5 55t143.5 154q35 66 56 173t21 221 q0 266 -107.5 412.5t-303.5 146.5q-192 0 -301 -152t-109 -420z" />
<glyph unicode="P" d="M39 61q0 28 19 48t46 20q23 0 54 -8q32 -4 45 -4q49 0 72.5 27.5t29.5 91.5l2 360v172q0 347 -4 379q-11 100 -98 100q-17 0 -45 -4q-33 -8 -58 -8q-26 0 -44.5 20.5t-18.5 49.5q0 31 25 51t63 20q12 0 133 -14q60 -8 123 -8q47 0 121 6q168 16 260 16q242 0 362 -86 q146 -106 146 -301q0 -106 -47.5 -193.5t-130.5 -133.5q-124 -70 -334 -70h-146q-31 2 -86 2q-33 0 -42 -11t-9 -53v-41q0 -227 6 -268q11 -100 99 -100q13 0 45 4q35 6 55 6q26 0 44.5 -20.5t18.5 -49.5q0 -31 -25 -51t-63 -20q-14 0 -133 18q-46 6 -131 6 q-58 0 -87.5 -2.5t-145.5 -19.5q-10 -2 -31 -2q-40 0 -65 19.5t-25 51.5zM477 784q0 -38 17 -47q26 -16 184 -16q230 0 321 59q47 29 74 82t27 119q0 133 -82.5 197.5t-251.5 64.5q-218 0 -260 -29q-19 -12 -24 -34.5t-5 -89.5v-306z" />
<glyph unicode="Q" horiz-adv-x="1341" d="M76 676q0 184 52 338t144 243q160 154 404 154q272 0 430 -193t158 -526q0 -475 -330 -678v-155q0 -146 117 -146q63 0 86 27t28 102q1 51 18.5 74t53.5 23q80 0 80 -99q0 -114 -71.5 -183t-190.5 -69q-123 0 -190.5 62t-67.5 176v143q-71 -14 -127 -14 q-274 0 -434 194.5t-160 526.5zM250 682q0 -387 188 -537q-55 85 -55 172q0 100 83.5 169t203.5 69q126 0 196 -70t70 -196v-109q77 97 111 219.5t34 300.5q0 269 -106 417.5t-299 148.5q-200 0 -313 -155t-113 -429zM494 266q0 -78 50 -128t128 -50q40 0 129 21v157 q0 162 -142 162q-72 0 -118.5 -45.5t-46.5 -116.5z" />
<glyph unicode="R" horiz-adv-x="1490" d="M39 61q0 29 18.5 49.5t46.5 20.5q23 0 54 -8q32 -4 45 -4q49 0 72.5 27.5t29.5 91.5q0 16 2 358v174q-2 350 -4 377q-7 52 -31.5 76t-68.5 24q-13 0 -45 -4q-34 -6 -56 -6q-26 0 -44.5 20t-18.5 48q0 32 24.5 51.5t63.5 19.5q14 0 137 -14q58 -4 103 -4q61 0 297 14 q94 4 145 4q242 0 348 -100q100 -92 100 -246q0 -97 -40.5 -170t-114.5 -108q-53 -25 -154 -50q123 -22 169 -88.5t46 -224.5q0 -4 -2 -92v-27q0 -76 22 -110.5t72 -34.5q52 0 75.5 42t23.5 136q0 5 -0.5 19t-1.5 40.5t-2 51.5v30q0 66 15 90.5t56 24.5q72 0 72 -88 q0 -37 -2 -86q-2 -51 -2 -109q0 -68 -5 -98t-22 -65q-57 -123 -225 -123q-220 0 -238 200q-2 20 -2 226q-1 83 -21.5 128.5t-64.5 67.5q-31 15 -62.5 19t-117.5 4h-129q-89 0 -108 -12t-19 -68v-43q0 -240 6 -289q11 -100 101 -100q11 0 43 4q35 6 55 6q26 0 44.5 -20.5 t18.5 -49.5q0 -32 -25 -52.5t-63 -20.5q-12 0 -143 18q-52 8 -115 8q-53 0 -239 -24q-10 -2 -31 -2q-38 0 -63 20t-25 51zM475 825q0 -40 15 -46.5t104 -6.5h131q177 0 260 47q47 28 76 83t29 118q0 235 -318 235q-192 0 -260 -38q-25 -12 -29.5 -32t-7.5 -124v-236z" />
<glyph unicode="S" horiz-adv-x="1267" d="M123 512q0 41 21.5 65.5t58.5 24.5q80 0 80 -90q0 -25 -2 -39l-2 -53q0 -149 100.5 -238.5t267.5 -89.5q154 0 245 74t91 199q0 155 -137 208q-40 16 -69.5 23t-155.5 29q-193 37 -269 71q-89 40 -141.5 123.5t-52.5 186.5q0 180 131.5 292.5t339.5 112.5 q109 0 183.5 -29.5t143.5 -99.5v31q0 38 17 59t47 21q32 0 52 -25q18 -23 18 -56v-7q0 -18 -7 -76q-6 -55 -6 -131q0 -46 10 -152q3 -15 3 -33q0 -46 -19.5 -71t-56.5 -25t-58.5 22.5t-21.5 59.5l2 66q2 16 2 45q0 123 -82.5 193.5t-228.5 70.5q-131 0 -209 -67t-78 -179 q0 -107 75 -160.5t271 -85.5q142 -23 209.5 -45t124.5 -63q63 -46 98 -121t35 -164q0 -194 -137.5 -314t-358.5 -120q-124 0 -214.5 34.5t-172.5 112.5q6 -53 6 -75q0 -34 -19.5 -54t-51.5 -20q-37 0 -57.5 23.5t-20.5 64.5q0 6 10 121q6 56 6 102q0 58 -10 156 q-10 71 -10 92z" />
<glyph unicode="T" d="M53 874q0 19 4 93q6 67 6 123q0 36 -4 106q-6 62 -6 92q0 86 78 86q23 0 133 -4q165 -10 404 -10q221 0 393 12q74 4 90 4q53 0 75.5 -19t22.5 -63q0 -38 -6 -84q-10 -105 -10 -137q0 -37 6 -98q8 -86 8 -107q0 -40 -21 -62t-59 -22q-41 0 -59 24.5t-18 80.5q0 33 10 158 q2 25 2 63q0 72 -38 104.5t-124 32.5h-57q-45 0 -80 -14t-47 -37q-12 -24 -15 -47t-6 -125q-6 -123 -6 -256v-174q2 -350 4 -377q14 -100 101 -100q13 0 45 4q35 6 55 6q26 0 44.5 -20t18.5 -48q0 -31 -25 -50t-63 -19q-14 0 -131 16q-47 8 -131 8q-63 0 -93 -2.5 t-144 -19.5q-10 -2 -29 -2q-40 0 -65 19t-25 50q0 28 19 48t46 20q20 0 54 -6q32 -4 45 -4q49 0 72.5 27.5t29.5 91.5l2 358v174v279q0 121 -29.5 160.5t-119.5 39.5h-66q-77 0 -112 -34t-35 -109q0 -33 12 -146q2 -18 2 -53q0 -69 -19 -98t-63 -29q-40 0 -58 22.5t-18 73.5 z" />
<glyph unicode="U" horiz-adv-x="1454" d="M20 1305q0 32 21.5 51.5t56.5 19.5q29 0 70 -6q111 -18 186 -18q80 0 203 20q40 4 55 4q38 0 61 -18.5t23 -50.5q0 -29 -20 -49.5t-49 -20.5q-21 0 -56 6q-36 4 -49 4q-54 0 -75.5 -42t-22.5 -152q-1 -30 -2 -62t-1.5 -49t-0.5 -22q-8 -131 -8 -164v-135q0 -181 1 -218.5 t7 -80.5q7 -60 28 -97.5t64 -68.5q90 -64 225 -64q97 0 171.5 34.5t109.5 96.5q23 39 31 122.5t8 275.5v147q0 261 -2 317.5t-11 92.5q-7 31 -32 48t-62 17q-11 0 -43 -4q-38 -6 -55 -6q-26 0 -45 20.5t-19 49.5q0 32 25 52.5t64 20.5q14 0 151 -18q46 -6 102 -6 q52 0 179 20q36 4 51 4q38 0 61 -18.5t23 -50.5t-23 -51t-61 -19q-13 0 -21 2h-22q-21 0 -34.5 -4t-24.5 -20t-16.5 -38.5t-9 -68.5t-4.5 -100.5t-1 -143.5v-141q0 -317 -4.5 -380.5t-32.5 -131.5q-51 -126 -167.5 -191t-291.5 -65q-141 0 -250.5 43t-169.5 121 q-43 55 -59 119.5t-16 175.5q0 29 4 161q8 161 8 277v109q-2 153 -5.5 187.5t-21.5 63.5q-18 27 -55 27l-31 -2q-12 -2 -31 -2q-39 0 -61.5 19t-22.5 51z" />
<glyph unicode="V" horiz-adv-x="1490" d="M-10 1303q0 33 22 53t58 20q27 0 57 -6q132 -20 201 -20q101 0 227 18q39 8 76 8q32 0 54 -19t22 -48q0 -32 -22.5 -53t-57.5 -21l-37 2q-18 2 -43 2q-84 0 -84 -57q0 -32 35 -138l288 -874l273 856q33 103 33 141q0 32 -23 54t-55 22q-22 0 -60 -6q-28 -4 -39 -4 q-34 0 -54.5 20t-20.5 52q0 31 21 51t54 20q25 0 66 -6q98 -20 199 -20q73 0 184 20q38 6 66 6q34 0 53.5 -19.5t19.5 -53.5q0 -28 -21 -48t-50 -20q-14 0 -60 6h-12q-37 0 -57 -35q-17 -30 -60 -145l-334 -987q-19 -54 -50 -77.5t-83 -23.5t-80.5 22.5t-48.5 78.5 l-366 1030q-31 83 -50 102q-31 31 -86 31l-39 -2q-28 -4 -38 -4q-34 0 -56 20t-22 52z" />
<glyph unicode="W" horiz-adv-x="1900" d="M-10 1303q0 32 20.5 52.5t52.5 20.5q25 0 66 -6q102 -18 215 -18q96 0 205 16q39 8 78 8q33 0 53 -18.5t20 -50.5q0 -34 -24 -54t-66 -20q-27 0 -57 6q-46 4 -59 4q-68 0 -68 -65q0 -29 18 -127l168 -865l213 1063q13 73 46 106.5t92 33.5q55 0 90.5 -32t46.5 -91 l205 -1096l174 852q20 95 20 139q0 43 -21 62.5t-67 19.5l-45 -2q-50 -4 -61 -4q-88 0 -88 70q0 32 23 50.5t63 18.5q29 0 67 -6q141 -18 221 -18q71 0 138 12q71 12 106 12q32 0 54 -20t22 -51q0 -32 -20 -50t-54 -18q-11 0 -35 4q-36 4 -43 4q-38 0 -58 -34.5t-46 -147.5 l-230 -977q-27 -113 -127 -113q-106 0 -133 140l-207 1083l-227 -1112q-12 -59 -39.5 -85t-79.5 -26q-51 0 -78 25.5t-42 87.5l-224 936q-13 57 -21 88.5t-18.5 59.5t-18.5 39.5t-23.5 20t-30 10t-41.5 1.5q-9 0 -60 -4q-26 -1 -45.5 18.5t-19.5 47.5z" />
<glyph unicode="X" horiz-adv-x="1603" d="M10 63q0 31 21 51.5t53 20.5q5 0 41 -4q14 -2 39 -2q45 0 80 26.5t104 112.5l363 447l-377 442q-41 49 -66 64.5t-61 15.5q-31 0 -47 -2t-43 -2q-38 0 -61 20t-23 54q0 32 23 50.5t63 18.5q31 0 65 -6q84 -15 108 -17.5t68 -2.5q115 0 244 20q44 6 74 6q37 0 58.5 -18.5 t21.5 -50.5q0 -33 -22 -52.5t-60 -19.5q-40 0 -98 8q-32 4 -41 4q-23 0 -23 -14q0 -7 12 -23l285 -374l283 358q16 19 16 35t-25 16q-20 0 -32 -2q-57 -8 -95 -8t-61 20t-23 52q0 30 21.5 49.5t54.5 19.5q36 0 80 -8q119 -18 197 -18q40 0 62 2.5t114 17.5q37 6 72 6 q77 0 77 -71q0 -32 -20 -51t-55 -19l-35 2q-34 6 -51 6q-48 0 -119 -86l-361 -442l385 -467q62 -74 94 -98.5t68 -24.5q17 0 27 2q16 2 37 2q32 0 51.5 -18.5t19.5 -47.5q0 -32 -21.5 -52.5t-55.5 -20.5q-36 0 -72 8q-111 18 -193 18q-74 0 -180 -16q-62 -10 -98 -10 q-38 0 -63 20.5t-25 52.5t24 52t64 20t65 -2q50 -6 78 -6q33 0 33 20q0 21 -37 66l-307 383l-297 -383q-37 -47 -37 -68q0 -9 10 -15t23 -5q123 10 160 10q41 0 65.5 -20t24.5 -54q0 -32 -22 -51.5t-58 -19.5q-23 0 -78 10q-87 18 -205 18q-125 0 -225 -20q-54 -8 -70 -8 q-38 0 -62 20.5t-24 52.5z" />
<glyph unicode="Y" horiz-adv-x="1490" d="M-29 1298q0 34 22.5 56t57.5 22q40 0 84 -8q102 -18 182 -18q70 0 191 20q44 6 74 6q40 0 62 -18.5t22 -50.5q0 -72 -99 -72h-71q-18 2 -39 2q-27 0 -27 -16q0 -9 12 -27l314 -535l317 535q10 13 10 31q0 20 -26 20q-6 0 -94 -10q-46 -4 -56 -4q-37 0 -59.5 21t-22.5 53 t22 51.5t58 19.5q32 0 76 -6q120 -18 199 -18q89 0 194 18q43 6 72 6q35 0 55.5 -18.5t20.5 -50.5t-20 -51t-54 -19q-13 0 -49 4t-49 4q-49 0 -74 -35q-4 -6 -39 -61l-403 -633q0 -248 6 -297q6 -52 29.5 -76t68.5 -24q15 0 43 4q33 8 55 8q26 0 45 -20.5t19 -49.5 q0 -31 -25 -51t-63 -20q-13 0 -144 18q-60 8 -125 8q-45 0 -75 -3t-152 -21q-10 -2 -29 -2q-40 0 -65 19.5t-25 51.5q0 28 19 48t45 20q21 0 55 -6q32 -4 45 -4q76 0 92 67q13 48 13 222q0 53 -2 94l-398 628q-44 71 -64.5 88t-60.5 17q-23 0 -37 -2q-16 -2 -47 -2 q-86 0 -86 67z" />
<glyph unicode="Z" horiz-adv-x="1267" d="M80 104q0 60 49 117l862 1022h-499q-129 0 -175.5 -44t-46.5 -167l2 -74q2 -27 2 -59q0 -96 -77 -96q-35 0 -55.5 22t-20.5 60q0 45 8 94q8 65 8 137q0 47 -2 70q-4 78 -4 86q0 55 25.5 80.5t81.5 25.5q28 0 59 -2h160l215 -2l379 4q77 0 111 -24t34 -78q0 -51 -41 -98 l-905 -1057h514q96 0 140.5 5t74.5 19q70 36 70 144q0 32 -7 86q-6 59 -6 94q0 38 20.5 60t55.5 22q76 0 76 -84q0 -20 -4 -90q-8 -65 -8 -123q0 -26 4 -76q8 -90 8 -94q0 -52 -28.5 -74t-94.5 -22q-27 0 -246 8l-227 2q-93 0 -236 -6q-47 -4 -114 -4q-89 0 -125.5 26 t-36.5 90z" />
<glyph unicode="[" horiz-adv-x="894" d="M217 -319q0 47 6 161q2 70 2 334v619q0 265 -2 335q-6 111 -6 160q0 48 12 68t41 20q28 0 78 -6q62 -4 98 -4q78 0 146 8q70 6 115 6q43 0 69.5 -20t26.5 -53q0 -66 -101 -66q-24 0 -110 8q-67 9 -121 9q-41 0 -57.5 -12.5t-22.5 -47.5q-16 -98 -16 -399v-631 q0 -330 18 -412q6 -26 24.5 -36.5t61.5 -10.5q41 0 113 10q97 9 119 9q44 0 69 -17.5t25 -48.5q0 -35 -26.5 -54.5t-73.5 -19.5q-32 0 -111 7q-86 6 -148 6q-40 0 -98 -4q-61 -7 -80 -7q-28 0 -39.5 20.5t-11.5 68.5z" />
<glyph unicode="\" horiz-adv-x="819" d="M70 1389q0 22 26 22h62q28 0 41.5 -12.5t23.5 -48.5q284 -770 672 -1723q4 -16 4 -22q0 -8 -9.5 -14.5t-21.5 -6.5h-65q-39 0 -58 54q-322 868 -657 1697q-18 42 -18 54z" />
<glyph unicode="]" horiz-adv-x="894" d="M90 1309q0 34 27 53.5t73 19.5q44 0 111 -6q73 -8 145 -8q39 0 101 4q53 6 80 6q28 0 39.5 -20.5t11.5 -67.5q0 -12 -4 -160q-4 -66 -4 -335v-619q0 -268 4 -334q4 -152 4 -161q0 -49 -12 -69t-41 -20q-17 0 -78 7q-58 4 -96 4q-71 0 -148 -6q-82 -7 -115 -7 q-43 0 -69.5 20t-26.5 54q0 66 101 66q27 0 110 -11q86 -8 119 -8q43 0 59.5 12.5t22.5 47.5q16 98 16 399v631q0 329 -18 411q-6 26 -24.5 37t-59.5 11q-18 0 -115 -9q-57 -8 -119 -8q-44 0 -69 17.5t-25 48.5z" />
<glyph unicode="^" horiz-adv-x="1024" d="M49 682l391 688h144l391 -688h-156l-309 524l-307 -524h-154z" />
<glyph unicode="_" horiz-adv-x="1024" d="M0 -135h1024v-101h-1024v101z" />
<glyph unicode="`" horiz-adv-x="1007" d="M274 1364q0 32 21 54t51 22q22 0 60 -23l258 -160q43 -26 43 -55q0 -20 -12 -33.5t-31 -13.5q-15 0 -27 6l-291 125q-72 32 -72 78z" />
<glyph unicode="a" horiz-adv-x="1155" d="M61 266q0 79 38.5 144.5t107.5 105.5q53 29 99 40.5t157 23.5q162 18 211 43q29 17 46 50.5t17 74.5q0 55 -18.5 89.5t-59.5 57.5q-61 37 -141 37q-71 0 -138 -31t-67 -65q0 -7 21 -21q28 -21 28 -67q0 -40 -30.5 -67.5t-75.5 -27.5q-53 0 -89 36.5t-36 90.5 q0 114 114 195.5t275 81.5q191 0 295 -107q80 -83 80 -250v-413q0 -87 3.5 -114.5t16.5 -47.5q17 -27 52 -27q38 0 55.5 31.5t17.5 99.5v101q0 31 17.5 48t48.5 17q34 0 49.5 -23t15.5 -75v-10l-2 -117q-3 -94 -57 -145.5t-151 -51.5q-86 0 -136.5 35.5t-72.5 110.5 q-54 -79 -133 -116.5t-193 -37.5q-165 0 -265 82.5t-100 218.5zM227 270q0 -79 56 -124.5t153 -45.5q137 0 215.5 74.5t81.5 206.5l2 145q-41 -41 -98.5 -59t-177.5 -29q-120 -12 -176 -52.5t-56 -115.5z" />
<glyph unicode="b" horiz-adv-x="1155" d="M-47 1323q0 70 82 70q9 0 90 -9q40 -4 53 -4q28 0 62 6q47 7 63 7q45 0 45 -58q0 -10 -8 -116q-6 -72 -12 -318q68 87 136 122.5t169 35.5q204 0 325 -143.5t121 -383.5q0 -258 -129 -412.5t-346 -154.5q-107 0 -180.5 38t-124.5 120q8 -49 8 -68q0 -32 -19.5 -51.5 t-51.5 -19.5q-40 0 -55 22t-15 82q0 10 4 141q8 290 8 365v438q0 105 -5 153.5t-18 67.5t-42 19q-8 0 -54 -10q-30 -5 -39 -5q-29 0 -48 19t-19 47zM330 520q0 -121 6.5 -171t28.5 -101q29 -69 93.5 -108.5t147.5 -39.5q140 0 222.5 112t82.5 302q0 189 -78 299.5 t-210 110.5q-74 0 -137 -33.5t-103 -93.5q-29 -44 -41 -106t-12 -171z" />
<glyph unicode="c" horiz-adv-x="1044" d="M80 502q0 252 133 403.5t354 151.5q161 0 269 -90t108 -224q0 -77 -41.5 -125.5t-107.5 -48.5q-49 0 -84 31.5t-35 75.5q0 37 25 62t65 30h4h4q2 2 4 2q-5 54 -35 84q-33 31 -81.5 49.5t-100.5 18.5q-143 0 -229 -114t-86 -304q0 -186 83 -295t224 -109q89 0 156 52 t92 141q15 59 20.5 74t16.5 24q22 25 51 25q35 0 57.5 -23t22.5 -57q0 -39 -21.5 -95.5t-54.5 -107.5q-56 -80 -147 -124t-201 -44q-209 0 -337 147.5t-128 389.5z" />
<glyph unicode="d" horiz-adv-x="1228" d="M80 514q0 246 126 395.5t333 149.5q202 0 303 -158v207q0 97 -12.5 131.5t-47.5 34.5q-23 0 -47 -8q-24 -6 -47 -6q-34 0 -55 18t-21 47q0 31 28.5 49.5t74.5 18.5q13 0 59 -4q12 -1 27.5 -2t25.5 -2t15 -1q31 0 51 2q9 1 21.5 2t21 2t12.5 1q34 0 46 -17.5t12 -66.5 q0 -36 -9 -289q-4 -126 -4 -154v-202q3 -442 6 -463q5 -45 17 -61.5t41 -16.5q11 0 43 4q36 4 47 4q31 0 51.5 -19.5t20.5 -48.5q0 -30 -26.5 -49.5t-66.5 -19.5q-24 0 -59 6q-41 6 -63 6q-21 0 -48 -6t-45 -6q-29 0 -42 18t-13 58l2 43q-110 -146 -315 -146 q-207 0 -335 151.5t-128 397.5zM246 512q0 -189 84.5 -300.5t228.5 -111.5q83 0 147.5 36.5t96.5 101.5q22 44 29.5 102t7.5 172q0 123 -11 184.5t-41 106.5q-38 55 -102 88t-133 33q-145 0 -226 -109t-81 -303z" />
<glyph unicode="e" horiz-adv-x="1081" d="M80 498q0 249 135 404t352 155q192 0 318.5 -129t126.5 -324q0 -82 -10 -98.5t-60 -16.5h-653q-25 0 -34 -6t-9 -26q0 -153 91.5 -255t229.5 -102q147 0 226 105q21 26 27.5 41t27.5 86q16 49 70 49q34 0 54.5 -21t20.5 -55q0 -39 -21 -89t-54 -91q-62 -75 -159.5 -117.5 t-209.5 -42.5q-215 0 -342 144t-127 389zM268 655q0 -17 9 -22.5t36 -5.5h488q25 0 35 5.5t10 20.5q0 25 -11 62t-26 65q-37 69 -98.5 105.5t-139.5 36.5q-79 0 -147 -37t-111 -103q-20 -28 -32.5 -65t-12.5 -62z" />
<glyph unicode="f" horiz-adv-x="708" d="M35 63q0 28 21 48t50 20q24 0 48 -8q27 -6 47 -6q28 0 37 12q17 26 21 193l3 307v205q0 22 -7.5 30t-29.5 8h-102q-32 0 -52 20t-20 54t19.5 53t54.5 19h117q11 0 18.5 7t7.5 19v39q0 161 86 247.5t246 86.5q127 0 205 -53t78 -139q0 -44 -28.5 -73.5t-72.5 -29.5 q-40 0 -67 25.5t-27 62.5q0 30 19 54q-20 18 -42 25t-59 7q-89 0 -139.5 -57t-50.5 -156v-39q0 -15 6 -20.5t20 -5.5h162q28 0 47 -21t19 -53q0 -31 -19.5 -51.5t-48.5 -20.5h-149q-22 0 -29.5 -8t-7.5 -30v-216q0 -407 6 -452q6 -49 45 -49q3 0 10 1t19 3l24 4q24 6 43 6 q31 0 50.5 -19.5t19.5 -48.5q0 -31 -23.5 -51t-60.5 -20q-20 0 -88 10q-47 6 -123 6q-68 0 -111 -6q-85 -10 -104 -10q-38 0 -63 20t-25 51z" />
<glyph unicode="g" horiz-adv-x="1118" d="M55 -61q0 165 189 235q-91 35 -128.5 80t-37.5 117q0 144 166 196q-56 71 -56 168q0 137 108.5 229.5t270.5 92.5q52 0 119 -17q5 80 37 119q32 40 84.5 62t112.5 22q94 0 157.5 -50t63.5 -124q0 -51 -31.5 -86t-75.5 -35q-32 0 -57 23.5t-25 54.5q0 19 9.5 33.5 t35.5 34.5q-33 41 -84 41q-108 0 -108 -138q156 -108 156 -278q0 -139 -107 -234.5t-264 -95.5q-113 0 -236 53q-37 15 -55 15q-29 0 -51.5 -26.5t-22.5 -61.5q0 -27 18 -50.5t48 -35.5q56 -19 149 -19l86 2q177 0 303 -37q113 -34 178.5 -109t65.5 -171 q0 -145 -140.5 -231.5t-375.5 -86.5q-231 0 -366.5 83.5t-135.5 224.5zM221 -51q0 -85 92 -133.5t250 -48.5q162 0 257 49t95 133q0 85 -90.5 132.5t-253.5 47.5q-160 0 -255 -49t-95 -131zM348 725q0 -88 61.5 -144.5t157.5 -56.5q104 0 170 54.5t66 142.5q0 86 -66 143.5 t-166 57.5q-94 0 -158.5 -57t-64.5 -140z" />
<glyph unicode="h" d="M18 1323q0 29 24.5 49.5t59.5 20.5q12 0 70 -4q51 -7 80 -7q19 0 51 4q10 1 29 3t26 2q16 0 29 -13q7 -9 12 -28t2 -27l-2 -4l-6 -397q80 77 147.5 107t161.5 30q175 0 282.5 -100.5t107.5 -264.5v-342q0 -143 10.5 -189t44.5 -46q13 0 47 6q12 4 35 4q34 0 52.5 -18 t18.5 -50q0 -67 -98 -67q-34 0 -78 6q-106 12 -141 12q-36 0 -80 -6q-94 -12 -104 -12h-3q-34 0 -58 21q-26 22 -25 53q0 28 20 46.5t49 18.5q23 0 56 -10q21 -6 34 -6q62 0 62 133l2 96q2 39 2 88v111q0 123 -8 179.5t-31 100.5q-28 50 -84 78.5t-125 28.5q-72 0 -137 -31 t-100 -82q-27 -41 -39 -95t-13 -149l-2 -147q-2 -41 -2 -80q0 -138 12.5 -185.5t47.5 -47.5q21 0 45 6q24 8 49 8q26 0 44.5 -19t18.5 -45q0 -34 -23.5 -52.5t-66.5 -18.5q-40 0 -86 6q-92 10 -133 10q-37 0 -96 -6q-72 -10 -105 -10q-36 0 -60 21t-24 53q0 29 20 45t56 16 q13 0 41 -4q38 -6 53 -6q35 0 43 78t13 452v152q0 109 -1 178t-4 126t-7 86t-12.5 49t-19 26t-26.5 6q-19 0 -43 -6q-28 -7 -47 -7q-29 0 -48.5 18.5t-19.5 47.5z" />
<glyph unicode="i" horiz-adv-x="634" d="M33 61q0 29 19.5 48.5t49.5 19.5q24 0 48 -6q30 -6 53 -6q18 0 28.5 11t16.5 47.5t8 92.5t2 158v168q0 101 -2 157.5t-9 92t-18 46.5t-30 11q-8 0 -54 -8q-21 -6 -41 -6q-31 0 -51 18.5t-20 46.5q0 32 24.5 51t65.5 19q19 0 55 -4q58 -6 86 -6q11 0 43 4q37 6 58 6 q25 0 41 -21t16 -55q0 -30 -2 -53q-8 -90 -8 -299v-168q0 -74 0.5 -119.5t3 -83.5t5.5 -56.5t10 -31.5t15 -16.5t21 -3.5q6 0 53 10q24 4 33 4q34 0 55 -19.5t21 -48.5t-26 -49t-62 -20q-22 0 -97 10q-44 8 -106 8q-66 0 -115 -8q-85 -10 -112 -10q-35 0 -56.5 19t-21.5 50z M190 1251q0 43 33.5 76t77.5 33q47 0 83 -34.5t36 -80.5t-33.5 -80.5t-79.5 -34.5t-81.5 37t-35.5 84z" />
<glyph unicode="j" horiz-adv-x="595" d="M-231 -201q0 51 30 84t76 33q38 0 65 -24.5t27 -61.5q0 -44 -37 -78q57 -41 113 -41q146 0 190 113q15 37 20 87t5 173q0 133 2 350v203q0 193 -10 227q-4 17 -19 28t-32 11t-62 -10q-24 -4 -37 -4q-31 0 -48 17t-17 46q0 70 84 70q37 0 55 -2q70 -6 90 -6q10 0 60 4 q40 4 51 4q53 0 53 -66q0 -14 -4 -100q-1 -23 -5.5 -171t-4.5 -175v-143q0 -80 2 -318v-22q0 -171 -45 -263q-42 -86 -126.5 -134t-189.5 -48q-123 0 -204.5 61.5t-81.5 155.5zM197 1251q0 43 33 76t77 33q47 0 83 -34.5t36 -80.5t-33.5 -80.5t-79.5 -34.5t-81 37t-35 84z " />
<glyph unicode="k" horiz-adv-x="1267" d="M18 59q0 32 20.5 50t55.5 18q13 0 41 -4q30 -6 49 -6q46 0 52 78q6 66 10 397v235q0 261 -8 375q-3 34 -16.5 53t-35.5 19q-18 0 -39 -6q-46 -11 -59 -11q-29 0 -48.5 18.5t-19.5 47.5q0 31 22.5 50.5t57.5 19.5q18 0 58 -4q13 -1 36 -3t31 -2q1 0 51 5q47 6 60 6 q47 0 57 -33q5 -15 5.5 -65t0.5 -336v-443l351 328q20 20 20 35q0 9 -8 14.5t-19 5.5q-22 0 -49 -6q-54 -8 -69 -8q-34 0 -53 17t-19 46q0 34 23.5 53t66.5 19q15 0 55 -4q153 -14 213 -14q45 0 156 16q32 4 49 4q47 0 72.5 -18.5t25.5 -51.5q0 -28 -19.5 -46.5t-47.5 -18.5 q-15 0 -55 4q-16 4 -39 4q-53 0 -107 -51l-215 -199q-22 -20 -22 -31q0 -10 18 -32l262 -338q56 -72 87 -100.5t54 -28.5q14 0 44 6q20 4 30 4q32 0 52 -18.5t20 -49.5q0 -32 -25 -49.5t-69 -17.5q-32 0 -72 6q-114 12 -149 12q-39 0 -82 -6q-71 -12 -105 -12t-56 19t-22 50 q0 29 21 47.5t53 18.5q15 0 74 -12h8q16 0 16 12q0 6 -47 80l-205 272q-13 18 -19 22.5t-15 4.5q-8 0 -31 -21l-152 -135v-47q0 -113 11 -147.5t47 -34.5q23 0 37 2q32 4 43 4q29 0 47 -18.5t18 -49.5t-21.5 -49t-56.5 -18q-28 0 -96 10q-52 8 -115 8q-61 0 -110 -8 q-75 -10 -103 -10q-37 0 -59.5 19t-22.5 48z" />
<glyph unicode="l" horiz-adv-x="632" d="M18 66q0 26 20.5 44.5t49.5 18.5l33 -2q47 -8 61 -8q25 0 36 14.5t15.5 54.5t4.5 127q2 59 2 144l4 174q2 39 2 143v258q0 103 -5.5 151.5t-18.5 67.5t-42 19q-7 0 -53 -10q-30 -5 -39 -5q-29 0 -48.5 19t-19.5 47q0 70 82 70q9 0 88 -9q46 -4 56 -4q26 0 61 6q47 7 64 7 q45 0 45 -60q0 -18 -2 -30q-15 -225 -15 -447v-205q0 -419 7 -471q9 -65 51 -65q8 0 53 10q24 4 35 4q28 0 46.5 -20.5t18.5 -49.5q0 -28 -24 -47.5t-58 -19.5q-24 0 -112 10q-44 6 -107 6q-46 0 -96 -4q-83 -12 -111 -12q-35 0 -59.5 21.5t-24.5 52.5z" />
<glyph unicode="m" horiz-adv-x="1900" d="M33 63q0 26 23 44t55 18q12 0 75 -12q4 -2 9 -2q15 0 31 12t20 27q12 42 12 344v147q0 63 -0.5 100.5t-3 70t-6 47.5t-11 26t-16 13.5t-22.5 2.5q-7 0 -58 -10q-20 -4 -35 -4q-34 0 -53.5 18t-19.5 47q0 31 23 50.5t61 19.5q7 0 61 -4q23 -4 66 -4q25 0 88 8h6 q23 0 36 -16.5t13 -44.5v-58q61 69 88 90q84 64 217 64q201 0 293 -154q71 86 143.5 121t182.5 35q188 0 293 -117q49 -52 66.5 -115.5t17.5 -185.5v-199l-2 -153q0 -105 10.5 -140.5t42.5 -35.5q6 0 53 8q24 4 37 4q29 0 49 -19t20 -45q0 -29 -23 -49t-58 -20q-31 0 -78 6 q-55 8 -113 8q-53 0 -110 -8q-56 -6 -93 -6t-61.5 19.5t-24.5 49.5q0 26 20 45t46 19q17 0 41 -6q24 -4 35 -4q39 0 45 53q6 35 7 70.5t3 210.5v137q0 96 -7.5 145.5t-27.5 89.5q-25 50 -79.5 79.5t-121.5 29.5q-64 0 -119 -28t-83 -73q-45 -75 -45 -278v-145 q0 -66 0.5 -108.5t3 -77t6 -53t10.5 -31t15 -16t20 -3.5t47 6q10 4 29 4q26 0 45.5 -20t19.5 -48q0 -32 -25 -49.5t-69 -17.5q-24 0 -74 4q-89 12 -112 12q-38 0 -93 -8q-44 -8 -90 -8q-37 0 -60.5 19t-23.5 50q0 26 18 45t44 19q9 0 37 -4q24 -6 43 -6q25 0 36 25t13 79 l2 96q1 31 2 61.5t1.5 46.5t0.5 19v168q0 101 -6 144t-25 77q-26 45 -76.5 71t-111.5 26q-62 0 -117.5 -26.5t-87.5 -72.5q-35 -46 -48 -105t-13 -173v-270q0 -97 9.5 -131.5t37.5 -34.5q16 0 43 8l26 2q35 0 58.5 -19.5t23.5 -48.5q0 -28 -26 -46.5t-66 -18.5q-34 0 -86 6 q-57 8 -123 8q-30 0 -88 -4q-78 -10 -108 -10q-34 0 -57 20t-23 51z" />
<glyph unicode="n" d="M33 61q0 28 18.5 47t46.5 19q11 0 39 -4q27 -8 53 -8q29 0 44 22t20 70q0 12 2 102q0 21 2 150v164q0 115 -6 198q-3 38 -19.5 59t-42.5 21q-14 0 -51 -6q-10 -4 -30 -4q-76 0 -76 67q0 31 23.5 48.5t66.5 17.5q14 0 22 -2q95 -10 99 -10q3 0 35 4q34 6 59 6 q23 0 39 -17.5t16 -43.5v-58q53 63 92 90q40 28 107 46t129 18q83 0 161 -33t134 -92q76 -79 76 -252v-389q0 -106 10.5 -140t44.5 -34q21 0 45 6q32 4 45 4q28 0 47 -19t19 -45q0 -30 -24 -50.5t-58 -20.5q-42 0 -97 8q-49 8 -123 8q-34 0 -88 -4q-77 -12 -108 -12 q-34 0 -57 20t-23 51q0 29 18.5 46.5t49.5 17.5q14 0 38 -4q49 -8 50 -8q18 0 30 12t15 33q12 55 12 297v155q0 90 -7.5 134.5t-29.5 78.5q-28 47 -84 75t-123 28q-72 0 -134.5 -31.5t-96.5 -85.5q-29 -46 -40 -103t-11 -167v-168q2 -148 3.5 -176t8.5 -47q15 -37 45 -37 q20 0 47 8q21 8 47 8t44 -20.5t18 -49.5t-22.5 -48t-59.5 -19q-33 0 -107 12q-50 6 -100 6q-63 0 -115 -8q-72 -10 -102 -10q-38 0 -62 19t-24 50z" />
<glyph unicode="o" horiz-adv-x="1118" d="M80 518q0 245 131 393t348 148q131 0 222 -43t155 -137q104 -144 104 -363q0 -250 -134 -400.5t-357 -150.5q-215 0 -342 149.5t-127 403.5zM246 512q0 -192 81 -302t222 -110q155 0 240 109.5t85 306.5q0 180 -73 295q-72 113 -240 113q-163 0 -244 -129 q-33 -52 -52 -128t-19 -155z" />
<glyph unicode="p" horiz-adv-x="1228" d="M18 -293q0 26 20 45t48 19q13 0 41 -4q30 -9 51 -9q26 0 38 19.5t15 70.5q4 20 13 623v174q0 83 -2.5 131.5t-9 78t-17.5 39t-29 9.5q-12 0 -43 -8q-24 -6 -47 -6q-33 0 -54.5 18.5t-21.5 46.5q0 31 25 49.5t66 18.5q31 0 49 -2q66 -4 78 -4q37 0 53 2q40 4 47 4 q53 0 53 -57v-66q57 83 133.5 121.5t182.5 38.5q204 0 324 -142t120 -385q0 -258 -129 -412.5t-344 -154.5q-177 0 -287 125v-170q0 -95 13.5 -130.5t48.5 -33.5q13 0 49 8q35 5 39 5q28 0 46.5 -19.5t18.5 -48.5t-24.5 -48.5t-61.5 -19.5q-34 0 -92 9q-58 6 -135 6 q-42 0 -82 -4q-23 -2 -48.5 -4t-40 -3.5t-20.5 -1.5q-35 0 -59.5 20.5t-24.5 51.5zM399 465q0 -96 8 -143t31 -91q34 -63 95.5 -97t142.5 -34q148 0 228.5 108.5t80.5 307.5q0 196 -75.5 302t-215.5 106q-87 0 -158.5 -47t-103.5 -125q-33 -87 -33 -287z" />
<glyph unicode="q" horiz-adv-x="1155" d="M80 516q0 123 36.5 233.5t100.5 182.5q115 127 309 127q103 0 176 -35.5t140 -118.5q-2 20 -2 39q0 40 18.5 63t50.5 23q37 0 53.5 -24.5t16.5 -79.5l-8 -410v-268q0 -125 4.5 -268.5t9.5 -165.5q13 -58 55 -58q4 0 54 8q30 5 34 5q28 0 46 -19t18 -51q0 -29 -21 -47.5 t-55 -18.5q-25 0 -90 7q-52 8 -131 8q-61 0 -111 -6q-70 -9 -106 -9q-34 0 -56 19.5t-22 48.5t19.5 47.5t48.5 18.5q9 0 82 -11q4 -2 14 -2q32 0 42.5 46.5t10.5 189.5v92q-60 -62 -126 -89.5t-156 -27.5q-204 0 -329.5 152t-125.5 399zM246 520q0 -197 77.5 -308.5 t213.5 -111.5q82 0 146.5 38t98.5 106q35 66 35 198q0 241 -39 320q-34 75 -100 118.5t-148 43.5q-132 0 -208 -108t-76 -296z" />
<glyph unicode="r" horiz-adv-x="1005" d="M31 63q0 28 23 47t55 19q10 0 30 -4q48 -10 60 -10q47 0 53 71q6 62 6 256v136q0 144 -10 241q-4 43 -18 61.5t-40 18.5q-21 0 -45 -6t-47 -6q-31 0 -48 17t-17 48q0 32 23.5 51t64.5 19q15 0 55 -4q54 -4 66 -4q17 0 53 4t43 4q22 0 36.5 -16t14.5 -41v-56 q62 80 127 114t160 34q141 0 230 -80t89 -209q0 -89 -44.5 -145t-116.5 -56q-47 0 -80 28.5t-33 68.5q0 34 24 59t56 25q3 0 12 -2t14 -3q15 30 15 45q0 58 -54 99t-129 41q-136 0 -200 -113q-47 -84 -47 -295v-135q0 -163 12.5 -216.5t52.5 -53.5q24 0 55 8q21 6 39 6 q29 0 48.5 -19t19.5 -47q0 -29 -24 -50t-56 -21q-23 0 -102 12q-46 4 -99 4q-86 0 -129 -6q-92 -10 -118 -10q-33 0 -56.5 20.5t-23.5 50.5z" />
<glyph unicode="s" horiz-adv-x="1007" d="M88 356q0 32 18.5 52t47.5 20q41 0 61 -33q4 -10 8 -96q3 -89 91.5 -144t228.5 -55q100 0 165.5 51.5t65.5 129.5q0 71 -53.5 110t-167.5 49q-102 12 -157 24.5t-117 37.5q-158 65 -158 233q0 144 108.5 234t282.5 90q76 0 128.5 -16.5t102.5 -55.5v8q3 42 17.5 59 t48.5 17q31 0 49.5 -18t18.5 -47q0 -20 -7 -64q-6 -44 -6 -80q0 -21 4 -71q9 -46 9 -74q0 -34 -19.5 -55t-50.5 -21q-37 0 -53 29q-8 13 -10 26.5t-5 77.5q-3 62 -71 106t-160 44q-95 0 -158 -49t-63 -123q0 -31 12.5 -58.5t32.5 -42.5q37 -28 68.5 -36.5t185.5 -30.5 q179 -25 263.5 -95.5t84.5 -193.5q0 -148 -113.5 -239t-296.5 -91q-90 0 -158 22t-135 74q1 -10 3 -22t2 -16q0 -32 -20 -53t-52 -21t-53 23.5t-21 58.5q0 18 8 88q8 44 8 82q0 30 -10 88q-8 54 -8 67z" />
<glyph unicode="t" horiz-adv-x="819" d="M14 944q0 29 21 51.5t47 22.5h82q35 0 35 39v211q0 34 21.5 56t55.5 22t54 -21.5t20 -56.5v-219q0 -19 7 -25t30 -6h223q35 0 56.5 -20t21.5 -52q0 -34 -23 -54t-61 -20h-225q-29 0 -29 -43v-503q0 -114 34.5 -165.5t109.5 -51.5q67 0 108 48t41 126v63q0 90 15.5 122 t58.5 32q76 0 76 -101q0 -182 -35 -260q-32 -81 -105 -123.5t-178 -42.5q-160 0 -229 105q-31 44 -42 99.5t-11 158.5v493q0 25 -8.5 34t-30.5 9h-66q-31 0 -52.5 20.5t-21.5 51.5z" />
<glyph unicode="u" horiz-adv-x="1267" d="M0 956q0 29 24 47.5t64 18.5q17 0 53 -4q62 -4 68 -4q16 0 63 6q14 2 39 2q32 0 47 -18.5t15 -59.5q0 -22 -8 -326v-133q0 -221 45 -288q29 -46 85 -71.5t126 -25.5q85 0 152 40t95 106q20 47 25.5 101.5t5.5 199.5v115q0 76 -2 118t-7.5 69t-15 35.5t-26.5 8.5 q-7 0 -39 -4q-10 -2 -27 -2q-31 0 -50 18t-19 47q0 31 22.5 50.5t57.5 19.5l51 -2q54 -4 65 -4q14 0 60 4q14 2 37 2q61 0 61 -66q0 -11 -4 -47q-10 -117 -10 -227v-315q0 -148 12 -198t47 -50q18 0 45 6q28 4 39 4q31 0 49.5 -18.5t18.5 -49.5q0 -32 -23 -50.5t-63 -18.5 q-18 0 -54 4q-41 8 -63 8q-16 0 -43 -6q-24 -6 -43 -6q-25 0 -41 17t-16 42v64q-62 -80 -136 -115t-186 -35q-114 0 -202 39.5t-134 110.5q-34 53 -41.5 104.5t-7.5 229.5v169q0 166 -16 240q-4 19 -15.5 30t-25.5 11q-15 0 -45 -6q-24 -4 -37 -4q-34 0 -53 17.5t-19 49.5z " />
<glyph unicode="v" horiz-adv-x="1230" d="M-23 946q0 35 24.5 54.5t70.5 19.5q14 0 112 -12q54 -4 84 -4q51 0 170 14q10 2 31 2q41 0 64.5 -19t23.5 -53q0 -29 -21 -47t-55 -18q-16 0 -82 12h-4q-14 0 -23.5 -9t-9.5 -22q0 -17 23 -84l242 -639l229 639q23 59 23 74q0 43 -43 43q-23 0 -50 -6q-50 -8 -51 -8 q-28 0 -46.5 19t-18.5 48q0 34 25.5 53t68.5 19q19 0 123 -12q46 -4 57 -4q59 0 137 10q53 6 88 6q39 0 61.5 -19t22.5 -53q0 -29 -19.5 -47t-51.5 -18q-13 0 -33 4q-31 8 -45 8q-20 0 -37 -22.5t-39 -77.5l-289 -736q-37 -94 -125 -94q-40 0 -71.5 25t-48.5 69l-295 756 q-29 80 -63 80h-3q-9 0 -45 -8q-19 -8 -45 -8q-29 0 -47.5 18t-18.5 47z" />
<glyph unicode="w" horiz-adv-x="1640" d="M-23 954q0 34 24.5 52t68.5 18q12 0 110 -14q41 -6 78 -6q35 0 129 8q95 10 109 10q88 0 88 -72q0 -31 -19.5 -48t-54.5 -17q-26 0 -53 6q-34 6 -56 6q-20 0 -34.5 -17t-14.5 -42q0 -50 15 -101l149 -622l160 721q25 113 54.5 151.5t90.5 38.5q63 0 93 -38.5t55 -151.5 l153 -721l150 622q4 17 10 57t6 52q0 23 -12.5 38t-32.5 15q-21 0 -51 -6q-31 -8 -62 -8q-32 0 -52.5 19t-20.5 48q0 34 26 53t72 19q17 0 117 -12q50 -4 104 -4q68 0 174 14q8 2 25 2q40 0 63 -19t23 -53q0 -29 -18.5 -47t-47.5 -18q-12 0 -36 4q-36 4 -41 4q-30 0 -48 -37 q-20 -37 -65 -190l-139 -527q-25 -95 -58 -133.5t-90 -38.5t-91 40.5t-54 131.5l-154 727l-160 -714q-23 -104 -56.5 -145.5t-94.5 -41.5q-94 0 -129 127l-168 643q-35 120 -45.5 140t-36.5 20q-18 0 -39 -6q-24 -6 -47 -6q-30 0 -48 18.5t-18 50.5z" />
<glyph unicode="x" d="M6 63q0 31 20.5 48.5t55.5 17.5q23 0 37 -2q28 -4 35 -4q24 0 46 16t64 64l285 327l-285 336q-26 33 -69 33q-11 0 -58 -10q-24 -4 -33 -4q-28 0 -46.5 18.5t-18.5 46.5q0 32 23 51t61 19q41 0 108 -6q49 -6 86 -6q48 0 111 8q52 6 90 6q37 0 59.5 -20t22.5 -52 q0 -28 -21 -45.5t-55 -17.5q-21 0 -63 10q-4 2 -12 2q-9 0 -9 -4q0 -7 19 -29l188 -225l193 225q18 18 18 29q0 4 -8 4q-4 0 -35 -8q-21 -6 -41 -6q-31 0 -50 19.5t-19 51.5q0 66 86 66q18 0 108 -8q55 -6 94 -6q56 0 113 8q49 6 82 6q43 0 66.5 -18t23.5 -52q0 -67 -70 -67 q-19 0 -43 6q-50 8 -53 8q-28 0 -58 -21t-77 -75l-236 -271l318 -376q27 -35 69 -35q5 0 41 4q24 4 37 4q33 0 52.5 -18t19.5 -48q0 -34 -23 -52.5t-63 -18.5q-8 0 -96 10q-66 4 -101 4q-57 0 -182 -14q-8 -2 -25 -2q-44 0 -69 17.5t-25 49.5t21.5 52t56.5 20q19 0 74 -8 q6 -2 14 -2q21 0 21 14q0 8 -13 23l-227 266l-231 -266q-15 -15 -15 -25t21 -10q19 0 49 6q14 2 37 2q41 0 64.5 -18.5t23.5 -49.5q0 -69 -88 -69q-27 0 -111 8q-61 6 -108 6q-30 0 -88 -4q-78 -10 -101 -10q-40 0 -64 19.5t-24 51.5z" />
<glyph unicode="y" horiz-adv-x="1230" d="M-53 -197q0 61 38 101.5t95 40.5q47 0 77.5 -28t30.5 -71q0 -64 -59 -82q33 -47 117 -47q145 0 233 129q49 73 49 136q0 31 -10 66.5t-45 123.5l-225 569q-7 17 -16 41t-9 25q-20 51 -37.5 71.5t-42.5 20.5q-7 0 -43 -8q-24 -6 -45 -6q-29 0 -49 18.5t-20 46.5 q0 34 25 53t69 19q23 0 129 -12q10 -2 45 -2q88 0 154 8q58 6 88 6q37 0 59.5 -19.5t22.5 -50.5q0 -30 -21 -47.5t-57 -17.5q-9 0 -37 4q-27 6 -43 6q-11 0 -19 -8.5t-8 -20.5q0 -17 8 -41l236 -692l250 680q10 30 10 47q0 35 -47 35q-11 0 -39 -4q-40 -4 -47 -4 q-25 0 -44.5 19.5t-19.5 45.5q0 31 24 49.5t64 18.5q19 0 115 -12q36 -4 64 -4q33 0 123 8q41 8 77 8q43 0 66.5 -18t23.5 -52q0 -29 -18 -47t-49 -18q-11 0 -31 4q-27 6 -39 6q-22 0 -37.5 -21t-40.5 -81l-278 -699q-56 -140 -91 -207t-83 -129q-64 -84 -156 -131t-192 -47 q-125 0 -210 63.5t-85 157.5z" />
<glyph unicode="z" horiz-adv-x="1081" d="M72 109q0 53 49 102l667 676h-311q-79 0 -121.5 -2t-69 -9t-33.5 -17t-7 -30q0 -6 4 -38q10 -62 10 -97t-19.5 -57.5t-50.5 -22.5q-33 0 -51 24t-18 67q0 17 4 53q8 78 8 86q0 24 -6 61q-8 36 -8 62q0 63 102 63q26 0 49 -2q141 -6 250 -6h346q75 0 99 -21q34 -24 34 -73 q0 -26 -15 -50t-62 -71l-662 -670h485q37 0 68.5 7.5t40.5 17.5q12 12 12 49v37q0 41 -2 57q-6 53 -6 74q0 35 21.5 58.5t52.5 23.5q29 0 46 -21.5t17 -58.5q0 -16 -4 -70q-6 -64 -6 -106t2 -62q6 -46 6 -69q0 -37 -23.5 -57.5t-66.5 -20.5l-125 4h-119h-471q-51 0 -83.5 31 t-32.5 78z" />
<glyph unicode="{" horiz-adv-x="1005" d="M92 514q0 31 22.5 49.5t61.5 18.5q10 0 47 -4q12 -3 21 -3q38 0 66 18.5t40 51.5q9 27 12 57.5t3 110.5v141q0 150 19.5 223.5t76.5 131.5q94 98 307 98q93 0 133.5 -18.5t40.5 -59.5q0 -32 -26.5 -49.5t-73.5 -17.5q-33 0 -56 2q-25 2 -63 2q-121 0 -165 -64t-44 -239 v-168q0 -109 -7 -156t-27 -73t-70 -54q50 -27 70 -53.5t27 -73.5t7 -156v-194q0 -104 9.5 -153.5t35.5 -86.5q48 -63 160 -63q36 0 67 2q20 2 54 2q102 0 102 -66q0 -43 -41 -61.5t-137 -18.5q-224 0 -318 113q-47 57 -64 128.5t-17 213.5v166q0 127 -15 168 q-12 32 -39.5 51t-64.5 19q-4 0 -7.5 -0.5t-13 -1t-24.5 -1.5q-8 -2 -25 -2q-39 0 -61.5 19t-22.5 51z" />
<glyph unicode="|" horiz-adv-x="1024" d="M442 -342v1708h142v-1708h-142z" />
<glyph unicode="}" horiz-adv-x="1005" d="M66 -330q0 66 102 66q33 0 53 -2q29 -2 66 -2q120 0 163.5 64t43.5 239v168q0 108 7 155t27 73.5t70 53.5q-50 27 -70 54t-27 74t-7 155v195q0 108 -8.5 155.5t-36.5 83.5q-49 64 -164 64q-39 0 -64 -2q-23 -2 -55 -2q-100 0 -100 65q0 22 13 40.5t34 25.5q25 14 133 14 q221 0 315 -113q47 -55 64.5 -127.5t17.5 -212.5v-168q0 -83 2.5 -112.5t11.5 -55.5q12 -32 40 -50.5t65 -18.5q10 0 45 4q6 2 22 2q41 0 63.5 -18t22.5 -52q0 -32 -21 -50.5t-58 -18.5q-19 0 -29 2q-27 4 -43 4q-38 0 -66.5 -19t-40.5 -51q-9 -25 -11.5 -55t-2.5 -113v-139 q0 -150 -19.5 -224t-76.5 -132q-92 -99 -309 -99q-92 0 -132 18.5t-40 61.5z" />
<glyph unicode="~" horiz-adv-x="1198" d="M100 1272q63 105 101 145q79 88 170 88q41 0 90.5 -16.5t167.5 -69.5q95 -44 132 -57.5t60 -13.5q53 0 101 45t100 143l74 -68q-70 -127 -133.5 -183t-137.5 -56q-37 0 -80.5 15t-152.5 65q-120 53 -153.5 65t-63.5 12q-54 0 -98.5 -41t-102.5 -145z" />
<glyph unicode="&#xa1;" horiz-adv-x="858" d="M301 930q0 52 38 90.5t89 38.5q52 0 91.5 -40.5t39.5 -94.5q0 -50 -37 -86.5t-88 -36.5q-54 0 -93.5 38.5t-39.5 90.5zM338 -264q0 12 8 217q6 178 6 446v160v25q0 76 16 102.5t62 26.5q69 0 72 -88v-219q0 -311 8 -642q2 -18 2 -45q0 -104 -88 -104q-47 0 -66.5 27.5 t-19.5 93.5z" />
<glyph unicode="&#xa2;" d="M182 690q0 169 73 301t200 193q58 30 159 47v213q0 24 17.5 40.5t42.5 16.5q23 0 40 -17t17 -40v-209q114 -14 182 -43q86 -34 141.5 -109.5t55.5 -160.5q0 -75 -47 -128t-113 -53q-50 0 -83 30.5t-33 76.5q0 40 24.5 69t59.5 29h16q-1 54 -66 102t-137 50v-791 q99 14 152 67.5t78 166.5q11 37 28.5 53t48.5 16q38 0 62 -23.5t24 -60.5q0 -75 -55.5 -162t-130.5 -133q-69 -41 -207 -67v-227q0 -27 -15.5 -42.5t-43.5 -15.5q-26 0 -42 16t-16 42v227q-133 21 -227 82q-97 68 -151 184t-54 260zM358 690q0 -170 67.5 -271.5 t188.5 -111.5v791q-125 -28 -190.5 -132.5t-65.5 -275.5z" />
<glyph unicode="&#xa3;" d="M10 188q0 106 70.5 175t177.5 69q66 0 130 -24t151 -82q10 52 10 69q0 59 -24.5 122t-98.5 198h-272q-28 0 -46 16.5t-18 42.5t17.5 44t42.5 18h206q-45 104 -45 190q0 172 120 278.5t314 106.5q163 0 271 -84t108 -211q0 -66 -35.5 -110.5t-89.5 -44.5q-43 0 -72.5 29.5 t-29.5 70.5q0 57 57 82q17 10 17 18q0 24 -37 53q-80 68 -197 68t-192.5 -69t-75.5 -175q0 -44 15 -86.5t55 -115.5h419q23 0 40.5 -18.5t17.5 -43.5t-16 -42t-39 -17h-355q90 -142 90 -299q0 -85 -24 -164q159 -150 278 -150q86 0 140.5 55.5t54.5 143.5q0 70 -32 113 t-85 43q-54 0 -82 -39q-10 -13 -13 -22.5t-11 -51.5q-3 -20 -17 -31.5t-35 -11.5q-29 0 -47 21t-18 55q0 88 67.5 151.5t161.5 63.5q115 0 188.5 -80.5t73.5 -206.5q0 -145 -100.5 -246.5t-243.5 -101.5q-88 0 -182 49q-20 10 -139 98q-2 2 -5 4t-8.5 5.5t-11.5 7.5 q-60 -77 -146 -121.5t-175 -44.5q-121 0 -198 65t-77 168zM164 201q0 -49 34.5 -80t88.5 -31q59 0 108 29.5t78 81.5q-119 94 -219 94q-40 0 -65 -26.5t-25 -67.5z" />
<glyph unicode="&#xa4;" horiz-adv-x="1378" d="M125 1229q0 25 23.5 48t48.5 23q17 0 26 -12l174 -174q72 57 142 82t155 25q82 0 148.5 -23.5t138.5 -77.5l174 174q13 13 27 13q25 0 47 -24t22 -50q0 -17 -8 -25l-174 -174q107 -139 107 -297q0 -153 -107 -297l174 -174q10 -13 10 -26q0 -25 -22 -48.5t-47 -23.5 q-16 0 -29 10l-174 176q-134 -100 -289 -100q-84 0 -150.5 23.5t-138.5 78.5l-174 -174q-12 -12 -28 -12q-25 0 -47.5 24t-22.5 50q0 14 10 24l174 174q-56 75 -80 143.5t-24 151.5q0 80 23 148.5t77 142.5l-174 174q-12 12 -12 27zM350 743q0 -145 99.5 -245.5 t242.5 -100.5q141 0 242.5 100.5t101.5 239.5q0 140 -100.5 240t-241.5 100t-242.5 -98.5t-101.5 -235.5z" />
<glyph unicode="&#xa5;" d="M-57 1300q0 33 22.5 54.5t57.5 21.5q38 0 79 -8q94 -18 172 -18q48 0 152 20q34 6 61 6q38 0 60 -18.5t22 -50.5q0 -72 -96 -72q-41 0 -51 2h-23q-22 0 -22 -14q0 -9 10 -29l272 -535l275 535q10 17 10 31q0 20 -26 20q-2 0 -5.5 -0.5t-11 -1.5t-14.5 -2q-58 -8 -78 -8 q-35 0 -57.5 20.5t-22.5 51.5q0 32 21.5 51.5t58.5 19.5q26 0 61 -6q98 -18 164 -18q60 0 178 18q41 6 70 6q37 0 58.5 -18t21.5 -51q0 -31 -21 -50.5t-55 -19.5q-13 0 -45 4q-36 4 -45 4q-35 0 -56 -18t-55 -78l-188 -340h363q23 0 38 -16.5t15 -42.5q0 -25 -15 -41.5 t-38 -16.5h-426l-95 -170h521q23 0 38 -16t15 -41q0 -26 -15 -42.5t-38 -16.5h-525q2 -161 6 -187q14 -100 99 -100q13 0 45 4q33 8 55 8q26 0 45 -20.5t19 -49.5q0 -31 -25.5 -51t-63.5 -20q-12 0 -143 18q-60 8 -123 8q-47 0 -77 -3t-152 -21q-10 -2 -31 -2 q-39 0 -63.5 19.5t-24.5 51.5q0 28 19 48t45 20q21 0 55 -6q28 -4 43 -4q47 0 71.5 28t28.5 89q2 23 4 170h-483q-26 0 -43.5 16t-17.5 41q0 26 17.5 42.5t43.5 16.5h471l-92 170h-379q-26 0 -43.5 16.5t-17.5 41.5q0 26 16.5 42.5t44.5 16.5h315l-176 324q-37 67 -57 85.5 t-55 18.5l-37 -2q-40 -4 -54 -4q-37 0 -57 18.5t-20 50.5z" />
<glyph unicode="&#xa6;" horiz-adv-x="1024" d="M442 313h142v-655h-142v655zM442 682v684h142v-684h-142z" />
<glyph unicode="&#xa7;" d="M240 33q0 74 38 120t99 46q51 0 87 -34.5t36 -82.5q0 -34 -16.5 -57t-55.5 -43q-20 -10 -20 -21q0 -37 78.5 -71.5t160.5 -34.5q101 0 163 49t62 131q0 66 -38 104q-29 29 -64 48.5t-215 107.5q-117 59 -175 99.5t-89 86.5q-39 62 -39 125q0 70 46.5 144t131.5 139 q-61 60 -83.5 105t-22.5 108q0 140 100.5 223.5t269.5 83.5q158 0 264.5 -74t106.5 -184q0 -56 -33.5 -91.5t-85.5 -35.5q-45 0 -75.5 28.5t-30.5 69.5q0 32 15 51.5t54 38.5q-69 72 -207 72q-97 0 -152.5 -44t-55.5 -120q0 -58 34 -92q31 -32 75 -57.5t183 -89.5 q174 -78 238 -148q63 -72 63 -153q0 -149 -178 -287q74 -65 102.5 -118t28.5 -126q0 -145 -107.5 -234t-281.5 -89q-179 0 -295 87t-116 220zM424 639q0 -56 46.5 -98t176.5 -105q117 -57 162 -84q111 99 111 189q0 57 -45 97.5t-168 96.5q-125 57 -179 86 q-61 -64 -82.5 -101.5t-21.5 -80.5z" />
<glyph unicode="&#xa8;" horiz-adv-x="1007" d="M207 1288q0 46 34.5 79.5t80.5 33.5q47 0 80.5 -34t33.5 -81t-33 -81t-79 -34q-50 0 -83.5 33.5t-33.5 83.5zM571 1288q0 46 34.5 79.5t80.5 33.5q47 0 81 -34t34 -81q0 -46 -33.5 -80.5t-79.5 -34.5q-50 0 -83.5 33.5t-33.5 83.5z" />
<glyph unicode="&#xa9;" horiz-adv-x="1564" d="M55 682q0 201 98 369t267.5 265t372.5 97q144 0 276.5 -58.5t228.5 -157t153.5 -233.5t57.5 -282q0 -197 -97.5 -365t-264.5 -266t-363 -98q-197 0 -365 98t-266 266t-98 365zM150 682q0 -174 85 -322t230.5 -234.5t316.5 -86.5t317 86.5t231 234.5t85 322q0 130 -50 249 t-133.5 206t-199 138.5t-241.5 51.5q-176 0 -323.5 -85.5t-232.5 -234t-85 -325.5zM385 672q0 200 108 323t285 123q141 0 221 -86q1 0 5 -4q-5 34 -5 39q0 23 13 36t35 13q23 0 37 -15.5t14 -41.5q0 -10 -4 -60q-7 -51 -7 -81q0 -23 9 -113v-12q0 -62 -56 -62q-53 0 -53 57 l2 50q0 83 -59 134.5t-154 51.5q-123 0 -193.5 -91t-70.5 -249q0 -161 72 -252.5t200 -91.5q63 0 117 25.5t80 66.5q25 43 25 113q2 33 15 48t42 15q59 0 59 -63q0 -131 -98 -215t-250 -84q-177 0 -283 116t-106 310z" />
<glyph unicode="&#xaa;" horiz-adv-x="782" d="M39 670q0 17 20.5 27t55.5 10h561q31 0 49 -10t18 -27q0 -39 -67 -39h-561q-76 0 -76 39zM66 979q0 44 24 81.5t66 59.5q28 17 54 23t95 14q91 7 119 23q14 8 23.5 24.5t9.5 34.5q0 38 -33 64t-84 26q-26 0 -66 -14t-43 -23q0 -2 -2 -4q10 -6 19.5 -22t9.5 -27 q0 -25 -21 -44t-49 -19q-31 0 -56.5 23.5t-25.5 53.5q0 63 70.5 111.5t163.5 48.5q106 0 164.5 -53t58.5 -148v-221q0 -59 5.5 -75.5t27.5 -16.5q31 0 31 62v53q0 20 12.5 31.5t32.5 11.5q26 0 36.5 -14.5t10.5 -51.5v-63q0 -51 -35 -82t-92 -31q-87 0 -123 68 q-40 -40 -83 -57t-103 -17q-92 0 -154.5 49t-62.5 121zM180 981q0 -38 30 -60t81 -22q74 0 118 38.5t44 102.5v60q-35 -20 -56.5 -25.5t-91.5 -11.5q-66 -6 -95.5 -25.5t-29.5 -56.5z" />
<glyph unicode="&#xab;" horiz-adv-x="708" d="M88 545q0 9 8 20l203 324q10 20 29 20q26 0 26 -30q0 -17 -4 -29l-102 -303l108 -322q6 -18 6 -24q0 -12 -8 -20.5t-20 -8.5q-22 0 -33 21l-209 339q-4 8 -4 13zM348 547q0 7 8 18l203 324q13 20 31 20q26 0 26 -30q0 -13 -4 -29l-104 -303l108 -322q7 -21 7 -24 q0 -12 -8.5 -20.5t-20.5 -8.5q-19 0 -33 21l-207 339q-6 9 -6 15z" />
<glyph unicode="&#xac;" horiz-adv-x="1024" d="M47 371v129h928v-500h-141v371h-787z" />
<glyph unicode="&#xad;" horiz-adv-x="485" d="M0 547q0 32 22.5 51.5t59.5 19.5h321q35 0 58.5 -20t23.5 -49q0 -31 -23.5 -52.5t-58.5 -21.5h-321q-37 0 -59.5 20t-22.5 52z" />
<glyph unicode="&#xae;" horiz-adv-x="1564" d="M55 682q0 201 98 369t267.5 265t372.5 97q144 0 276.5 -58.5t228.5 -157t153.5 -233.5t57.5 -282q0 -197 -97.5 -365t-264.5 -266t-363 -98q-197 0 -365 98t-266 266t-98 365zM150 682q0 -174 85 -322t230.5 -234.5t316.5 -86.5t317 86.5t231 234.5t85 322q0 130 -50 249 t-133.5 206t-199 138.5t-241.5 51.5q-176 0 -323.5 -85.5t-232.5 -234t-85 -325.5zM344 317q0 20 13.5 34t33.5 14q4 0 9 -1t13 -2t13 -2q10 -2 29 -2q33 0 49 29q6 13 7 44t1 202v102q0 172 -1.5 203.5t-8.5 44.5q-12 25 -49 25q-17 0 -27 -2q-6 -1 -14 -2t-13 -2t-8 -1 q-20 0 -33.5 14t-13.5 34q0 22 18 35.5t46 13.5q6 0 86 -8q24 -3 63 -3q25 0 188 9l91 2q141 0 215.5 -54.5t74.5 -156.5q0 -101 -73 -152q-31 -22 -97 -39q61 -15 86 -57t25 -127q0 -4 -2 -55v-15q0 -43 12 -61.5t41 -18.5t42.5 23.5t13.5 75.5v12q-5 25 -5 72 q0 41 11.5 57t40.5 16q53 0 53 -57q0 -10 -2 -53v-33v-31q0 -90 -40 -133t-126 -43q-144 0 -156 125q-2 14 -2 131q0 78 -31 101.5t-131 23.5h-79q-54 0 -64 -6t-10 -35v-24q0 -114 1 -141.5t7 -47.5q6 -35 51 -35q17 0 27 2q5 1 13 2t13 2t9 1q20 0 33.5 -14.5t13.5 -35.5 q0 -22 -17.5 -35.5t-44.5 -13.5q-1 0 -90 13q-50 4 -71 4q-31 0 -152 -15q-8 -2 -20 -2q-27 0 -44.5 13.5t-17.5 35.5zM633 768q0 -19 8 -22t59 -3h84q115 0 169.5 34t54.5 106q0 129 -199 129q-49 0 -95.5 -7t-64.5 -16q-10 -6 -12 -16.5t-4 -65.5v-139z" />
<glyph unicode="&#xaf;" horiz-adv-x="1007" d="M203 1284q0 28 22 47t54 19h450q31 0 52.5 -18t21.5 -44q0 -27 -22 -47t-52 -20h-450q-33 0 -54.5 17.5t-21.5 45.5z" />
<glyph unicode="&#xb0;" d="M373 1145q0 106 80.5 185t189.5 79q116 0 201.5 -82t85.5 -194q0 -114 -81 -196.5t-192 -82.5q-114 0 -199 87t-85 204zM502 1139q0 -62 45.5 -109t105.5 -47t104 45t44 105t-46 103.5t-108 43.5q-59 0 -102 -42t-43 -99z" />
<glyph unicode="&#xb1;" d="M135 63v9q0 38 17.5 53.5t60.5 15.5h879q42 0 59.5 -16t17.5 -55q0 -70 -77 -70h-879q-78 0 -78 63zM135 750v8q0 38 17.5 53.5t60.5 15.5h369v369q0 78 63 78h8q37 0 53.5 -18.5t16.5 -59.5v-369h369q43 0 60 -16t17 -57q0 -68 -77 -68h-369v-369q0 -41 -17.5 -59 t-58.5 -18q-65 0 -65 77v369h-369q-78 0 -78 64z" />
<glyph unicode="&#xb2;" horiz-adv-x="819" d="M49 655q0 152 160 246q44 25 80.5 38.5t169.5 53.5q149 43 149 148q0 70 -55 110.5t-150 40.5q-74 0 -119.5 -23.5t-74.5 -78.5q70 -9 70 -66q0 -36 -28.5 -61t-68.5 -25q-46 0 -76 32t-30 81q0 101 98.5 170.5t241.5 69.5q142 0 231.5 -70t89.5 -180q0 -91 -57 -148 q-35 -37 -76 -56.5t-151 -53.5q-149 -46 -201 -75t-78 -83q65 41 123 41q42 0 80 -15t88 -51q55 -41 82.5 -54t56.5 -13t50 20.5t20 48.5q0 7 -2 11q-29 -13 -47 -13q-23 -1 -41.5 18t-18.5 44q0 32 26 53t64 21q53 0 85 -35t32 -92q0 -79 -53.5 -135t-130.5 -56 q-41 0 -79 16t-95 58q-53 37 -85.5 50t-72.5 13q-27 0 -41 -5t-35 -23q26 -4 36.5 -14.5t10.5 -30.5q0 -28 -20.5 -46t-52.5 -18q-46 0 -75.5 38t-29.5 99z" />
<glyph unicode="&#xb3;" horiz-adv-x="819" d="M53 760q0 59 38 100t93 41q37 0 61.5 -21.5t24.5 -54.5q0 -68 -92 -71q9 -58 73 -95.5t155 -37.5q104 0 169.5 54t65.5 140q0 69 -49.5 109.5t-130.5 36.5q-31 -2 -105 -13l-24 -2q-17 0 -28 12t-11 29q0 22 22 41l250 229h-274q-52 0 -71 -9t-19 -34q0 -4 4 -40 q2 -10 2 -31q0 -72 -53 -72q-25 0 -40.5 16.5t-15.5 42.5t2 44q2 14 2 53v43q-2 16 -2 39q0 32 15.5 44.5t52.5 12.5h147h189q53 0 88 2q29 2 76 2q82 0 82 -53q0 -14 -10 -33t-25 -31l-219 -194h14q112 0 185 -69t73 -175q0 -129 -103.5 -213t-263.5 -84q-149 0 -248.5 69 t-99.5 173z" />
<glyph unicode="&#xb4;" horiz-adv-x="1007" d="M375 1202q0 29 41 55l260 160q33 23 61 23q29 0 49.5 -20.5t20.5 -51.5q0 -51 -72 -82l-291 -125q-9 -6 -26 -6q-19 0 -31 13.5t-12 33.5z" />
<glyph unicode="&#xb6;" d="M106 1001q0 100 45.5 182.5t124.5 125.5q105 57 306 57q17 0 123 -4q118 -4 131 -4q75 0 241 20q10 2 33 2q39 0 62.5 -20t23.5 -53q0 -28 -18.5 -48t-44.5 -20q-21 0 -56 6q-32 4 -45 4q-48 0 -72 -28t-28 -91q-2 -20 -2 -417v-412q0 -112 2 -180q2 -76 2 -148 q0 -78 23 -112.5t77 -34.5q29 0 45 4q46 4 56 4q26 0 44.5 -19.5t18.5 -45.5q0 -32 -23 -51t-63 -19q-22 0 -102 12q-70 8 -97 8q-17 0 -57 -6l-31 -2q-22 0 -35.5 11t-13.5 28q0 21 8 45q15 68 15 117l2 25l2 260v964q0 52 -13.5 67t-60.5 15h-22q-47 0 -59.5 -14 t-12.5 -68v-964q0 -210 3 -281.5t15 -120.5q9 -27 9 -47q0 -17 -14 -27t-36 -10l-30 2q-40 6 -58 6q-44 0 -151 -16q-32 -4 -49 -4q-38 0 -61 19t-23 51q0 28 18.5 46.5t46.5 18.5q7 0 53 -4q16 -4 45 -4q49 0 72.5 27.5t28.5 87.5q4 78 4 360v289q0 43 -4.5 50t-30.5 7h-12 q-155 5 -255 104t-100 250z" />
<glyph unicode="&#xb7;" horiz-adv-x="559" d="M152 543q0 50 36.5 86.5t87.5 36.5q53 0 92.5 -38t39.5 -89q0 -52 -38 -90.5t-89 -38.5t-90 40t-39 93z" />
<glyph unicode="&#xb8;" horiz-adv-x="1007" d="M319 -295q0 19 14.5 34t33.5 15q13 0 21.5 -6t35.5 -35q39 -39 106 -39q46 0 76.5 22t30.5 56q0 32 -26.5 52t-67.5 20q-19 0 -31 -3t-68 -20q-12 -4 -22 -4q-11 0 -18 6.5t-7 16.5q0 1 11 33l61 147h100l-37 -98q30 6 54 6q72 0 124 -46t52 -110q0 -72 -65 -120 t-162 -48q-83 0 -149.5 37.5t-66.5 83.5z" />
<glyph unicode="&#xb9;" horiz-adv-x="819" d="M147 592q0 53 72 53l43 -2q28 -4 39 -4q43 0 49 51q4 35 4 221v90q0 104 -1 150.5t-7.5 79t-16 38t-30.5 5.5q-11 0 -39 -4l-39 -2q-25 0 -41 14t-16 37q0 22 16 36.5t41 14.5q3 0 9.5 -0.5t20 -1.5t23.5 -2q12 -2 48 -2q47 0 67 2q46 4 51 4q26 0 36.5 -13.5t10.5 -47.5 q0 -12 -6 -127q-2 -33 -2 -135v-136q0 -61 2 -108l2 -90q0 -40 11.5 -57t37.5 -17q12 0 52 4q14 2 37 2q32 0 50.5 -14t18.5 -37t-17.5 -37t-47.5 -14q-11 0 -43 4q-123 12 -162 12q-55 0 -141 -12q-41 -6 -66 -6q-29 0 -47.5 14t-18.5 37z" />
<glyph unicode="&#xba;" horiz-adv-x="782" d="M39 670q0 17 20.5 27t55.5 10h561q31 0 49 -10t18 -27q0 -39 -67 -39h-561q-76 0 -76 39zM106 1116q0 134 78.5 214.5t208.5 80.5q129 0 206 -82t77 -219t-77.5 -218t-207.5 -81q-132 0 -208.5 81.5t-76.5 223.5zM219 1110q0 -100 44 -154.5t126 -54.5q83 0 128.5 54.5 t45.5 154.5t-45 155.5t-127 55.5q-80 0 -126 -56.5t-46 -154.5z" />
<glyph unicode="&#xbb;" horiz-adv-x="708" d="M88 203q0 10 4 22l109 322l-103 303q-6 15 -6 31q0 28 27 28q21 0 31 -20l202 -324q8 -11 8 -18q0 -9 -6 -15l-207 -339q-12 -21 -32 -21q-12 0 -19.5 8.5t-7.5 22.5zM348 203q0 6 4 22l111 322l-105 303q-4 12 -4 31q0 28 27 28q18 0 31 -20l202 -324q7 -14 7 -18 q0 -5 -5 -15l-206 -339q-14 -21 -35 -21q-12 0 -19.5 8.5t-7.5 22.5z" />
<glyph unicode="&#xbc;" horiz-adv-x="1937" d="M154 592q0 53 71 53l43 -2q28 -4 39 -4q43 0 49 51q4 35 4 221v90q0 187 -8.5 230t-46.5 43q-11 0 -39 -4l-39 -2q-26 0 -41.5 14t-15.5 37q0 22 16 36.5t41 14.5q3 0 10 -0.5t20.5 -1.5t23.5 -2q12 -2 47 -2q47 0 67 2q46 4 51 4q26 0 37 -13.5t11 -47.5v-6t-0.5 -11 t-1.5 -19t-2 -35.5t-3 -55.5q-2 -33 -2 -135v-136q0 -61 2 -108l2 -90q0 -40 12 -57t38 -17q13 0 49 4q14 2 39 2q31 0 49 -14t18 -37t-17.5 -37t-47.5 -14q-11 0 -43 4q-126 12 -162 12q-57 0 -139 -12q-40 -6 -66 -6q-29 0 -47 14t-18 37zM446 -2q0 2 5 12l845 1354 q11 20 35 20h86q21 0 21 -12l-4 -8l-848 -1366q-11 -18 -31 -18h-92q-6 0 -11.5 5.5t-5.5 12.5zM1071 303q0 27 16 43l343 395q57 64 83.5 83.5t61.5 19.5q43 0 61.5 -21.5t18.5 -72.5v-404h143q23 0 37 -14t14 -37q0 -22 -15 -35.5t-38 -13.5h-141v-64q0 -48 11.5 -69 t37.5 -21q25 0 41 2q10 2 29 2q63 0 63 -49q0 -22 -15 -36.5t-38 -14.5q-31 0 -80 8q-54 4 -100 4q-68 0 -115 -6q-98 -8 -103 -8q-26 0 -41.5 13t-15.5 36q0 25 19 39t51 14q18 0 26 -2q46 -4 52 -4q53 0 53 92v64h-391q-68 0 -68 57zM1227 346h303l8 356z" />
<glyph unicode="&#xbd;" horiz-adv-x="1937" d="M113 592q0 53 71 53l43 -2q28 -4 39 -4q38 0 45.5 37t7.5 235v90q0 187 -8.5 230t-46.5 43q-11 0 -39 -4l-37 -2q-28 0 -43.5 14t-15.5 37q0 22 16 36.5t41 14.5l54 -4q12 -2 47 -2q47 0 67 2q46 4 52 4q26 0 36.5 -13.5t10.5 -47.5v-5.5t-0.5 -10t-1.5 -18.5t-2 -36 t-3 -57q-2 -37 -2 -135v-136q0 -63 2 -108l3 -90q0 -40 11.5 -57t37.5 -17q11 0 51 4q14 2 37 2q32 0 50.5 -14t18.5 -37t-17.5 -37t-47.5 -14q-11 0 -43 4q-123 12 -162 12q-59 0 -141 -12q-40 -6 -66 -6q-29 0 -47 14t-18 37zM406 -2q0 4 4 12l845 1354q11 20 35 20h86 q21 0 21 -12l-4 -8l-848 -1366q-11 -18 -31 -18h-92q-16 0 -16 18zM1112 109q0 154 160 245q44 26 83.5 40.5t166.5 51.5q149 46 149 148q0 70 -54.5 110.5t-148.5 40.5q-77 0 -122 -23.5t-74 -78.5q69 -9 69 -65q0 -35 -28 -59.5t-68 -24.5q-46 0 -76 31.5t-30 78.5 q0 101 98.5 170.5t241.5 69.5q142 0 231.5 -70t89.5 -180q0 -88 -57 -148q-34 -35 -76.5 -55.5t-150.5 -52.5q-146 -44 -200 -74.5t-79 -83.5q36 23 61.5 31t61.5 8q45 0 82 -14.5t86 -50.5q56 -40 83 -53t56 -13t50 21t20 49q0 6 -2 10q-27 -12 -47 -12q-25 0 -42.5 18 t-17.5 43q0 31 26 51.5t66 20.5q51 0 83 -35t32 -92q0 -78 -54 -133.5t-130 -55.5q-41 0 -79 16t-95 58q-53 37 -86 50.5t-72 13.5q-27 0 -41 -5t-35 -24q26 -5 37.5 -15t11.5 -30q0 -28 -20.5 -46t-52.5 -18q-47 0 -77 38t-30 98z" />
<glyph unicode="&#xbe;" horiz-adv-x="1937" d="M109 760q0 59 38 100t93 41q37 0 61.5 -21.5t24.5 -54.5q0 -68 -93 -71q9 -58 73 -95.5t155 -37.5q104 0 169.5 54t65.5 140q0 69 -49.5 109.5t-130.5 36.5q-29 -2 -104 -13l-25 -2q-17 0 -28 12t-11 29q0 21 23 41l250 229h-275q-52 0 -71 -9t-19 -34q0 -4 4 -40 q2 -10 2 -31q0 -72 -53 -72q-25 0 -40 16.5t-15 42.5t2 44q2 14 2 53v43q-2 16 -2 39q0 32 15 44.5t52 12.5h148h188q53 0 88 2q29 2 76 2q82 0 82 -53q0 -14 -10 -33t-25 -31l-219 -194h14q112 0 185 -69t73 -175q0 -129 -103 -213t-263 -84q-149 0 -248.5 69t-99.5 173z M543 -2q0 1 0.5 2.5l1.5 4.5t2 5l846 1354q11 20 34 20h86q21 0 21 -12q0 -4 -2 -8l-850 -1366q-11 -18 -31 -18h-90q-7 0 -12.5 5t-5.5 13zM1128 303q0 26 17 43l342 395q55 64 82.5 83.5t62.5 19.5q43 0 61.5 -21.5t18.5 -72.5v-404h143q23 0 37.5 -14t14.5 -37 q0 -22 -15.5 -35.5t-38.5 -13.5h-141v-64q0 -48 11.5 -69t37.5 -21q25 0 41 2q10 2 29 2q63 0 63 -49q0 -22 -15 -36.5t-38 -14.5q-31 0 -80 8q-54 4 -100 4q-69 0 -115 -6q-98 -8 -102 -8q-27 0 -42.5 13t-15.5 36q0 25 19 39t51 14q19 0 27 -2q46 -4 51 -4q53 0 53 92v64 h-391q-68 0 -68 57zM1284 346h303l8 356z" />
<glyph unicode="&#xbf;" horiz-adv-x="1228" d="M76 2q0 128 73 215t238 156q115 46 159.5 93.5t47.5 129.5q2 63 10 76q20 33 70 33q84 0 84 -109q0 -105 -62 -181.5t-213 -158.5q-145 -77 -189 -126.5t-44 -133.5q0 -114 91 -182t245 -68t258 72t104 178q0 54 -41 78l-4 2l-2 2q-2 2 -6 4q2 -8 2 -21q0 -28 -24 -47.5 t-56 -19.5q-37 0 -61.5 26t-24.5 66q0 59 48 99t118 40q89 0 147 -61t58 -154q0 -173 -146.5 -284t-375.5 -111q-227 0 -365.5 106t-138.5 281zM526 928q0 52 38 90.5t89 38.5t90 -40t39 -93q0 -50 -37 -86.5t-88 -36.5q-53 0 -92 38t-39 89z" />
<glyph unicode="&#xc0;" horiz-adv-x="1527" d="M-16 59q0 33 20.5 51.5t56.5 18.5q17 0 25 -2h31q44 0 65.5 25t55.5 114l380 1030q17 46 48.5 66t85.5 20q45 0 74 -20.5t46 -65.5l367 -1013q35 -97 63.5 -128.5t79.5 -31.5q19 0 27 2q11 1 25.5 2t21.5 1.5t10 0.5q34 0 56 -19t22 -47q0 -31 -22 -50t-56 -19 q-13 0 -59 4q-129 14 -193 14q-103 0 -243 -16q-54 -4 -66 -4q-37 0 -60.5 19t-23.5 50q0 34 23.5 53t66.5 19l35 -2q49 -8 76 -8q28 0 46.5 16t18.5 39q0 11 -16 53l-57 160q-23 65 -37.5 78.5t-58.5 13.5h-365q-41 0 -57 -15t-39 -77l-60 -160q-8 -19 -8 -43q0 -65 78 -65 q17 0 63 4t60 4q37 0 57.5 -19t20.5 -53q0 -32 -23.5 -49.5t-66.5 -17.5q-25 0 -150 18q-46 4 -98 4q-71 0 -183 -16q-62 -8 -81 -8q-82 0 -82 69zM487 1702q0 34 22 58t54 24q31 0 66 -21l278 -174q31 -21 41 -32.5t10 -28.5q0 -21 -14.5 -34t-36.5 -13q-18 0 -30 6 l-314 135q-40 18 -58 36t-18 44zM549 635q3 -19 29 -19h325q25 0 25 19l-2 14l-187 565l-188 -565q-2 -4 -2 -14z" />
<glyph unicode="&#xc1;" horiz-adv-x="1527" d="M-16 59q0 33 20.5 51.5t56.5 18.5q17 0 25 -2h31q44 0 65.5 25t55.5 114l380 1030q17 46 48.5 66t85.5 20q45 0 74 -20.5t46 -65.5l367 -1013q35 -97 63.5 -128.5t79.5 -31.5q19 0 27 2q11 1 25.5 2t21.5 1.5t10 0.5q34 0 56 -19t22 -47q0 -31 -22 -50t-56 -19 q-13 0 -59 4q-129 14 -193 14q-103 0 -243 -16q-54 -4 -66 -4q-37 0 -60.5 19t-23.5 50q0 34 23.5 53t66.5 19l35 -2q49 -8 76 -8q28 0 46.5 16t18.5 39q0 11 -16 53l-57 160q-23 65 -37.5 78.5t-58.5 13.5h-365q-41 0 -57 -15t-39 -77l-60 -160q-8 -19 -8 -43q0 -65 78 -65 q17 0 63 4t60 4q37 0 57.5 -19t20.5 -53q0 -32 -23.5 -49.5t-66.5 -17.5q-25 0 -150 18q-46 4 -98 4q-71 0 -183 -16q-62 -8 -81 -8q-82 0 -82 69zM549 635q3 -19 29 -19h325q25 0 25 19l-2 14l-187 565l-188 -565q-2 -4 -2 -14zM612 1528q0 17 10.5 29.5t41.5 31.5l278 174 q32 21 66 21q32 0 53.5 -24t21.5 -58q0 -26 -17.5 -44.5t-59.5 -35.5l-314 -135q-9 -6 -28 -6q-23 0 -37.5 13.5t-14.5 33.5z" />
<glyph unicode="&#xc2;" horiz-adv-x="1527" d="M-16 59q0 33 20.5 51.5t56.5 18.5q17 0 25 -2h31q44 0 65.5 25t55.5 114l380 1030q17 46 48.5 66t85.5 20q45 0 74 -20.5t46 -65.5l367 -1013q35 -97 63.5 -128.5t79.5 -31.5q19 0 27 2q11 1 25.5 2t21.5 1.5t10 0.5q34 0 56 -19t22 -47q0 -31 -22 -50t-56 -19 q-13 0 -59 4q-129 14 -193 14q-103 0 -243 -16q-54 -4 -66 -4q-37 0 -60.5 19t-23.5 50q0 34 23.5 53t66.5 19l35 -2q49 -8 76 -8q28 0 46.5 16t18.5 39q0 11 -16 53l-57 160q-23 65 -37.5 78.5t-58.5 13.5h-365q-41 0 -57 -15t-39 -77l-60 -160q-8 -19 -8 -43q0 -65 78 -65 q17 0 63 4t60 4q37 0 57.5 -19t20.5 -53q0 -32 -23.5 -49.5t-66.5 -17.5q-25 0 -150 18q-46 4 -98 4q-71 0 -183 -16q-62 -8 -81 -8q-82 0 -82 69zM375 1544q0 15 8.5 24.5t38.5 30.5l276 197q26 16 43 16q21 0 43 -16l277 -197q29 -20 38 -30.5t9 -24.5q0 -15 -13 -27 t-30 -12q-14 0 -25.5 4t-52.5 25l-246 115l-245 -115q-41 -21 -52.5 -25t-25.5 -4q-17 0 -30 12t-13 27zM549 635q3 -19 29 -19h325q25 0 25 19l-2 14l-187 565l-188 -565q-2 -4 -2 -14z" />
<glyph unicode="&#xc3;" horiz-adv-x="1527" d="M-16 59q0 33 20.5 51.5t56.5 18.5q17 0 25 -2h31q44 0 65.5 25t55.5 114l380 1030q17 46 48.5 66t85.5 20q45 0 74 -20.5t46 -65.5l367 -1013q35 -97 63.5 -128.5t79.5 -31.5q19 0 27 2q11 1 25.5 2t21.5 1.5t10 0.5q34 0 56 -19t22 -47q0 -31 -22 -50t-56 -19 q-13 0 -59 4q-129 14 -193 14q-103 0 -243 -16q-54 -4 -66 -4q-37 0 -60.5 19t-23.5 50q0 34 23.5 53t66.5 19l35 -2q49 -8 76 -8q28 0 46.5 16t18.5 39q0 11 -16 53l-57 160q-23 65 -37.5 78.5t-58.5 13.5h-365q-41 0 -57 -15t-39 -77l-60 -160q-8 -19 -8 -43q0 -65 78 -65 q17 0 63 4t60 4q37 0 57.5 -19t20.5 -53q0 -32 -23.5 -49.5t-66.5 -17.5q-25 0 -150 18q-46 4 -98 4q-71 0 -183 -16q-62 -8 -81 -8q-82 0 -82 69zM424 1538q0 73 64 128.5t149 55.5q37 0 72.5 -9t154.5 -48q47 -14 68 -14q34 0 57.5 12.5t61.5 52.5q7 10 24 10 q14 0 22.5 -8.5t8.5 -23.5q0 -69 -65.5 -122.5t-151.5 -53.5q-49 0 -137 28q-116 39 -160 39q-36 0 -60 -13.5t-51 -49.5q-13 -19 -28 -19q-12 0 -20.5 10t-8.5 25zM549 635q3 -19 29 -19h325q25 0 25 19l-2 14l-187 565l-188 -565q-2 -4 -2 -14z" />
<glyph unicode="&#xc4;" horiz-adv-x="1527" d="M-16 59q0 33 20.5 51.5t56.5 18.5q17 0 25 -2h31q44 0 65.5 25t55.5 114l380 1030q17 46 48.5 66t85.5 20q45 0 74 -20.5t46 -65.5l367 -1013q35 -97 63.5 -128.5t79.5 -31.5q19 0 27 2q11 1 25.5 2t21.5 1.5t10 0.5q34 0 56 -19t22 -47q0 -31 -22 -50t-56 -19 q-13 0 -59 4q-129 14 -193 14q-103 0 -243 -16q-54 -4 -66 -4q-37 0 -60.5 19t-23.5 50q0 34 23.5 53t66.5 19l35 -2q49 -8 76 -8q28 0 46.5 16t18.5 39q0 11 -16 53l-57 160q-23 65 -37.5 78.5t-58.5 13.5h-365q-41 0 -57 -15t-39 -77l-60 -160q-8 -19 -8 -43q0 -65 78 -65 q17 0 63 4t60 4q37 0 57.5 -19t20.5 -53q0 -32 -23.5 -49.5t-66.5 -17.5q-25 0 -150 18q-46 4 -98 4q-71 0 -183 -16q-62 -8 -81 -8q-82 0 -82 69zM424 1640q0 52 39.5 90.5t93.5 38.5t92.5 -38.5t38.5 -92.5q0 -55 -38.5 -94t-92.5 -39q-56 0 -94.5 39t-38.5 96zM549 635 q3 -19 29 -19h325q25 0 25 19l-2 14l-187 565l-188 -565q-2 -4 -2 -14zM795 1640q0 52 39.5 90.5t93.5 38.5t92.5 -38.5t38.5 -92.5q0 -55 -38.5 -94t-92.5 -39q-56 0 -94.5 39t-38.5 96z" />
<glyph unicode="&#xc5;" horiz-adv-x="1527" d="M-16 59q0 33 20.5 51.5t56.5 18.5q17 0 25 -2h31q44 0 65.5 25t55.5 114l380 1030q17 46 48.5 66t85.5 20q45 0 74 -20.5t46 -65.5l367 -1013q35 -97 63.5 -128.5t79.5 -31.5q19 0 27 2q11 1 25.5 2t21.5 1.5t10 0.5q34 0 56 -19t22 -47q0 -31 -22 -50t-56 -19 q-13 0 -59 4q-129 14 -193 14q-103 0 -243 -16q-54 -4 -66 -4q-37 0 -60.5 19t-23.5 50q0 34 23.5 53t66.5 19l35 -2q49 -8 76 -8q28 0 46.5 16t18.5 39q0 11 -16 53l-57 160q-23 65 -37.5 78.5t-58.5 13.5h-365q-41 0 -57 -15t-39 -77l-60 -160q-8 -19 -8 -43q0 -65 78 -65 q17 0 63 4t60 4q37 0 57.5 -19t20.5 -53q0 -32 -23.5 -49.5t-66.5 -17.5q-25 0 -150 18q-46 4 -98 4q-71 0 -183 -16q-62 -8 -81 -8q-82 0 -82 69zM541 1679q0 78 59 135.5t141 57.5t140.5 -57.5t58.5 -139.5t-58.5 -140t-140.5 -58q-85 0 -142.5 58t-57.5 144zM549 635 q3 -19 29 -19h325q25 0 25 19l-2 14l-187 565l-188 -565q-2 -4 -2 -14zM639 1677q0 -43 29.5 -73.5t72.5 -30.5q41 0 71 30.5t30 71.5t-30 71t-71 30t-71.5 -29.5t-30.5 -69.5z" />
<glyph unicode="&#xc6;" horiz-adv-x="2086" d="M-98 59q0 31 20.5 50.5t52.5 19.5q11 0 43 -4q28 -4 39 -4q28 0 43.5 12.5t71.5 81.5l688 1092q22 33 41 45t51 12q37 0 64 -2q41 -2 237 -2q135 0 519 12q62 4 67 4q45 0 69.5 -25.5t24.5 -72.5q0 -11 -10 -107q-6 -61 -6 -122q0 -36 4 -82q8 -86 8 -93q0 -37 -20 -58 t-54 -21q-38 0 -55.5 24.5t-17.5 77.5l2 78q2 20 2 53q0 143 -57 180q-50 33 -277 33h-76.5t-59.5 -2t-48 -2.5t-34.5 -6t-27 -8.5t-16.5 -14.5t-11.5 -18.5t-4.5 -25.5t-3 -31.5v-40v-291q0 -28 10 -36.5t42 -8.5h147q119 0 119 98q0 24 -6 61q-4 46 -4 60q0 40 18.5 62 t50.5 22q33 0 52.5 -21t19.5 -57q0 -37 -6 -86q-17 -116 -17 -223q0 -73 17 -209q6 -40 6 -70q0 -35 -20 -56.5t-52 -21.5t-51.5 21t-19.5 55q0 25 6 62q8 50 8 71q0 54 -28.5 76.5t-94.5 22.5h-149q-48 0 -48 -39v-332q0 -52 7 -73.5t28 -33.5q13 -9 39 -10.5t164 -1.5h158 q82 0 128 6.5t75 28t38 55.5t9 94l-2 99q-3 30 -3 47q0 60 17 86t55 26q76 0 76 -83q0 -23 -4 -93q-8 -96 -8 -157q0 -33 10 -133v-19q0 -100 -109 -100q-47 0 -123 6q-153 10 -514 10q-200 0 -313 -10q-65 -6 -108 -6q-86 0 -86 71q0 72 100 72q25 0 39 -2q46 -4 55 -4 q37 0 62.5 16t31.5 43q13 43 13 133v236q0 40 -10.5 54t-39.5 14h-305q-30 0 -42 -4.5t-23 -18.5q-11 -13 -152 -256l-53 -92q-23 -41 -31 -49q-28 -44 -28 -56q0 -22 36 -22q13 0 41 4q30 6 50 6q31 0 53 -21.5t22 -52.5t-23.5 -51t-60.5 -20q-27 0 -57 6q-118 18 -166 18 q-66 0 -164 -16q-62 -8 -78 -8q-34 0 -53.5 18.5t-19.5 50.5zM682 756h289q19 0 27 10t8 35l12 448q0 13 -10 13q-4 0 -17 -13z" />
<glyph unicode="&#xc7;" d="M78 670q0 165 44.5 303t124 234.5t194 150t251.5 53.5q125 0 210 -39.5t161 -134.5q-1 22 -2.5 38t-1.5 21q-4 32 -4 43q0 31 18 49.5t47 18.5q32 0 51 -23t19 -61q0 -18 -8 -100q-11 -90 -11 -140q0 -46 13 -192q2 -8 2 -23q0 -90 -76 -90t-76 84l2 84q0 145 -96 236.5 t-248 91.5q-201 0 -316.5 -156.5t-115.5 -431.5q0 -134 33.5 -252t93.5 -194q113 -146 318 -146q102 0 187.5 44.5t129.5 119.5q23 40 32 81.5t11 115.5q0 49 19 71.5t59 22.5q84 0 84 -96q0 -114 -48.5 -214.5t-134.5 -168.5q-70 -57 -149 -83t-197 -32l-34 -90q60 8 86 8 q86 0 142 -47.5t56 -118.5q0 -83 -74 -137.5t-188 -54.5q-97 0 -172.5 36t-75.5 82q0 17 12 31t27 14q13 0 22.5 -4t47.5 -28q59 -39 141 -39q55 0 89 25.5t34 66.5q0 36 -31 59t-80 23q-42 0 -98 -21q-18 -6 -29 -6q-10 0 -19 10.5t-9 22.5q0 17 14 57l47 115 q-246 29 -387 219.5t-141 491.5z" />
<glyph unicode="&#xc8;" horiz-adv-x="1378" d="M39 61q0 28 19 48t46 20q18 0 56 -6q28 -4 43 -4q49 0 72.5 27.5t29.5 91.5l2 360v172q0 345 -4 377q-7 52 -31.5 76t-68.5 24q-13 0 -45 -4q-34 -6 -56 -6q-26 0 -44.5 20t-18.5 48q0 30 24.5 49.5t61.5 19.5q19 0 33 -2q202 -20 305 -20q49 0 291.5 9t308.5 13 q25 2 61 2q54 0 79.5 -23.5t25.5 -72.5q0 -20 -8 -102q-7 -75 -7 -121q0 -43 7 -101q6 -56 6 -90t-20.5 -56t-51.5 -22q-40 0 -58 25.5t-18 81.5q0 49 2 80v37q0 123 -41 172q-23 28 -82.5 36.5t-224.5 8.5q-72 0 -114 -3t-74 -9.5t-46 -22t-20 -36.5t-6 -56v-94 q0 -53 -2 -86v-31q0 -58 17 -76t71 -18h82q58 0 93.5 24t35.5 64q0 11 -4 65q-6 38 -6 70q0 36 19.5 58t51.5 22q34 0 54 -23.5t20 -64.5q0 -24 -12 -127q-12 -99 -12 -166q0 -93 18 -240q4 -40 4 -53q0 -32 -20 -51t-54 -19q-71 0 -71 86q0 31 6 68q6 38 6 65q0 89 -117 89 h-92q-57 0 -72.5 -19t-15.5 -90v-127l2 -94q2 -20 2 -86q1 -76 25.5 -96.5t113.5 -20.5h279q123 0 167 36.5t44 139.5q0 55 -2 86q-2 37 -2 92q0 44 19.5 68.5t54.5 24.5q75 0 75 -95q0 -18 -4 -92q-4 -90 -4 -135q0 -55 2 -78q4 -86 4 -92q0 -44 -25.5 -70t-68.5 -26 q-6 0 -72 4l-90 2q-10 0 -25 0.5t-50.5 1.5t-83.5 2q-164 4 -304 4q-264 0 -372 -12q-14 -2 -33 -2q-37 0 -61.5 20t-24.5 51zM377 1702q0 34 22 58t54 24q30 0 65 -21l279 -174q31 -21 41 -32.5t10 -28.5q0 -21 -14.5 -34t-36.5 -13q-19 0 -31 6l-313 135q-40 18 -58 36 t-18 44z" />
<glyph unicode="&#xc9;" horiz-adv-x="1378" d="M39 61q0 28 19 48t46 20q18 0 56 -6q28 -4 43 -4q49 0 72.5 27.5t29.5 91.5l2 360v172q0 345 -4 377q-7 52 -31.5 76t-68.5 24q-13 0 -45 -4q-34 -6 -56 -6q-26 0 -44.5 20t-18.5 48q0 30 24.5 49.5t61.5 19.5q19 0 33 -2q202 -20 305 -20q49 0 291.5 9t308.5 13 q25 2 61 2q54 0 79.5 -23.5t25.5 -72.5q0 -20 -8 -102q-7 -75 -7 -121q0 -43 7 -101q6 -56 6 -90t-20.5 -56t-51.5 -22q-40 0 -58 25.5t-18 81.5q0 49 2 80v37q0 123 -41 172q-23 28 -82.5 36.5t-224.5 8.5q-72 0 -114 -3t-74 -9.5t-46 -22t-20 -36.5t-6 -56v-94 q0 -53 -2 -86v-31q0 -58 17 -76t71 -18h82q58 0 93.5 24t35.5 64q0 11 -4 65q-6 38 -6 70q0 36 19.5 58t51.5 22q34 0 54 -23.5t20 -64.5q0 -24 -12 -127q-12 -99 -12 -166q0 -93 18 -240q4 -40 4 -53q0 -32 -20 -51t-54 -19q-71 0 -71 86q0 31 6 68q6 38 6 65q0 89 -117 89 h-92q-57 0 -72.5 -19t-15.5 -90v-127l2 -94q2 -20 2 -86q1 -76 25.5 -96.5t113.5 -20.5h279q123 0 167 36.5t44 139.5q0 55 -2 86q-2 37 -2 92q0 44 19.5 68.5t54.5 24.5q75 0 75 -95q0 -18 -4 -92q-4 -90 -4 -135q0 -55 2 -78q4 -86 4 -92q0 -44 -25.5 -70t-68.5 -26 q-6 0 -72 4l-90 2q-10 0 -25 0.5t-50.5 1.5t-83.5 2q-164 4 -304 4q-264 0 -372 -12q-14 -2 -33 -2q-37 0 -61.5 20t-24.5 51zM483 1528q0 17 10.5 29.5t41.5 31.5l278 174q31 21 66 21q32 0 53.5 -24t21.5 -58q0 -26 -17.5 -44.5t-59.5 -35.5l-314 -135q-9 -6 -28 -6 q-23 0 -37.5 13.5t-14.5 33.5z" />
<glyph unicode="&#xca;" horiz-adv-x="1378" d="M39 61q0 28 19 48t46 20q18 0 56 -6q28 -4 43 -4q49 0 72.5 27.5t29.5 91.5l2 360v172q0 345 -4 377q-7 52 -31.5 76t-68.5 24q-13 0 -45 -4q-34 -6 -56 -6q-26 0 -44.5 20t-18.5 48q0 30 24.5 49.5t61.5 19.5q19 0 33 -2q202 -20 305 -20q49 0 291.5 9t308.5 13 q25 2 61 2q54 0 79.5 -23.5t25.5 -72.5q0 -20 -8 -102q-7 -75 -7 -121q0 -43 7 -101q6 -56 6 -90t-20.5 -56t-51.5 -22q-40 0 -58 25.5t-18 81.5q0 49 2 80v37q0 123 -41 172q-23 28 -82.5 36.5t-224.5 8.5q-72 0 -114 -3t-74 -9.5t-46 -22t-20 -36.5t-6 -56v-94 q0 -53 -2 -86v-31q0 -58 17 -76t71 -18h82q58 0 93.5 24t35.5 64q0 11 -4 65q-6 38 -6 70q0 36 19.5 58t51.5 22q34 0 54 -23.5t20 -64.5q0 -24 -12 -127q-12 -99 -12 -166q0 -93 18 -240q4 -40 4 -53q0 -32 -20 -51t-54 -19q-71 0 -71 86q0 31 6 68q6 38 6 65q0 89 -117 89 h-92q-57 0 -72.5 -19t-15.5 -90v-127l2 -94q2 -20 2 -86q1 -76 25.5 -96.5t113.5 -20.5h279q123 0 167 36.5t44 139.5q0 55 -2 86q-2 37 -2 92q0 44 19.5 68.5t54.5 24.5q75 0 75 -95q0 -18 -4 -92q-4 -90 -4 -135q0 -55 2 -78q4 -86 4 -92q0 -44 -25.5 -70t-68.5 -26 q-6 0 -72 4l-90 2q-10 0 -25 0.5t-50.5 1.5t-83.5 2q-164 4 -304 4q-264 0 -372 -12q-14 -2 -33 -2q-37 0 -61.5 20t-24.5 51zM315 1544q0 15 8.5 24.5t38.5 30.5l277 197q26 16 43 16q21 0 43 -16l276 -197q29 -20 38.5 -31t9.5 -24q0 -15 -13 -27t-30 -12q-14 0 -25.5 4 t-52.5 25l-246 115l-246 -115q-41 -21 -52.5 -25t-25.5 -4q-17 0 -30 12t-13 27z" />
<glyph unicode="&#xcb;" horiz-adv-x="1378" d="M39 61q0 28 19 48t46 20q18 0 56 -6q28 -4 43 -4q49 0 72.5 27.5t29.5 91.5l2 360v172q0 345 -4 377q-7 52 -31.5 76t-68.5 24q-13 0 -45 -4q-34 -6 -56 -6q-26 0 -44.5 20t-18.5 48q0 30 24.5 49.5t61.5 19.5q19 0 33 -2q202 -20 305 -20q49 0 291.5 9t308.5 13 q25 2 61 2q54 0 79.5 -23.5t25.5 -72.5q0 -20 -8 -102q-7 -75 -7 -121q0 -43 7 -101q6 -56 6 -90t-20.5 -56t-51.5 -22q-40 0 -58 25.5t-18 81.5q0 49 2 80v37q0 123 -41 172q-23 28 -82.5 36.5t-224.5 8.5q-72 0 -114 -3t-74 -9.5t-46 -22t-20 -36.5t-6 -56v-94 q0 -53 -2 -86v-31q0 -58 17 -76t71 -18h82q58 0 93.5 24t35.5 64q0 11 -4 65q-6 38 -6 70q0 36 19.5 58t51.5 22q34 0 54 -23.5t20 -64.5q0 -24 -12 -127q-12 -99 -12 -166q0 -93 18 -240q4 -40 4 -53q0 -32 -20 -51t-54 -19q-71 0 -71 86q0 31 6 68q6 38 6 65q0 89 -117 89 h-92q-57 0 -72.5 -19t-15.5 -90v-127l2 -94q2 -20 2 -86q1 -76 25.5 -96.5t113.5 -20.5h279q123 0 167 36.5t44 139.5q0 55 -2 86q-2 37 -2 92q0 44 19.5 68.5t54.5 24.5q75 0 75 -95q0 -18 -4 -92q-4 -90 -4 -135q0 -55 2 -78q4 -86 4 -92q0 -44 -25.5 -70t-68.5 -26 q-6 0 -72 4l-90 2q-10 0 -25 0.5t-50.5 1.5t-83.5 2q-164 4 -304 4q-264 0 -372 -12q-14 -2 -33 -2q-37 0 -61.5 20t-24.5 51zM373 1640q0 52 39.5 90.5t93.5 38.5t92.5 -38.5t38.5 -92.5q0 -55 -38.5 -94t-92.5 -39q-56 0 -94.5 39t-38.5 96zM743 1640q0 52 40 90.5 t94 38.5t92.5 -38.5t38.5 -92.5q0 -55 -38.5 -94t-92.5 -39q-56 0 -95 39t-39 96z" />
<glyph unicode="&#xcc;" horiz-adv-x="782" d="M39 61q0 29 18.5 49.5t46.5 20.5q23 0 54 -8q32 -4 45 -4q49 0 72.5 27.5t29.5 91.5l2 360v172q0 345 -4 377q-7 52 -31.5 76t-70.5 24q-11 0 -43 -4q-34 -6 -56 -6q-26 0 -44.5 20t-18.5 48q0 32 24.5 51.5t63.5 19.5q16 0 141 -18q57 -8 127 -8q38 0 55 1t56.5 5.5 t120.5 17.5q10 2 30 2q39 0 63.5 -19.5t24.5 -51.5q0 -28 -18.5 -48t-44.5 -20q-20 0 -55 6q-32 4 -45 4q-49 0 -73 -28t-30 -91l-2 -360v-172q0 -345 4 -377q14 -100 101 -100q13 0 45 4q31 8 55 8q26 0 44.5 -20.5t18.5 -49.5q0 -31 -25 -51t-65 -20q-14 0 -135 18 q-52 8 -117 8q-68 0 -245 -24q-10 -2 -29 -2q-40 0 -65 20t-25 51zM119 1702q0 34 22 58t54 24q30 0 65 -21l279 -174q31 -21 41 -32.5t10 -28.5q0 -21 -14.5 -34t-36.5 -13q-19 0 -31 6l-313 135q-40 18 -58 36t-18 44z" />
<glyph unicode="&#xcd;" horiz-adv-x="782" d="M39 61q0 29 18.5 49.5t46.5 20.5q23 0 54 -8q32 -4 45 -4q49 0 72.5 27.5t29.5 91.5l2 360v172q0 345 -4 377q-7 52 -31.5 76t-70.5 24q-11 0 -43 -4q-34 -6 -56 -6q-26 0 -44.5 20t-18.5 48q0 32 24.5 51.5t63.5 19.5q16 0 141 -18q57 -8 127 -8q38 0 55 1t56.5 5.5 t120.5 17.5q10 2 30 2q39 0 63.5 -19.5t24.5 -51.5q0 -28 -18.5 -48t-44.5 -20q-20 0 -55 6q-32 4 -45 4q-49 0 -73 -28t-30 -91l-2 -360v-172q0 -345 4 -377q14 -100 101 -100q13 0 45 4q31 8 55 8q26 0 44.5 -20.5t18.5 -49.5q0 -31 -25 -51t-65 -20q-14 0 -135 18 q-52 8 -117 8q-68 0 -245 -24q-10 -2 -29 -2q-40 0 -65 20t-25 51zM207 1528q0 17 10.5 29.5t40.5 31.5l279 174q31 21 65 21q32 0 54 -24t22 -58q0 -26 -18 -44.5t-60 -35.5l-313 -135q-9 -6 -29 -6q-23 0 -37 13t-14 34z" />
<glyph unicode="&#xce;" horiz-adv-x="782" d="M18 1544q0 15 9 24.5t39 30.5l276 197q26 16 43 16q21 0 43 -16l277 -197q29 -20 38 -30.5t9 -24.5q0 -15 -13 -27t-30 -12q-14 0 -25.5 4t-52.5 25l-246 115l-246 -115q-41 -21 -52.5 -25t-25.5 -4q-17 0 -30 12t-13 27zM39 61q0 29 18.5 49.5t46.5 20.5q23 0 54 -8 q32 -4 45 -4q49 0 72.5 27.5t29.5 91.5l2 360v172q0 345 -4 377q-7 52 -31.5 76t-70.5 24q-11 0 -43 -4q-34 -6 -56 -6q-26 0 -44.5 20t-18.5 48q0 32 24.5 51.5t63.5 19.5q16 0 141 -18q57 -8 127 -8q38 0 55 1t56.5 5.5t120.5 17.5q10 2 30 2q39 0 63.5 -19.5t24.5 -51.5 q0 -28 -18.5 -48t-44.5 -20q-20 0 -55 6q-32 4 -45 4q-49 0 -73 -28t-30 -91l-2 -360v-172q0 -345 4 -377q14 -100 101 -100q13 0 45 4q31 8 55 8q26 0 44.5 -20.5t18.5 -49.5q0 -31 -25 -51t-65 -20q-14 0 -135 18q-52 8 -117 8q-68 0 -245 -24q-10 -2 -29 -2q-40 0 -65 20 t-25 51z" />
<glyph unicode="&#xcf;" horiz-adv-x="782" d="M39 61q0 29 18.5 49.5t46.5 20.5q23 0 54 -8q32 -4 45 -4q49 0 72.5 27.5t29.5 91.5l2 360v172q0 345 -4 377q-7 52 -31.5 76t-70.5 24q-11 0 -43 -4q-34 -6 -56 -6q-26 0 -44.5 20t-18.5 48q0 32 24.5 51.5t63.5 19.5q16 0 141 -18q57 -8 127 -8q38 0 55 1t56.5 5.5 t120.5 17.5q10 2 30 2q39 0 63.5 -19.5t24.5 -51.5q0 -28 -18.5 -48t-44.5 -20q-20 0 -55 6q-32 4 -45 4q-49 0 -73 -28t-30 -91l-2 -360v-172q0 -345 4 -377q14 -100 101 -100q13 0 45 4q31 8 55 8q26 0 44.5 -20.5t18.5 -49.5q0 -31 -25 -51t-65 -20q-14 0 -135 18 q-52 8 -117 8q-68 0 -245 -24q-10 -2 -29 -2q-40 0 -65 20t-25 51zM90 1640q0 52 39.5 90.5t93.5 38.5t92.5 -38.5t38.5 -92.5q0 -55 -38.5 -94t-92.5 -39q-56 0 -94.5 39t-38.5 96zM432 1640q0 52 39.5 90.5t93.5 38.5t92.5 -38.5t38.5 -92.5q0 -55 -38.5 -94t-92.5 -39 q-56 0 -94.5 39t-38.5 96z" />
<glyph unicode="&#xd0;" horiz-adv-x="1490" d="M39 61q0 28 19 48t46 20q19 0 54 -6q32 -4 45 -4q47 0 71.5 28t30.5 91q0 16 2 358v51h-149q-103 0 -103 68q0 65 92 65h160q-2 342 -4 367q-7 52 -31.5 76t-68.5 24q-13 0 -45 -4q-34 -6 -54 -6q-27 0 -46 20t-19 48q0 32 25 51.5t65 19.5q14 0 139 -16q52 -8 129 -8 q58 0 248 18q50 6 109 6q299 0 460 -157q95 -94 147 -235.5t52 -307.5q0 -149 -45.5 -281.5t-128.5 -224.5q-163 -180 -485 -180q-52 0 -238 16q-86 6 -147 6q-47 0 -74 -2.5t-137 -17.5q-10 -2 -29 -2q-40 0 -65 19.5t-25 51.5zM477 319q0 -90 3.5 -114.5t17.5 -42.5 q29 -37 243 -37q133 0 215 30.5t142 102.5q133 161 133 424q0 173 -60 305t-167 193q-105 57 -289 57q-111 0 -159.5 -8t-61.5 -29q-11 -12 -13.5 -31.5t-3.5 -115.5v-273h275q102 0 102 -67q0 -66 -92 -66h-285v-328z" />
<glyph unicode="&#xd1;" horiz-adv-x="1564" d="M39 57q0 29 18.5 48.5t46.5 19.5q22 0 56 -6q28 -4 45 -4q48 0 72 27.5t30 90.5q0 19 2 359v176q-2 350 -4 377q-7 52 -31.5 76t-70.5 24q-15 0 -43 -4q-38 -6 -56 -6q-28 0 -46.5 20.5t-18.5 49.5q0 31 25 51t63 20q19 0 31 -2q89 -12 159 -12q44 0 97 6q70 8 88 8 q43 0 69 -26q7 -7 37 -66l549 -1147v631q0 340 -6 377q-6 52 -29.5 76t-68.5 24q-13 0 -45 -4q-38 -6 -56 -6q-26 0 -44.5 20t-18.5 48q0 32 25 52.5t65 20.5q15 0 121 -16q52 -8 114 -8q64 0 144 12q78 12 100 12q40 0 63 -18.5t23 -50.5q0 -45 -39 -64q-16 -6 -65 -6 q-54 0 -72.5 -5t-28.5 -22q-30 -43 -30 -442v-375q0 -202 -2 -248t-13 -82q-13 -47 -46.5 -72.5t-80.5 -25.5q-53 0 -93 34t-77 110l-536 1116v-629q2 -350 4 -377q7 -52 31.5 -76t68.5 -24q13 0 45 4q34 6 56 6q26 0 44.5 -20t18.5 -48q0 -32 -24.5 -51.5t-63.5 -19.5 q-17 0 -115 14q-82 10 -131 10q-67 0 -237 -22q-10 -2 -29 -2q-40 0 -65 19t-25 48zM442 1538q0 73 64 128.5t149 55.5q37 0 73.5 -9t154.5 -48q47 -14 67 -14q34 0 57.5 12.5t61.5 52.5q7 10 25 10q30 0 30 -32q0 -69 -65.5 -122.5t-151.5 -53.5q-49 0 -137 28 q-116 39 -160 39q-36 0 -59 -13.5t-51 -49.5q-13 -19 -29 -19q-12 0 -20.5 10t-8.5 25z" />
<glyph unicode="&#xd2;" horiz-adv-x="1341" d="M78 698q0 160 46.5 303.5t129.5 235.5q75 84 185 129t241 45q270 0 427 -191t157 -520q0 -340 -163 -542.5t-437 -202.5q-272 0 -429 199t-157 544zM260 692q0 -175 37 -293t117 -196q106 -101 250 -101q107 0 196.5 55t143.5 154q35 66 56 173t21 221 q0 266 -107.5 412.5t-303.5 146.5q-192 0 -301 -152t-109 -420zM399 1702q0 34 22 58t54 24q31 0 66 -21l278 -174q31 -21 41 -32.5t10 -28.5q0 -21 -14.5 -34t-36.5 -13q-19 0 -31 6l-313 135q-40 18 -58 36t-18 44z" />
<glyph unicode="&#xd3;" horiz-adv-x="1341" d="M78 698q0 160 46.5 303.5t129.5 235.5q75 84 185 129t241 45q270 0 427 -191t157 -520q0 -340 -163 -542.5t-437 -202.5q-272 0 -429 199t-157 544zM260 692q0 -175 37 -293t117 -196q106 -101 250 -101q107 0 196.5 55t143.5 154q35 66 56 173t21 221 q0 266 -107.5 412.5t-303.5 146.5q-192 0 -301 -152t-109 -420zM492 1528q0 17 10.5 29.5t40.5 31.5l278 174q31 21 66 21q32 0 54 -24t22 -58q0 -26 -18 -44.5t-60 -35.5l-314 -135q-9 -6 -28 -6q-23 0 -37 13t-14 34z" />
<glyph unicode="&#xd4;" horiz-adv-x="1341" d="M78 698q0 160 46.5 303.5t129.5 235.5q75 84 185 129t241 45q270 0 427 -191t157 -520q0 -340 -163 -542.5t-437 -202.5q-272 0 -429 199t-157 544zM260 692q0 -175 37 -293t117 -196q106 -101 250 -101q107 0 196.5 55t143.5 154q35 66 56 173t21 221 q0 266 -107.5 412.5t-303.5 146.5q-192 0 -301 -152t-109 -420zM297 1544q0 15 8.5 24.5t38.5 30.5l277 197q26 16 43 16q21 0 43 -16l276 -197q29 -20 38 -30.5t9 -24.5q0 -15 -13 -27t-30 -12q-14 0 -25.5 4t-52.5 25l-245 115l-246 -115q-41 -21 -52.5 -25t-25.5 -4 q-17 0 -30 12t-13 27z" />
<glyph unicode="&#xd5;" horiz-adv-x="1341" d="M78 698q0 160 46.5 303.5t129.5 235.5q75 84 185 129t241 45q270 0 427 -191t157 -520q0 -340 -163 -542.5t-437 -202.5q-272 0 -429 199t-157 544zM260 692q0 -175 37 -293t117 -196q106 -101 250 -101q107 0 196.5 55t143.5 154q35 66 56 173t21 221 q0 266 -107.5 412.5t-303.5 146.5q-192 0 -301 -152t-109 -420zM330 1538q0 73 64 128.5t149 55.5q37 0 72.5 -9t154.5 -48q47 -14 68 -14q34 0 57 12.5t61 52.5q7 10 25 10q14 0 22.5 -8.5t8.5 -23.5q0 -69 -65.5 -122.5t-151.5 -53.5q-50 0 -138 28q-116 39 -159 39 q-36 0 -60 -13.5t-51 -49.5q-13 -19 -29 -19q-12 0 -20 10t-8 25z" />
<glyph unicode="&#xd6;" horiz-adv-x="1341" d="M78 698q0 160 46.5 303.5t129.5 235.5q75 84 185 129t241 45q270 0 427 -191t157 -520q0 -340 -163 -542.5t-437 -202.5q-272 0 -429 199t-157 544zM260 692q0 -175 37 -293t117 -196q106 -101 250 -101q107 0 196.5 55t143.5 154q35 66 56 173t21 221 q0 266 -107.5 412.5t-303.5 146.5q-192 0 -301 -152t-109 -420zM354 1640q0 52 39.5 90.5t93.5 38.5t92.5 -38.5t38.5 -92.5q0 -55 -38.5 -94t-92.5 -39q-56 0 -94.5 39t-38.5 96zM725 1640q0 52 39.5 90.5t93.5 38.5t92.5 -38.5t38.5 -92.5q0 -55 -38.5 -94t-92.5 -39 q-56 0 -94.5 39t-38.5 96z" />
<glyph unicode="&#xd7;" d="M262 440q0 25 31 56l258 260l-258 262q-31 27 -31 53t25 51t53 25q22 0 53 -31l258 -260l262 260q28 33 54 33q27 0 52 -24.5t25 -51.5q0 -15 -6 -26t-26 -29l-258 -262l258 -260q30 -30 30 -54q0 -25 -25 -50t-50 -25q-26 0 -56 28l-260 260l-258 -260q-30 -30 -55 -30 t-50.5 25t-25.5 50z" />
<glyph unicode="&#xd8;" horiz-adv-x="1341" d="M78 657q0 177 50 333.5t138 250.5q157 168 410 168q145 0 266 -59l72 131q12 28 39 28h90q7 0 12.5 -6t5.5 -14q0 -6 -2 -8l-106 -203q118 -136 164.5 -266t46.5 -324q0 -334 -159 -533.5t-425 -199.5q-153 0 -289 61l-65 -127q-13 -26 -39 -26h-97q-16 0 -16 16l2 10 l111 205q-107 106 -158 242.5t-51 320.5zM260 666q0 -270 96 -430l525 989q-86 47 -199 47q-201 0 -311.5 -159t-110.5 -447zM457 139q90 -47 196 -47q206 0 317 149.5t111 426.5q0 301 -104 454z" />
<glyph unicode="&#xd9;" horiz-adv-x="1454" d="M20 1305q0 32 21.5 51.5t56.5 19.5q29 0 70 -6q111 -18 186 -18q80 0 203 20q40 4 55 4q38 0 61 -18.5t23 -50.5q0 -29 -20 -49.5t-49 -20.5q-21 0 -56 6q-36 4 -49 4q-54 0 -75.5 -42t-22.5 -152q-1 -30 -2 -62t-1.5 -49t-0.5 -22q-8 -131 -8 -164v-135q0 -181 1 -218.5 t7 -80.5q7 -60 28 -97.5t64 -68.5q90 -64 225 -64q97 0 171.5 34.5t109.5 96.5q23 39 31 122.5t8 275.5v147q0 261 -2 317.5t-11 92.5q-7 31 -32 48t-62 17q-11 0 -43 -4q-38 -6 -55 -6q-26 0 -45 20.5t-19 49.5q0 32 25 52.5t64 20.5q14 0 151 -18q46 -6 102 -6 q52 0 179 20q36 4 51 4q38 0 61 -18.5t23 -50.5t-23 -51t-61 -19q-13 0 -21 2h-22q-21 0 -34.5 -4t-24.5 -20t-16.5 -38.5t-9 -68.5t-4.5 -100.5t-1 -143.5v-141q0 -317 -4.5 -380.5t-32.5 -131.5q-51 -126 -167.5 -191t-291.5 -65q-141 0 -250.5 43t-169.5 121 q-43 55 -59 119.5t-16 175.5q0 29 4 161q8 161 8 277v109q-2 153 -5.5 187.5t-21.5 63.5q-18 27 -55 27l-31 -2q-12 -2 -31 -2q-39 0 -61.5 19t-22.5 51zM467 1702q0 34 22 58t54 24q30 0 65 -21l279 -174q31 -21 41 -32.5t10 -28.5q0 -21 -14.5 -34t-36.5 -13q-19 0 -31 6 l-313 135q-40 18 -58 36t-18 44z" />
<glyph unicode="&#xda;" horiz-adv-x="1454" d="M20 1305q0 32 21.5 51.5t56.5 19.5q29 0 70 -6q111 -18 186 -18q80 0 203 20q40 4 55 4q38 0 61 -18.5t23 -50.5q0 -29 -20 -49.5t-49 -20.5q-21 0 -56 6q-36 4 -49 4q-54 0 -75.5 -42t-22.5 -152q-1 -30 -2 -62t-1.5 -49t-0.5 -22q-8 -131 -8 -164v-135q0 -181 1 -218.5 t7 -80.5q7 -60 28 -97.5t64 -68.5q90 -64 225 -64q97 0 171.5 34.5t109.5 96.5q23 39 31 122.5t8 275.5v147q0 261 -2 317.5t-11 92.5q-7 31 -32 48t-62 17q-11 0 -43 -4q-38 -6 -55 -6q-26 0 -45 20.5t-19 49.5q0 32 25 52.5t64 20.5q14 0 151 -18q46 -6 102 -6 q52 0 179 20q36 4 51 4q38 0 61 -18.5t23 -50.5t-23 -51t-61 -19q-13 0 -21 2h-22q-21 0 -34.5 -4t-24.5 -20t-16.5 -38.5t-9 -68.5t-4.5 -100.5t-1 -143.5v-141q0 -317 -4.5 -380.5t-32.5 -131.5q-51 -126 -167.5 -191t-291.5 -65q-141 0 -250.5 43t-169.5 121 q-43 55 -59 119.5t-16 175.5q0 29 4 161q8 161 8 277v109q-2 153 -5.5 187.5t-21.5 63.5q-18 27 -55 27l-31 -2q-12 -2 -31 -2q-39 0 -61.5 19t-22.5 51zM561 1528q0 17 10.5 29.5t40.5 31.5l279 174q31 21 65 21q32 0 54 -24t22 -58q0 -26 -18 -44.5t-60 -35.5l-313 -135 q-9 -6 -29 -6q-23 0 -37 13t-14 34z" />
<glyph unicode="&#xdb;" horiz-adv-x="1454" d="M20 1305q0 32 21.5 51.5t56.5 19.5q29 0 70 -6q111 -18 186 -18q80 0 203 20q40 4 55 4q38 0 61 -18.5t23 -50.5q0 -29 -20 -49.5t-49 -20.5q-21 0 -56 6q-36 4 -49 4q-54 0 -75.5 -42t-22.5 -152q-1 -30 -2 -62t-1.5 -49t-0.5 -22q-8 -131 -8 -164v-135q0 -181 1 -218.5 t7 -80.5q7 -60 28 -97.5t64 -68.5q90 -64 225 -64q97 0 171.5 34.5t109.5 96.5q23 39 31 122.5t8 275.5v147q0 261 -2 317.5t-11 92.5q-7 31 -32 48t-62 17q-11 0 -43 -4q-38 -6 -55 -6q-26 0 -45 20.5t-19 49.5q0 32 25 52.5t64 20.5q14 0 151 -18q46 -6 102 -6 q52 0 179 20q36 4 51 4q38 0 61 -18.5t23 -50.5t-23 -51t-61 -19q-13 0 -21 2h-22q-21 0 -34.5 -4t-24.5 -20t-16.5 -38.5t-9 -68.5t-4.5 -100.5t-1 -143.5v-141q0 -317 -4.5 -380.5t-32.5 -131.5q-51 -126 -167.5 -191t-291.5 -65q-141 0 -250.5 43t-169.5 121 q-43 55 -59 119.5t-16 175.5q0 29 4 161q8 161 8 277v109q-2 153 -5.5 187.5t-21.5 63.5q-18 27 -55 27l-31 -2q-12 -2 -31 -2q-39 0 -61.5 19t-22.5 51zM352 1544q0 15 8.5 24.5t38.5 30.5l277 197q26 16 43 16q21 0 43 -16l276 -197q29 -20 38 -30.5t9 -24.5 q0 -15 -13 -27t-30 -12q-14 0 -25 4t-52 25l-246 115l-246 -115q-41 -21 -52.5 -25t-25.5 -4q-17 0 -30 12t-13 27z" />
<glyph unicode="&#xdc;" horiz-adv-x="1454" d="M20 1305q0 32 21.5 51.5t56.5 19.5q29 0 70 -6q111 -18 186 -18q80 0 203 20q40 4 55 4q38 0 61 -18.5t23 -50.5q0 -29 -20 -49.5t-49 -20.5q-21 0 -56 6q-36 4 -49 4q-54 0 -75.5 -42t-22.5 -152q-1 -30 -2 -62t-1.5 -49t-0.5 -22q-8 -131 -8 -164v-135q0 -181 1 -218.5 t7 -80.5q7 -60 28 -97.5t64 -68.5q90 -64 225 -64q97 0 171.5 34.5t109.5 96.5q23 39 31 122.5t8 275.5v147q0 261 -2 317.5t-11 92.5q-7 31 -32 48t-62 17q-11 0 -43 -4q-38 -6 -55 -6q-26 0 -45 20.5t-19 49.5q0 32 25 52.5t64 20.5q14 0 151 -18q46 -6 102 -6 q52 0 179 20q36 4 51 4q38 0 61 -18.5t23 -50.5t-23 -51t-61 -19q-13 0 -21 2h-22q-21 0 -34.5 -4t-24.5 -20t-16.5 -38.5t-9 -68.5t-4.5 -100.5t-1 -143.5v-141q0 -317 -4.5 -380.5t-32.5 -131.5q-51 -126 -167.5 -191t-291.5 -65q-141 0 -250.5 43t-169.5 121 q-43 55 -59 119.5t-16 175.5q0 29 4 161q8 161 8 277v109q-2 153 -5.5 187.5t-21.5 63.5q-18 27 -55 27l-31 -2q-12 -2 -31 -2q-39 0 -61.5 19t-22.5 51zM410 1640q0 52 39.5 90.5t93.5 38.5t92.5 -38.5t38.5 -92.5q0 -55 -38.5 -94t-92.5 -39q-56 0 -94.5 39t-38.5 96z M780 1640q0 52 39.5 90.5t93.5 38.5t92.5 -38.5t38.5 -92.5q0 -55 -38.5 -94t-92.5 -39q-56 0 -94.5 39t-38.5 96z" />
<glyph unicode="&#xdd;" horiz-adv-x="1490" d="M-29 1298q0 34 22.5 56t57.5 22q40 0 84 -8q102 -18 182 -18q70 0 191 20q44 6 74 6q40 0 62 -18.5t22 -50.5q0 -72 -99 -72h-71q-18 2 -39 2q-27 0 -27 -16q0 -9 12 -27l314 -535l317 535q10 13 10 31q0 20 -26 20q-6 0 -94 -10q-46 -4 -56 -4q-37 0 -59.5 21t-22.5 53 t22 51.5t58 19.5q32 0 76 -6q120 -18 199 -18q89 0 194 18q43 6 72 6q35 0 55.5 -18.5t20.5 -50.5t-20 -51t-54 -19q-13 0 -49 4t-49 4q-49 0 -74 -35q-4 -6 -39 -61l-403 -633q0 -248 6 -297q6 -52 29.5 -76t68.5 -24q15 0 43 4q33 8 55 8q26 0 45 -20.5t19 -49.5 q0 -31 -25 -51t-63 -20q-13 0 -144 18q-60 8 -125 8q-45 0 -75 -3t-152 -21q-10 -2 -29 -2q-40 0 -65 19.5t-25 51.5q0 28 19 48t45 20q21 0 55 -6q32 -4 45 -4q76 0 92 67q13 48 13 222q0 53 -2 94l-398 628q-44 71 -64.5 88t-60.5 17q-23 0 -37 -2q-16 -2 -47 -2 q-86 0 -86 67zM594 1528q0 17 10.5 29.5t40.5 31.5l279 174q32 21 65 21q32 0 54 -24t22 -58q0 -26 -18 -44.5t-60 -35.5l-313 -135q-9 -6 -29 -6q-23 0 -37 13t-14 34z" />
<glyph unicode="&#xde;" horiz-adv-x="1267" d="M39 61q0 28 19 48t46 20q18 0 56 -6q28 -4 43 -4q49 0 72.5 27.5t29.5 91.5l2 358v172q0 345 -4 377q-11 100 -100 100q-13 0 -45 -4q-34 -6 -56 -6q-26 0 -44.5 20.5t-18.5 49.5q0 32 24.5 51.5t63.5 19.5q14 0 141 -18q57 -8 127 -8q38 0 55 1t56.5 5.5t120.5 17.5 q10 2 30 2q39 0 63.5 -19.5t24.5 -51.5q0 -29 -18.5 -49.5t-44.5 -20.5q-20 0 -55 6q-32 4 -47 4q-46 0 -73.5 -30.5t-27.5 -81.5q0 -19 5.5 -26t19.5 -7q31 0 139 12q54 4 88 4q238 0 359 -86q145 -103 145 -303q0 -105 -48 -193.5t-130 -132.5q-126 -69 -332 -69 q-52 0 -197 2q-31 0 -41 -11.5t-10 -46.5q0 -157 105 -157q13 0 45 4q35 6 55 6q26 0 44.5 -20t18.5 -48q0 -32 -25 -51.5t-65 -19.5q-14 0 -135 18q-57 8 -108 8q-42 0 -158 -14q-111 -12 -127 -12q-39 0 -63.5 19.5t-24.5 51.5zM477 524q0 -39 17 -49q26 -16 188 -16 q193 0 287 65t94 199q0 260 -324 260q-188 0 -233 -29q-19 -12 -24 -35.5t-5 -91.5v-303z" />
<glyph unicode="&#xdf;" d="M39 61q0 29 21.5 47.5t56.5 18.5q11 0 39 -4q34 -6 53 -6q35 0 47 39.5t12 160.5v41q-2 72 -2 134v133q0 160 -11.5 215t-43.5 55q-3 0 -39 -4q-8 -2 -22 -2q-36 0 -57 17.5t-21 49.5q0 29 18 47.5t47 18.5q19 0 43 -6q40 -8 51 -8q26 -2 39.5 16.5t26.5 75.5 q24 113 111 209q100 112 297 112q152 0 253 -81.5t101 -204.5q0 -94 -72 -166q-17 -17 -117 -95q-47 -36 -47 -61q0 -34 78 -80q126 -77 153 -95.5t62 -51.5q117 -108 117 -256q0 -151 -104 -258t-250 -107q-139 0 -228 92q-3 -44 -18 -63t-47 -19q-70 0 -70 91q0 19 4 55 q10 92 10 110q0 41 -4 74q-6 44 -6 72q0 41 19 64.5t53 23.5q33 0 48 -21t15 -67q0 -21 -2 -33v-37q0 -73 29 -121q25 -39 71.5 -62.5t98.5 -23.5q92 0 154.5 65.5t62.5 162.5q0 54 -19.5 91t-68.5 77q-38 30 -72 53t-188 121q-40 25 -64 62.5t-24 74.5q0 34 22 65t76 74 q103 83 132.5 120.5t29.5 84.5q0 58 -54 96.5t-134 38.5q-74 0 -137 -34.5t-95 -94.5q-61 -113 -61 -338v-135l6 -334q1 -23 2 -69.5t2 -67.5l2 -96q0 -60 -25 -92.5t-69 -32.5q-18 0 -45 6q-30 6 -47 6q-19 0 -58 -8q-32 -4 -53 -4q-41 0 -64.5 18.5t-23.5 50.5z" />
<glyph unicode="&#xe0;" horiz-adv-x="1155" d="M61 266q0 79 38.5 144.5t107.5 105.5q53 29 99 40.5t157 23.5q162 18 211 43q29 17 46 50.5t17 74.5q0 55 -18.5 89.5t-59.5 57.5q-61 37 -141 37q-71 0 -138 -31t-67 -65q0 -7 21 -21q28 -21 28 -67q0 -40 -30.5 -67.5t-75.5 -27.5q-53 0 -89 36.5t-36 90.5 q0 114 114 195.5t275 81.5q191 0 295 -107q80 -83 80 -250v-413q0 -87 3.5 -114.5t16.5 -47.5q17 -27 52 -27q38 0 55.5 31.5t17.5 99.5v101q0 31 17.5 48t48.5 17q34 0 49.5 -23t15.5 -75v-10l-2 -117q-3 -94 -57 -145.5t-151 -51.5q-86 0 -136.5 35.5t-72.5 110.5 q-54 -79 -133 -116.5t-193 -37.5q-165 0 -265 82.5t-100 218.5zM227 270q0 -79 56 -124.5t153 -45.5q137 0 215.5 74.5t81.5 206.5l2 145q-41 -41 -98.5 -59t-177.5 -29q-120 -12 -176 -52.5t-56 -115.5zM307 1364q0 32 21 54t51 22q21 0 59 -23l258 -160q43 -26 43 -55 q0 -20 -12 -33.5t-31 -13.5q-14 0 -26 6l-291 125q-72 32 -72 78z" />
<glyph unicode="&#xe1;" horiz-adv-x="1155" d="M61 266q0 79 38.5 144.5t107.5 105.5q53 29 99 40.5t157 23.5q162 18 211 43q29 17 46 50.5t17 74.5q0 55 -18.5 89.5t-59.5 57.5q-61 37 -141 37q-71 0 -138 -31t-67 -65q0 -7 21 -21q28 -21 28 -67q0 -40 -30.5 -67.5t-75.5 -27.5q-53 0 -89 36.5t-36 90.5 q0 114 114 195.5t275 81.5q191 0 295 -107q80 -83 80 -250v-413q0 -87 3.5 -114.5t16.5 -47.5q17 -27 52 -27q38 0 55.5 31.5t17.5 99.5v101q0 31 17.5 48t48.5 17q34 0 49.5 -23t15.5 -75v-10l-2 -117q-3 -94 -57 -145.5t-151 -51.5q-86 0 -136.5 35.5t-72.5 110.5 q-54 -79 -133 -116.5t-193 -37.5q-165 0 -265 82.5t-100 218.5zM227 270q0 -79 56 -124.5t153 -45.5q137 0 215.5 74.5t81.5 206.5l2 145q-41 -41 -98.5 -59t-177.5 -29q-120 -12 -176 -52.5t-56 -115.5zM367 1202q0 29 41 55l260 160q33 23 61 23q29 0 49.5 -20.5 t20.5 -51.5q0 -51 -72 -82l-291 -125q-9 -6 -26 -6q-19 0 -31 13.5t-12 33.5z" />
<glyph unicode="&#xe2;" horiz-adv-x="1155" d="M61 266q0 79 38.5 144.5t107.5 105.5q53 29 99 40.5t157 23.5q162 18 211 43q29 17 46 50.5t17 74.5q0 55 -18.5 89.5t-59.5 57.5q-61 37 -141 37q-71 0 -138 -31t-67 -65q0 -7 21 -21q28 -21 28 -67q0 -40 -30.5 -67.5t-75.5 -27.5q-53 0 -89 36.5t-36 90.5 q0 114 114 195.5t275 81.5q191 0 295 -107q80 -83 80 -250v-413q0 -87 3.5 -114.5t16.5 -47.5q17 -27 52 -27q38 0 55.5 31.5t17.5 99.5v101q0 31 17.5 48t48.5 17q34 0 49.5 -23t15.5 -75v-10l-2 -117q-3 -94 -57 -145.5t-151 -51.5q-86 0 -136.5 35.5t-72.5 110.5 q-54 -79 -133 -116.5t-193 -37.5q-165 0 -265 82.5t-100 218.5zM190 1194q0 12 6.5 19.5t36.5 29.5l259 182q26 15 40 15q13 0 39 -15l258 -182q29 -20 36 -28.5t7 -20.5q0 -15 -12 -26t-29 -11t-71 25l-228 106l-229 -106q-54 -25 -72 -25q-17 0 -29 11t-12 26zM227 270 q0 -79 56 -124.5t153 -45.5q137 0 215.5 74.5t81.5 206.5l2 145q-41 -41 -98.5 -59t-177.5 -29q-120 -12 -176 -52.5t-56 -115.5z" />
<glyph unicode="&#xe3;" horiz-adv-x="1155" d="M61 266q0 79 38.5 144.5t107.5 105.5q53 29 99 40.5t157 23.5q162 18 211 43q29 17 46 50.5t17 74.5q0 55 -18.5 89.5t-59.5 57.5q-61 37 -141 37q-71 0 -138 -31t-67 -65q0 -7 21 -21q28 -21 28 -67q0 -40 -30.5 -67.5t-75.5 -27.5q-53 0 -89 36.5t-36 90.5 q0 114 114 195.5t275 81.5q191 0 295 -107q80 -83 80 -250v-413q0 -87 3.5 -114.5t16.5 -47.5q17 -27 52 -27q38 0 55.5 31.5t17.5 99.5v101q0 31 17.5 48t48.5 17q34 0 49.5 -23t15.5 -75v-10l-2 -117q-3 -94 -57 -145.5t-151 -51.5q-86 0 -136.5 35.5t-72.5 110.5 q-54 -79 -133 -116.5t-193 -37.5q-165 0 -265 82.5t-100 218.5zM213 1204q0 69 60.5 120.5t138.5 51.5q34 0 68.5 -8.5t142.5 -44.5q41 -12 65 -12q31 0 52 11t59 48q7 10 24 10q12 0 19.5 -8.5t7.5 -21.5q0 -64 -61.5 -114t-139.5 -50q-52 0 -131 26q-105 37 -147 37 q-34 0 -56.5 -12.5t-48.5 -44.5q-12 -18 -26 -18q-11 0 -19 9t-8 21zM227 270q0 -79 56 -124.5t153 -45.5q137 0 215.5 74.5t81.5 206.5l2 145q-41 -41 -98.5 -59t-177.5 -29q-120 -12 -176 -52.5t-56 -115.5z" />
<glyph unicode="&#xe4;" horiz-adv-x="1155" d="M61 266q0 79 38.5 144.5t107.5 105.5q53 29 99 40.5t157 23.5q162 18 211 43q29 17 46 50.5t17 74.5q0 55 -18.5 89.5t-59.5 57.5q-61 37 -141 37q-71 0 -138 -31t-67 -65q0 -7 21 -21q28 -21 28 -67q0 -40 -30.5 -67.5t-75.5 -27.5q-53 0 -89 36.5t-36 90.5 q0 114 114 195.5t275 81.5q191 0 295 -107q80 -83 80 -250v-413q0 -87 3.5 -114.5t16.5 -47.5q17 -27 52 -27q38 0 55.5 31.5t17.5 99.5v101q0 31 17.5 48t48.5 17q34 0 49.5 -23t15.5 -75v-10l-2 -117q-3 -94 -57 -145.5t-151 -51.5q-86 0 -136.5 35.5t-72.5 110.5 q-54 -79 -133 -116.5t-193 -37.5q-165 0 -265 82.5t-100 218.5zM227 270q0 -79 56 -124.5t153 -45.5q137 0 215.5 74.5t81.5 206.5l2 145q-41 -41 -98.5 -59t-177.5 -29q-120 -12 -176 -52.5t-56 -115.5zM283 1288q0 46 34 79.5t80 33.5q47 0 81 -34t34 -81t-33.5 -81 t-79.5 -34q-49 0 -82.5 33.5t-33.5 83.5zM647 1288q0 46 34.5 79.5t80.5 33.5q47 0 81 -34t34 -81q0 -46 -33.5 -80.5t-79.5 -34.5q-50 0 -83.5 33.5t-33.5 83.5z" />
<glyph unicode="&#xe5;" horiz-adv-x="1155" d="M61 266q0 79 38.5 144.5t107.5 105.5q53 29 99 40.5t157 23.5q162 18 211 43q29 17 46 50.5t17 74.5q0 55 -18.5 89.5t-59.5 57.5q-61 37 -141 37q-71 0 -138 -31t-67 -65q0 -7 21 -21q28 -21 28 -67q0 -40 -30.5 -67.5t-75.5 -27.5q-53 0 -89 36.5t-36 90.5 q0 114 114 195.5t275 81.5q191 0 295 -107q80 -83 80 -250v-413q0 -87 3.5 -114.5t16.5 -47.5q17 -27 52 -27q38 0 55.5 31.5t17.5 99.5v101q0 31 17.5 48t48.5 17q34 0 49.5 -23t15.5 -75v-10l-2 -117q-3 -94 -57 -145.5t-151 -51.5q-86 0 -136.5 35.5t-72.5 110.5 q-54 -79 -133 -116.5t-193 -37.5q-165 0 -265 82.5t-100 218.5zM227 270q0 -79 56 -124.5t153 -45.5q137 0 215.5 74.5t81.5 206.5l2 145q-41 -41 -98.5 -59t-177.5 -29q-120 -12 -176 -52.5t-56 -115.5zM334 1346q0 75 56.5 129.5t133.5 54.5q78 0 133.5 -55.5t55.5 -133.5 q0 -77 -55.5 -132.5t-133.5 -55.5q-80 0 -135 55.5t-55 137.5zM428 1343q0 -40 28 -68t68 -28q38 0 66 28t28 66t-28 66.5t-66 28.5t-67 -28t-29 -65z" />
<glyph unicode="&#xe6;" horiz-adv-x="1714" d="M61 279q0 85 46.5 161.5t121.5 116.5q65 34 145.5 49t203.5 15h124q33 0 41.5 10t8.5 51q0 115 -66.5 183.5t-179.5 68.5q-63 0 -127 -27t-64 -55q0 -7 9 -16q26 -40 26 -72q0 -44 -32.5 -74.5t-79.5 -30.5q-50 0 -84.5 34.5t-34.5 84.5q0 114 116 197.5t273 83.5 q79 0 151 -23.5t119 -64.5q46 -40 76 -115q75 106 159.5 153.5t198.5 47.5t208 -50.5t147 -138.5q35 -59 56.5 -135.5t21.5 -146.5q0 -59 -11.5 -81t-42.5 -22h-645q-29 0 -37 -7t-8 -32q0 -148 86 -246t215 -98q72 0 132.5 29.5t97.5 83.5q16 23 23 38t26 71q6 22 24 34.5 t41 12.5q32 0 55 -21.5t23 -50.5q0 -33 -20 -80.5t-50 -85.5q-58 -78 -154.5 -122t-209.5 -44q-240 0 -363 203q-113 -203 -374 -203q-178 0 -285 85.5t-107 228.5zM227 283q0 -82 64.5 -132.5t167.5 -50.5q66 0 128 26t99 69q59 71 59 215v28q0 31 -7 38t-38 7h-161 q-82 0 -119.5 -5.5t-77.5 -24.5q-54 -25 -84.5 -70t-30.5 -100zM920 649q0 -15 9.5 -21.5t35.5 -6.5h467q27 0 37 5.5t10 22.5q0 109 -82 191t-189 82q-114 0 -201 -83t-87 -190z" />
<glyph unicode="&#xe7;" horiz-adv-x="1044" d="M80 502q0 252 132.5 404.5t352.5 152.5q163 0 271 -90.5t108 -225.5q0 -77 -41.5 -125.5t-107.5 -48.5q-49 0 -84 31.5t-35 75.5q0 82 102 94q-5 52 -35 86q-33 31 -81.5 49.5t-100.5 18.5q-143 0 -229 -115t-86 -305q0 -186 83 -295t224 -109q89 0 156 51.5t92 139.5 q15 59 20.5 74t16.5 24q22 25 51 25q34 0 57 -23t23 -57q0 -51 -32.5 -123t-76.5 -119q-54 -57 -117.5 -86t-164.5 -41l-27 -63q30 6 53 6q72 0 124 -46t52 -110q0 -72 -65 -120t-162 -48q-83 0 -149 36.5t-66 82.5q0 19 14 34t33 15q13 0 21.5 -6t35.5 -33q39 -39 107 -39 q46 0 76 22t30 56q0 32 -25.5 52t-66.5 20q-19 0 -30.5 -3t-67.5 -22q-12 -4 -23 -4q-24 0 -24 23q0 12 10 32l49 119q-110 19 -174 62q-107 69 -165 191.5t-58 279.5z" />
<glyph unicode="&#xe8;" horiz-adv-x="1081" d="M80 498q0 249 135 404t352 155q192 0 318.5 -129t126.5 -324q0 -82 -10 -98.5t-60 -16.5h-653q-25 0 -34 -6t-9 -26q0 -153 91.5 -255t229.5 -102q147 0 226 105q21 26 27.5 41t27.5 86q16 49 70 49q34 0 54.5 -21t20.5 -55q0 -39 -21 -89t-54 -91q-62 -75 -159.5 -117.5 t-209.5 -42.5q-215 0 -342 144t-127 389zM268 655q0 -17 9 -22.5t36 -5.5h488q25 0 35 5.5t10 20.5q0 25 -11 62t-26 65q-37 69 -98.5 105.5t-139.5 36.5q-79 0 -147 -37t-111 -103q-20 -28 -32.5 -65t-12.5 -62zM311 1364q0 32 21 54t51 22q21 0 59 -23l258 -160 q43 -26 43 -55q0 -20 -12 -33.5t-31 -13.5q-14 0 -26 6l-291 125q-72 32 -72 78z" />
<glyph unicode="&#xe9;" horiz-adv-x="1081" d="M80 498q0 249 135 404t352 155q192 0 318.5 -129t126.5 -324q0 -82 -10 -98.5t-60 -16.5h-653q-25 0 -34 -6t-9 -26q0 -153 91.5 -255t229.5 -102q147 0 226 105q21 26 27.5 41t27.5 86q16 49 70 49q34 0 54.5 -21t20.5 -55q0 -39 -21 -89t-54 -91q-62 -75 -159.5 -117.5 t-209.5 -42.5q-215 0 -342 144t-127 389zM268 655q0 -17 9 -22.5t36 -5.5h488q25 0 35 5.5t10 20.5q0 25 -11 62t-26 65q-37 69 -98.5 105.5t-139.5 36.5q-79 0 -147 -37t-111 -103q-20 -28 -32.5 -65t-12.5 -62zM391 1202q0 29 41 55l260 160q33 23 62 23t49 -20.5 t20 -51.5q0 -52 -71 -82l-291 -125q-9 -6 -27 -6q-19 0 -31 13.5t-12 33.5z" />
<glyph unicode="&#xea;" horiz-adv-x="1081" d="M80 498q0 249 135 404t352 155q192 0 318.5 -129t126.5 -324q0 -82 -10 -98.5t-60 -16.5h-653q-25 0 -34 -6t-9 -26q0 -153 91.5 -255t229.5 -102q147 0 226 105q21 26 27.5 41t27.5 86q16 49 70 49q34 0 54.5 -21t20.5 -55q0 -39 -21 -89t-54 -91q-62 -75 -159.5 -117.5 t-209.5 -42.5q-215 0 -342 144t-127 389zM213 1194q0 12 6.5 19.5t36.5 29.5l258 182q26 15 41 15q13 0 39 -15l258 -182q29 -20 36 -28.5t7 -20.5q0 -15 -12 -26t-29 -11q-18 0 -72 25l-227 106l-229 -106q-54 -25 -72 -25q-17 0 -29 11t-12 26zM268 655q0 -17 9 -22.5 t36 -5.5h488q25 0 35 5.5t10 20.5q0 25 -11 62t-26 65q-37 69 -98.5 105.5t-139.5 36.5q-79 0 -147 -37t-111 -103q-20 -28 -32.5 -65t-12.5 -62z" />
<glyph unicode="&#xeb;" horiz-adv-x="1081" d="M80 498q0 249 135 404t352 155q192 0 318.5 -129t126.5 -324q0 -82 -10 -98.5t-60 -16.5h-653q-25 0 -34 -6t-9 -26q0 -153 91.5 -255t229.5 -102q147 0 226 105q21 26 27.5 41t27.5 86q16 49 70 49q34 0 54.5 -21t20.5 -55q0 -39 -21 -89t-54 -91q-62 -75 -159.5 -117.5 t-209.5 -42.5q-215 0 -342 144t-127 389zM266 1288q0 46 34.5 79.5t80.5 33.5q47 0 81 -34t34 -81t-33.5 -81t-79.5 -34q-49 0 -83 33.5t-34 83.5zM268 655q0 -17 9 -22.5t36 -5.5h488q25 0 35 5.5t10 20.5q0 25 -11 62t-26 65q-37 69 -98.5 105.5t-139.5 36.5 q-79 0 -147 -37t-111 -103q-20 -28 -32.5 -65t-12.5 -62zM631 1288q0 46 34 79.5t80 33.5q47 0 81 -34t34 -81q0 -46 -33.5 -80.5t-78.5 -34.5q-50 0 -83.5 33.5t-33.5 83.5z" />
<glyph unicode="&#xec;" horiz-adv-x="634" d="M18 1364q0 32 21 54t51 22q22 0 60 -23l258 -160q43 -26 43 -55q0 -20 -12 -33.5t-31 -13.5q-15 0 -27 6l-291 125q-72 32 -72 78zM33 61q0 29 19.5 48.5t49.5 19.5q24 0 48 -6q30 -6 53 -6q18 0 28.5 11t16.5 47.5t8 92.5t2 158v168q0 101 -2 157.5t-9 92t-18 46.5 t-30 11q-8 0 -54 -8q-21 -6 -41 -6q-31 0 -51 18.5t-20 46.5q0 32 24.5 51t65.5 19q19 0 55 -4q58 -6 86 -6q11 0 43 4q37 6 58 6q25 0 41 -21t16 -55q0 -30 -2 -53q-8 -90 -8 -299v-168q0 -74 0.5 -119.5t3 -83.5t5.5 -56.5t10 -31.5t15 -16.5t21 -3.5q6 0 53 10q24 4 33 4 q34 0 55 -19.5t21 -48.5t-26 -49t-62 -20q-22 0 -97 10q-44 8 -106 8q-66 0 -115 -8q-85 -10 -112 -10q-35 0 -56.5 19t-21.5 50z" />
<glyph unicode="&#xed;" horiz-adv-x="634" d="M33 61q0 29 19.5 48.5t49.5 19.5q24 0 48 -6q30 -6 53 -6q18 0 28.5 11t16.5 47.5t8 92.5t2 158v168q0 101 -2 157.5t-9 92t-18 46.5t-30 11q-8 0 -54 -8q-21 -6 -41 -6q-31 0 -51 18.5t-20 46.5q0 32 24.5 51t65.5 19q19 0 55 -4q58 -6 86 -6q11 0 43 4q37 6 58 6 q25 0 41 -21t16 -55q0 -30 -2 -53q-8 -90 -8 -299v-168q0 -74 0.5 -119.5t3 -83.5t5.5 -56.5t10 -31.5t15 -16.5t21 -3.5q6 0 53 10q24 4 33 4q34 0 55 -19.5t21 -48.5t-26 -49t-62 -20q-22 0 -97 10q-44 8 -106 8q-66 0 -115 -8q-85 -10 -112 -10q-35 0 -56.5 19t-21.5 50z M100 1202q0 29 41 55l260 160q33 23 62 23t49 -20.5t20 -51.5q0 -52 -71 -82l-291 -125q-9 -6 -27 -6q-19 0 -31 13.5t-12 33.5z" />
<glyph unicode="&#xee;" horiz-adv-x="634" d="M-25 1194q0 12 6.5 19.5t36.5 29.5l258 182q26 15 41 15q13 0 39 -15l258 -182q29 -20 36 -28.5t7 -20.5q0 -15 -12 -26t-29 -11t-71 25l-228 106l-229 -106q-54 -25 -72 -25q-17 0 -29 11t-12 26zM33 61q0 29 19.5 48.5t49.5 19.5q24 0 48 -6q30 -6 53 -6q18 0 28.5 11 t16.5 47.5t8 92.5t2 158v168q0 101 -2 157.5t-9 92t-18 46.5t-30 11q-8 0 -54 -8q-21 -6 -41 -6q-31 0 -51 18.5t-20 46.5q0 32 24.5 51t65.5 19q19 0 55 -4q58 -6 86 -6q11 0 43 4q37 6 58 6q25 0 41 -21t16 -55q0 -30 -2 -53q-8 -90 -8 -299v-168q0 -74 0.5 -119.5 t3 -83.5t5.5 -56.5t10 -31.5t15 -16.5t21 -3.5q6 0 53 10q24 4 33 4q34 0 55 -19.5t21 -48.5t-26 -49t-62 -20q-22 0 -97 10q-44 8 -106 8q-66 0 -115 -8q-85 -10 -112 -10q-35 0 -56.5 19t-21.5 50z" />
<glyph unicode="&#xef;" horiz-adv-x="634" d="M29 1288q0 46 34 79.5t80 33.5q47 0 81 -34t34 -81t-33.5 -81t-79.5 -34q-49 0 -82.5 33.5t-33.5 83.5zM35 61q0 29 19.5 48.5t49.5 19.5q24 0 48 -6q30 -6 53 -6q18 0 28.5 11t16.5 47.5t8 92.5t2 158v168q0 101 -2 157.5t-9 92t-18 46.5t-30 11q-8 0 -54 -8 q-21 -6 -41 -6q-31 0 -51 18.5t-20 46.5q0 32 24.5 51t65.5 19q19 0 55 -4q59 -6 86 -6q11 0 43 4q38 6 58 6q25 0 41 -21t16 -55q0 -30 -2 -53q-8 -90 -8 -299v-168q0 -74 0.5 -119.5t3 -83.5t5.5 -56.5t10 -31.5t15 -16.5t21 -3.5q6 0 53 10q24 4 33 4q34 0 55 -19.5 t21 -48.5t-26 -49t-62 -20q-22 0 -97 10q-44 8 -106 8q-66 0 -115 -8q-85 -10 -112 -10q-35 0 -56.5 19t-21.5 50zM338 1288q0 46 34.5 79.5t80.5 33.5q47 0 80.5 -34t33.5 -81q0 -46 -33.5 -80.5t-78.5 -34.5q-49 0 -83 33.5t-34 83.5z" />
<glyph unicode="&#xf0;" horiz-adv-x="1118" d="M80 506q0 253 129.5 403t347.5 150q56 0 143 -19q-71 104 -168 160l-159 -94q-29 -19 -51 -19q-20 0 -34 14t-14 34q0 33 45 59l93 55q-42 13 -123 33q-35 6 -50.5 20.5t-15.5 40.5q0 32 20 52t54 20q44 0 122 -21.5t144 -52.5l144 86q30 15 45 15q19 0 33 -14.5 t14 -34.5q0 -31 -39 -56l-96 -57q173 -129 274.5 -336.5t101.5 -431.5q0 -246 -134.5 -396.5t-352.5 -150.5q-215 0 -344 148t-129 393zM246 512q0 -192 81 -302t222 -110q155 0 240 109.5t85 306.5q0 180 -73 295q-72 113 -240 113q-163 0 -244 -129q-33 -52 -52 -128 t-19 -155z" />
<glyph unicode="&#xf1;" d="M33 61q0 28 18.5 47t46.5 19q11 0 39 -4q27 -8 53 -8q29 0 44 22t20 70q0 12 2 102q0 21 2 150v164q0 115 -6 198q-3 38 -19.5 59t-42.5 21q-14 0 -51 -6q-10 -4 -30 -4q-76 0 -76 67q0 31 23.5 48.5t66.5 17.5q14 0 22 -2q95 -10 99 -10q3 0 35 4q34 6 59 6 q23 0 39 -17.5t16 -43.5v-58q53 63 92 90q40 28 107 46t129 18q83 0 161 -33t134 -92q76 -79 76 -252v-389q0 -106 10.5 -140t44.5 -34q21 0 45 6q32 4 45 4q28 0 47 -19t19 -45q0 -30 -24 -50.5t-58 -20.5q-42 0 -97 8q-49 8 -123 8q-34 0 -88 -4q-77 -12 -108 -12 q-34 0 -57 20t-23 51q0 29 18.5 46.5t49.5 17.5q14 0 38 -4q49 -8 50 -8q18 0 30 12t15 33q12 55 12 297v155q0 90 -7.5 134.5t-29.5 78.5q-28 47 -84 75t-123 28q-72 0 -134.5 -31.5t-96.5 -85.5q-29 -46 -40 -103t-11 -167v-168q2 -148 3.5 -176t8.5 -47q15 -37 45 -37 q20 0 47 8q21 8 47 8t44 -20.5t18 -49.5t-22.5 -48t-59.5 -19q-33 0 -107 12q-50 6 -100 6q-63 0 -115 -8q-72 -10 -102 -10q-38 0 -62 19t-24 50zM334 1204q0 69 60 120.5t138 51.5q34 0 68.5 -8.5t142.5 -44.5q40 -12 66 -12q31 0 52 11t59 48q7 10 24 10q12 0 19.5 -8.5 t7.5 -21.5q0 -64 -61.5 -114t-139.5 -50q-52 0 -131 26q-105 37 -147 37q-34 0 -56.5 -12.5t-48.5 -44.5q-12 -18 -27 -18q-10 0 -18 9t-8 21z" />
<glyph unicode="&#xf2;" horiz-adv-x="1118" d="M80 518q0 245 131 393t348 148q131 0 222 -43t155 -137q104 -144 104 -363q0 -250 -134 -400.5t-357 -150.5q-215 0 -342 149.5t-127 403.5zM246 512q0 -192 81 -302t222 -110q155 0 240 109.5t85 306.5q0 180 -73 295q-72 113 -240 113q-163 0 -244 -129 q-33 -52 -52 -128t-19 -155zM330 1364q0 32 21 54t50 22q22 0 60 -23l258 -160q43 -26 43 -55q0 -20 -12 -33.5t-31 -13.5q-15 0 -27 6l-291 125q-38 17 -54.5 35t-16.5 43z" />
<glyph unicode="&#xf3;" horiz-adv-x="1118" d="M80 518q0 245 131 393t348 148q131 0 222 -43t155 -137q104 -144 104 -363q0 -250 -134 -400.5t-357 -150.5q-215 0 -342 149.5t-127 403.5zM246 512q0 -192 81 -302t222 -110q155 0 240 109.5t85 306.5q0 180 -73 295q-72 113 -240 113q-163 0 -244 -129 q-33 -52 -52 -128t-19 -155zM410 1202q0 29 41 55l260 160q33 23 61 23q29 0 49.5 -20.5t20.5 -51.5q0 -51 -72 -82l-291 -125q-9 -6 -26 -6q-19 0 -31 13.5t-12 33.5z" />
<glyph unicode="&#xf4;" horiz-adv-x="1118" d="M80 518q0 245 131 393t348 148q131 0 222 -43t155 -137q104 -144 104 -363q0 -250 -134 -400.5t-357 -150.5q-215 0 -342 149.5t-127 403.5zM219 1194q0 12 6.5 19.5t36.5 29.5l258 182q26 15 41 15q13 0 39 -15l258 -182q29 -20 36 -28.5t7 -20.5q0 -15 -12 -26t-29 -11 q-18 0 -72 25l-227 106l-229 -106q-54 -25 -72 -25q-17 0 -29 11t-12 26zM246 512q0 -192 81 -302t222 -110q155 0 240 109.5t85 306.5q0 180 -73 295q-72 113 -240 113q-163 0 -244 -129q-33 -52 -52 -128t-19 -155z" />
<glyph unicode="&#xf5;" horiz-adv-x="1118" d="M80 518q0 245 131 393t348 148q131 0 222 -43t155 -137q104 -144 104 -363q0 -250 -134 -400.5t-357 -150.5q-215 0 -342 149.5t-127 403.5zM242 1204q0 69 60 120.5t138 51.5q34 0 68.5 -8.5t142.5 -44.5q41 -12 66 -12q31 0 51.5 11t58.5 48q7 10 25 10q12 0 19.5 -8.5 t7.5 -21.5q0 -64 -61.5 -114t-139.5 -50q-52 0 -131 26q-105 37 -148 37q-33 0 -55 -12t-49 -45q-12 -18 -27 -18q-10 0 -18 9t-8 21zM246 512q0 -192 81 -302t222 -110q155 0 240 109.5t85 306.5q0 180 -73 295q-72 113 -240 113q-163 0 -244 -129q-33 -52 -52 -128 t-19 -155z" />
<glyph unicode="&#xf6;" horiz-adv-x="1118" d="M80 518q0 245 131 393t348 148q131 0 222 -43t155 -137q104 -144 104 -363q0 -250 -134 -400.5t-357 -150.5q-215 0 -342 149.5t-127 403.5zM246 512q0 -192 81 -302t222 -110q155 0 240 109.5t85 306.5q0 180 -73 295q-72 113 -240 113q-163 0 -244 -129 q-33 -52 -52 -128t-19 -155zM264 1288q0 46 34.5 79.5t80.5 33.5q47 0 81 -34t34 -81t-33.5 -81t-79.5 -34q-49 0 -83 33.5t-34 83.5zM629 1288q0 46 34 79.5t80 33.5q47 0 81 -34t34 -81q0 -46 -33.5 -80.5t-79.5 -34.5q-49 0 -82.5 33.5t-33.5 83.5z" />
<glyph unicode="&#xf7;" d="M135 743v9q0 38 17.5 53.5t60.5 15.5h879q43 0 60 -16t17 -57q0 -68 -77 -68h-879q-78 0 -78 63zM528 430q0 53 35.5 88t89.5 35t89.5 -35t35.5 -90q0 -54 -36 -89.5t-91 -35.5q-53 0 -88 36t-35 91zM528 1083q0 53 35.5 88t89.5 35t89.5 -35t35.5 -90q0 -54 -36 -89.5 t-91 -35.5q-53 0 -88 36t-35 91z" />
<glyph unicode="&#xf8;" horiz-adv-x="1118" d="M78 475q0 258 137.5 420t357.5 162q118 0 215 -53l66 102q12 21 18.5 26t20.5 5h76q20 0 20 -17q0 -5 -6 -14l-100 -164q157 -157 157 -412t-133.5 -410t-351.5 -155q-125 0 -238 58l-77 -127q-10 -19 -16 -24t-17 -5h-84q-17 0 -17 16q0 3 5 13l116 192q-79 88 -114 178 t-35 209zM246 479q0 -88 15.5 -148t55.5 -124l396 690q-67 29 -131 29q-157 0 -246.5 -119t-89.5 -328zM399 133q67 -37 150 -37q155 0 244.5 120t89.5 327q0 95 -19 159.5t-65 124.5z" />
<glyph unicode="&#xf9;" horiz-adv-x="1267" d="M0 956q0 29 24 47.5t64 18.5q17 0 53 -4q62 -4 68 -4q16 0 63 6q14 2 39 2q32 0 47 -18.5t15 -59.5q0 -22 -8 -326v-133q0 -221 45 -288q29 -46 85 -71.5t126 -25.5q85 0 152 40t95 106q20 47 25.5 101.5t5.5 199.5v115q0 76 -2 118t-7.5 69t-15 35.5t-26.5 8.5 q-7 0 -39 -4q-10 -2 -27 -2q-31 0 -50 18t-19 47q0 31 22.5 50.5t57.5 19.5l51 -2q54 -4 65 -4q14 0 60 4q14 2 37 2q61 0 61 -66q0 -11 -4 -47q-10 -117 -10 -227v-315q0 -148 12 -198t47 -50q18 0 45 6q28 4 39 4q31 0 49.5 -18.5t18.5 -49.5q0 -32 -23 -50.5t-63 -18.5 q-18 0 -54 4q-41 8 -63 8q-16 0 -43 -6q-24 -6 -43 -6q-25 0 -41 17t-16 42v64q-62 -80 -136 -115t-186 -35q-114 0 -202 39.5t-134 110.5q-34 53 -41.5 104.5t-7.5 229.5v169q0 166 -16 240q-4 19 -15.5 30t-25.5 11q-15 0 -45 -6q-24 -4 -37 -4q-34 0 -53 17.5t-19 49.5z M350 1364q0 32 21 54t51 22q21 0 59 -23l258 -160q43 -26 43 -55q0 -20 -12 -33.5t-31 -13.5q-14 0 -26 6l-291 125q-72 32 -72 78z" />
<glyph unicode="&#xfa;" horiz-adv-x="1267" d="M0 956q0 29 24 47.5t64 18.5q17 0 53 -4q62 -4 68 -4q16 0 63 6q14 2 39 2q32 0 47 -18.5t15 -59.5q0 -22 -8 -326v-133q0 -221 45 -288q29 -46 85 -71.5t126 -25.5q85 0 152 40t95 106q20 47 25.5 101.5t5.5 199.5v115q0 76 -2 118t-7.5 69t-15 35.5t-26.5 8.5 q-7 0 -39 -4q-10 -2 -27 -2q-31 0 -50 18t-19 47q0 31 22.5 50.5t57.5 19.5l51 -2q54 -4 65 -4q14 0 60 4q14 2 37 2q61 0 61 -66q0 -11 -4 -47q-10 -117 -10 -227v-315q0 -148 12 -198t47 -50q18 0 45 6q28 4 39 4q31 0 49.5 -18.5t18.5 -49.5q0 -32 -23 -50.5t-63 -18.5 q-18 0 -54 4q-41 8 -63 8q-16 0 -43 -6q-24 -6 -43 -6q-25 0 -41 17t-16 42v64q-62 -80 -136 -115t-186 -35q-114 0 -202 39.5t-134 110.5q-34 53 -41.5 104.5t-7.5 229.5v169q0 166 -16 240q-4 19 -15.5 30t-25.5 11q-15 0 -45 -6q-24 -4 -37 -4q-34 0 -53 17.5t-19 49.5z M451 1202q0 29 41 55l260 160q33 23 61 23q29 0 49.5 -20.5t20.5 -51.5q0 -51 -72 -82l-291 -125q-9 -6 -26 -6q-19 0 -31 13.5t-12 33.5z" />
<glyph unicode="&#xfb;" horiz-adv-x="1267" d="M0 956q0 29 24 47.5t64 18.5q17 0 53 -4q62 -4 68 -4q16 0 63 6q14 2 39 2q32 0 47 -18.5t15 -59.5q0 -22 -8 -326v-133q0 -221 45 -288q29 -46 85 -71.5t126 -25.5q85 0 152 40t95 106q20 47 25.5 101.5t5.5 199.5v115q0 76 -2 118t-7.5 69t-15 35.5t-26.5 8.5 q-7 0 -39 -4q-10 -2 -27 -2q-31 0 -50 18t-19 47q0 31 22.5 50.5t57.5 19.5l51 -2q54 -4 65 -4q14 0 60 4q14 2 37 2q61 0 61 -66q0 -11 -4 -47q-10 -117 -10 -227v-315q0 -148 12 -198t47 -50q18 0 45 6q28 4 39 4q31 0 49.5 -18.5t18.5 -49.5q0 -32 -23 -50.5t-63 -18.5 q-18 0 -54 4q-41 8 -63 8q-16 0 -43 -6q-24 -6 -43 -6q-25 0 -41 17t-16 42v64q-62 -80 -136 -115t-186 -35q-114 0 -202 39.5t-134 110.5q-34 53 -41.5 104.5t-7.5 229.5v169q0 166 -16 240q-4 19 -15.5 30t-25.5 11q-15 0 -45 -6q-24 -4 -37 -4q-34 0 -53 17.5t-19 49.5z M293 1194q0 12 6.5 19.5t36.5 29.5l258 182q26 15 41 15q13 0 39 -15l258 -182q29 -20 36 -28.5t7 -20.5q0 -15 -12 -26t-29 -11q-18 0 -72 25l-227 106l-229 -106q-54 -25 -72 -25q-17 0 -29 11t-12 26z" />
<glyph unicode="&#xfc;" horiz-adv-x="1267" d="M0 956q0 29 24 47.5t64 18.5q17 0 53 -4q62 -4 68 -4q16 0 63 6q14 2 39 2q32 0 47 -18.5t15 -59.5q0 -22 -8 -326v-133q0 -221 45 -288q29 -46 85 -71.5t126 -25.5q85 0 152 40t95 106q20 47 25.5 101.5t5.5 199.5v115q0 76 -2 118t-7.5 69t-15 35.5t-26.5 8.5 q-7 0 -39 -4q-10 -2 -27 -2q-31 0 -50 18t-19 47q0 31 22.5 50.5t57.5 19.5l51 -2q54 -4 65 -4q14 0 60 4q14 2 37 2q61 0 61 -66q0 -11 -4 -47q-10 -117 -10 -227v-315q0 -148 12 -198t47 -50q18 0 45 6q28 4 39 4q31 0 49.5 -18.5t18.5 -49.5q0 -32 -23 -50.5t-63 -18.5 q-18 0 -54 4q-41 8 -63 8q-16 0 -43 -6q-24 -6 -43 -6q-25 0 -41 17t-16 42v64q-62 -80 -136 -115t-186 -35q-114 0 -202 39.5t-134 110.5q-34 53 -41.5 104.5t-7.5 229.5v169q0 166 -16 240q-4 19 -15.5 30t-25.5 11q-15 0 -45 -6q-24 -4 -37 -4q-34 0 -53 17.5t-19 49.5z M324 1288q0 46 34 79.5t80 33.5q47 0 81 -34t34 -81t-33.5 -81t-79.5 -34q-49 0 -82.5 33.5t-33.5 83.5zM688 1288q0 46 34.5 79.5t80.5 33.5q47 0 81 -34t34 -81q0 -46 -33.5 -80.5t-79.5 -34.5q-49 0 -83 33.5t-34 83.5z" />
<glyph unicode="&#xfd;" horiz-adv-x="1230" d="M-53 -197q0 61 38 101.5t95 40.5q47 0 77.5 -28t30.5 -71q0 -64 -59 -82q33 -47 117 -47q145 0 233 129q49 73 49 136q0 31 -10 66.5t-45 123.5l-225 569q-7 17 -16 41t-9 25q-20 51 -37.5 71.5t-42.5 20.5q-7 0 -43 -8q-24 -6 -45 -6q-29 0 -49 18.5t-20 46.5 q0 34 25 53t69 19q23 0 129 -12q10 -2 45 -2q88 0 154 8q58 6 88 6q37 0 59.5 -19.5t22.5 -50.5q0 -30 -21 -47.5t-57 -17.5q-9 0 -37 4q-27 6 -43 6q-11 0 -19 -8.5t-8 -20.5q0 -17 8 -41l236 -692l250 680q10 30 10 47q0 35 -47 35q-11 0 -39 -4q-40 -4 -47 -4 q-25 0 -44.5 19.5t-19.5 45.5q0 31 24 49.5t64 18.5q19 0 115 -12q36 -4 64 -4q33 0 123 8q41 8 77 8q43 0 66.5 -18t23.5 -52q0 -29 -18 -47t-49 -18q-11 0 -31 4q-27 6 -39 6q-22 0 -37.5 -21t-40.5 -81l-278 -699q-56 -140 -91 -207t-83 -129q-64 -84 -156 -131t-192 -47 q-125 0 -210 63.5t-85 157.5zM485 1202q0 29 41 55l260 160q33 23 62 23t49.5 -20.5t20.5 -51.5q0 -51 -72 -82l-291 -125q-9 -6 -27 -6q-19 0 -31 13.5t-12 33.5z" />
<glyph unicode="&#xfe;" horiz-adv-x="1228" d="M18 -293q0 26 20 45t48 19q13 0 41 -4q30 -9 51 -9q26 0 38 19.5t15 70.5q4 20 13 623v561q0 104 -5.5 153t-18.5 68t-42 19q-7 0 -53 -10q-30 -5 -37 -5q-30 0 -50 19t-20 47q0 70 82 70q9 0 90 -9q40 -4 54 -4q26 0 61 6q47 7 64 7q45 0 45 -56q0 -20 -2 -30 q-6 -89 -11 -185q-2 -35 -5 -109t-5 -114q58 83 134 121.5t182 38.5q204 0 324 -142t120 -385q0 -258 -129 -412.5t-344 -154.5q-177 0 -287 125v-170q0 -95 13.5 -130.5t48.5 -33.5q13 0 49 8q35 5 39 5q28 0 46.5 -19.5t18.5 -48.5t-24.5 -48.5t-61.5 -19.5q-34 0 -92 9 q-58 6 -135 6q-42 0 -82 -4q-23 -2 -48.5 -4t-40 -3.5t-20.5 -1.5q-35 0 -59.5 20.5t-24.5 51.5zM399 465q0 -96 8 -143t31 -91q34 -63 95.5 -97t142.5 -34q148 0 228.5 108.5t80.5 307.5q0 196 -75.5 302t-215.5 106q-87 0 -158.5 -47t-103.5 -125q-33 -87 -33 -287z" />
<glyph unicode="&#xff;" horiz-adv-x="1230" d="M-53 -197q0 61 38 101.5t95 40.5q47 0 77.5 -28t30.5 -71q0 -64 -59 -82q33 -47 117 -47q145 0 233 129q49 73 49 136q0 31 -10 66.5t-45 123.5l-225 569q-7 17 -16 41t-9 25q-20 51 -37.5 71.5t-42.5 20.5q-7 0 -43 -8q-24 -6 -45 -6q-29 0 -49 18.5t-20 46.5 q0 34 25 53t69 19q23 0 129 -12q10 -2 45 -2q88 0 154 8q58 6 88 6q37 0 59.5 -19.5t22.5 -50.5q0 -30 -21 -47.5t-57 -17.5q-9 0 -37 4q-27 6 -43 6q-11 0 -19 -8.5t-8 -20.5q0 -17 8 -41l236 -692l250 680q10 30 10 47q0 35 -47 35q-11 0 -39 -4q-40 -4 -47 -4 q-25 0 -44.5 19.5t-19.5 45.5q0 31 24 49.5t64 18.5q19 0 115 -12q36 -4 64 -4q33 0 123 8q41 8 77 8q43 0 66.5 -18t23.5 -52q0 -29 -18 -47t-49 -18q-11 0 -31 4q-27 6 -39 6q-22 0 -37.5 -21t-40.5 -81l-278 -699q-56 -140 -91 -207t-83 -129q-64 -84 -156 -131t-192 -47 q-125 0 -210 63.5t-85 157.5zM338 1288q0 46 34.5 79.5t80.5 33.5q47 0 80.5 -34t33.5 -81t-33 -81t-79 -34q-49 0 -83 33.5t-34 83.5zM702 1288q0 46 34.5 79.5t80.5 33.5q47 0 81 -34t34 -81q0 -46 -33.5 -80.5t-79.5 -34.5q-49 0 -83 33.5t-34 83.5z" />
<glyph unicode="&#x152;" horiz-adv-x="2125" d="M78 674q0 333 158 532t423 199q125 0 224 -45.5t184 -142.5l-12 43q-11 46 -11 55q0 26 26 43.5t63 17.5q31 0 104 -6q50 -4 285 -4q139 0 295 8q25 2 59 2q47 0 72.5 -24t25.5 -68t-8 -104q-6 -52 -6 -111q0 -48 6 -104q4 -70 4 -91q0 -40 -19 -61.5t-53 -21.5 q-41 0 -57.5 31.5t-15.5 107.5l2 141q0 82 -22 118t-79 46q-46 10 -356 10q-92 0 -124 -26.5t-32 -104.5v-229q0 -52 16.5 -68t72.5 -16h98q117 0 117 90q0 19 -7 63q-8 36 -8 70q0 35 20 56.5t54 21.5t54 -21.5t20 -58.5q0 -30 -6 -74q-19 -111 -19 -227q0 -120 14 -215 q7 -47 7 -68q0 -34 -20 -55t-52 -21t-51 22.5t-19 61.5q0 20 4 66q7 44 7 68q0 41 -28 64.5t-79 23.5h-106q-56 0 -72.5 -15t-16.5 -67v-340q0 -57 14 -84.5t48 -34.5q27 -6 219 -6h109q82 0 127.5 6.5t74.5 29t38 57.5t9 99q0 58 -2 95q-2 31 -2 63q0 102 74 102 q35 0 54.5 -22t19.5 -62q0 -39 -6 -94q-6 -68 -6 -137q0 -59 2 -88q6 -58 6 -84q0 -96 -95 -96l-387 14l-305 -8q-70 -6 -104 -6q-31 0 -48.5 15t-17.5 42q0 40 19 121q-53 -67 -88 -102q-114 -105 -312 -105q-266 0 -421.5 192.5t-155.5 520.5zM260 700 q0 -281 106.5 -441.5t292.5 -160.5q219 0 318 193q37 73 59.5 182t22.5 221q0 271 -107 430q-46 69 -119 106.5t-165 37.5q-205 0 -314 -176q-43 -70 -68.5 -177.5t-25.5 -214.5z" />
<glyph unicode="&#x153;" horiz-adv-x="1826" d="M78 500q0 248 132.5 402.5t344.5 154.5q133 0 224 -55.5t151 -172.5q120 228 387 228q203 0 321.5 -129t118.5 -350q0 -53 -11 -73t-42 -20h-655q-29 0 -38.5 -9t-9.5 -38q0 -141 90.5 -239.5t219.5 -98.5q71 0 132.5 30t102.5 85q19 23 24.5 38t20.5 79q4 22 23.5 35.5 t44.5 13.5q34 0 56 -23.5t22 -58.5q0 -75 -66 -160q-129 -174 -381 -174q-129 0 -217 51.5t-160 169.5q-95 -221 -368 -221q-217 0 -342 143.5t-125 391.5zM244 504q0 -186 81.5 -295t221.5 -109q182 0 256 158q51 104 51 246q0 196 -80 307t-221 111q-156 0 -236 -125 q-73 -120 -73 -293zM1028 653q0 -17 9.5 -23.5t35.5 -6.5h467q31 0 40 7t9 32q0 108 -78.5 184t-191.5 76q-75 0 -140 -36t-106 -102q-45 -65 -45 -131z" />
<glyph unicode="&#x178;" horiz-adv-x="1490" d="M-29 1298q0 34 22.5 56t57.5 22q40 0 84 -8q102 -18 182 -18q70 0 191 20q44 6 74 6q40 0 62 -18.5t22 -50.5q0 -72 -99 -72h-71q-18 2 -39 2q-27 0 -27 -16q0 -9 12 -27l314 -535l317 535q10 13 10 31q0 20 -26 20q-6 0 -94 -10q-46 -4 -56 -4q-37 0 -59.5 21t-22.5 53 t22 51.5t58 19.5q32 0 76 -6q120 -18 199 -18q89 0 194 18q43 6 72 6q35 0 55.5 -18.5t20.5 -50.5t-20 -51t-54 -19q-13 0 -49 4t-49 4q-49 0 -74 -35q-4 -6 -39 -61l-403 -633q0 -248 6 -297q6 -52 29.5 -76t68.5 -24q15 0 43 4q33 8 55 8q26 0 45 -20.5t19 -49.5 q0 -31 -25 -51t-63 -20q-13 0 -144 18q-60 8 -125 8q-45 0 -75 -3t-152 -21q-10 -2 -29 -2q-40 0 -65 19.5t-25 51.5q0 28 19 48t45 20q21 0 55 -6q32 -4 45 -4q76 0 92 67q13 48 13 222q0 53 -2 94l-398 628q-44 71 -64.5 88t-60.5 17q-23 0 -37 -2q-16 -2 -47 -2 q-86 0 -86 67zM428 1640q0 52 39.5 90.5t93.5 38.5t92.5 -38.5t38.5 -92.5q0 -55 -38.5 -94t-92.5 -39q-56 0 -94.5 39t-38.5 96zM799 1640q0 52 39.5 90.5t93.5 38.5t92.5 -38.5t38.5 -92.5q0 -55 -38.5 -94t-92.5 -39q-56 0 -94.5 39t-38.5 96z" />
<glyph unicode="&#x2c6;" horiz-adv-x="1007" d="M162 1194q0 12 6.5 19.5t36.5 29.5l258 182q26 15 41 15q13 0 39 -15l258 -182q29 -20 36 -28.5t7 -20.5q0 -15 -12 -26t-29 -11q-18 0 -72 25l-227 106l-230 -106q-54 -25 -71 -25t-29 11t-12 26z" />
<glyph unicode="&#x2dc;" horiz-adv-x="1007" d="M186 1204q0 69 60.5 120.5t138.5 51.5q34 0 68.5 -8.5t142.5 -44.5q41 -12 66 -12q31 0 51.5 11t58.5 48q7 10 25 10q26 0 26 -30q0 -64 -61 -114t-139 -50q-52 0 -131 26q-105 37 -148 37q-33 0 -55 -12t-49 -45q-12 -18 -27 -18q-11 0 -19 9t-8 21z" />
<glyph unicode="&#x2000;" horiz-adv-x="936" />
<glyph unicode="&#x2001;" horiz-adv-x="1872" />
<glyph unicode="&#x2002;" horiz-adv-x="936" />
<glyph unicode="&#x2003;" horiz-adv-x="1872" />
<glyph unicode="&#x2004;" horiz-adv-x="624" />
<glyph unicode="&#x2005;" horiz-adv-x="468" />
<glyph unicode="&#x2006;" horiz-adv-x="312" />
<glyph unicode="&#x2007;" horiz-adv-x="312" />
<glyph unicode="&#x2008;" horiz-adv-x="234" />
<glyph unicode="&#x2009;" horiz-adv-x="374" />
<glyph unicode="&#x200a;" horiz-adv-x="104" />
<glyph unicode="&#x2010;" horiz-adv-x="485" d="M0 547q0 32 22.5 51.5t59.5 19.5h321q35 0 58.5 -20t23.5 -49q0 -31 -23.5 -52.5t-58.5 -21.5h-321q-37 0 -59.5 20t-22.5 52z" />
<glyph unicode="&#x2011;" horiz-adv-x="485" d="M0 547q0 32 22.5 51.5t59.5 19.5h321q35 0 58.5 -20t23.5 -49q0 -31 -23.5 -52.5t-58.5 -21.5h-321q-37 0 -59.5 20t-22.5 52z" />
<glyph unicode="&#x2012;" horiz-adv-x="485" d="M0 547q0 32 22.5 51.5t59.5 19.5h321q35 0 58.5 -20t23.5 -49q0 -31 -23.5 -52.5t-58.5 -21.5h-321q-37 0 -59.5 20t-22.5 52z" />
<glyph unicode="&#x2013;" d="M231 547q0 32 22.5 51.5t59.5 19.5h680q35 0 58.5 -20t23.5 -49q0 -32 -23.5 -53t-58.5 -21h-680q-37 0 -59.5 20t-22.5 52z" />
<glyph unicode="&#x2014;" horiz-adv-x="1564" d="M74 547q0 32 22.5 51.5t59.5 19.5h1255q35 0 58.5 -20t23.5 -49q0 -32 -23.5 -53t-58.5 -21h-1255q-37 0 -59.5 20t-22.5 52z" />
<glyph unicode="&#x2018;" horiz-adv-x="522" d="M113 1038q0 153 102 297q38 57 63 80t48 23q15 0 27 -12t12 -29q0 -12 -23 -45q-43 -56 -76 -123t-33 -99q0 -22 13 -27t67 -7q44 -2 75.5 -38t31.5 -87q0 -56 -40.5 -94.5t-100.5 -38.5q-72 0 -119 56t-47 144z" />
<glyph unicode="&#x2019;" horiz-adv-x="522" d="M100 1305q0 57 41 95t101 38q72 0 119 -56.5t47 -144.5q0 -149 -103 -297q-36 -56 -61 -79t-49 -23q-15 0 -27 12t-12 29t22 45q45 59 76 123t31 98q0 22 -13 28t-67 7q-43 2 -74 39t-31 86z" />
<glyph unicode="&#x201a;" horiz-adv-x="522" d="M102 92q0 57 41 95t101 38q72 0 118 -56t46 -144q0 -147 -101 -297q-39 -57 -63 -80t-47 -23q-15 0 -27 13t-12 28q0 17 22 45q44 60 75.5 124.5t31.5 96.5q0 22 -13 28t-67 7q-43 2 -74 39t-31 86z" />
<glyph unicode="&#x201c;" horiz-adv-x="894" d="M115 1038q0 152 100 297q39 57 63.5 80t47.5 23q15 0 27 -13t12 -28t-23 -45q-45 -59 -77 -124t-32 -98q0 -22 13 -27t67 -7q44 -2 75.5 -38t31.5 -87q0 -56 -40.5 -94.5t-100.5 -38.5q-72 0 -118 56t-46 144zM485 1038q0 150 101 297q39 57 63 80t47 23q15 0 27 -12 t12 -29q0 -14 -22 -45q-42 -55 -74.5 -122.5t-32.5 -99.5q0 -22 13 -27t67 -7q44 -2 75.5 -38t31.5 -87q0 -55 -42 -94t-102 -39q-72 0 -118 56t-46 144z" />
<glyph unicode="&#x201d;" horiz-adv-x="894" d="M102 1305q0 57 41 95t101 38q72 0 118 -56.5t46 -144.5q0 -147 -101 -297q-38 -57 -62.5 -79.5t-47.5 -22.5q-15 0 -27 12t-12 29q0 14 22 45q45 59 76 123t31 98q0 22 -13 28t-67 7q-43 2 -74 39t-31 86zM473 1305q0 57 41.5 95t101.5 38q71 0 117.5 -57t46.5 -144 q0 -149 -100 -297q-39 -56 -63.5 -79t-47.5 -23q-15 0 -27 12t-12 29q0 12 23 45q43 58 74.5 123t31.5 98q0 22 -12.5 28t-66.5 7q-44 1 -75.5 38t-31.5 87z" />
<glyph unicode="&#x201e;" horiz-adv-x="894" d="M102 92q0 57 41 95t101 38q72 0 118 -56t46 -144q0 -147 -101 -297q-39 -57 -63 -80t-47 -23q-15 0 -27 13t-12 28q0 17 22 45q44 60 75.5 124.5t31.5 96.5q0 22 -13 28t-67 7q-43 2 -74 39t-31 86zM473 92q0 56 41.5 94.5t101.5 38.5q71 0 117.5 -56.5t46.5 -143.5 q0 -149 -100 -297q-38 -57 -63 -80t-48 -23q-15 0 -27 12t-12 29q0 15 23 45q43 57 74.5 123t31.5 98q0 22 -12.5 28t-66.5 7q-43 2 -75 39t-32 86z" />
<glyph unicode="&#x2022;" horiz-adv-x="1366" d="M401 692q0 120 83.5 202.5t205.5 82.5q114 0 196.5 -83.5t82.5 -199.5q0 -118 -83 -201t-200 -83t-201 82.5t-84 199.5z" />
<glyph unicode="&#x2026;" horiz-adv-x="1677" d="M152 98q0 50 36.5 86.5t87.5 36.5q53 0 92.5 -38t39.5 -89q0 -52 -38 -90.5t-89 -38.5t-90 40t-39 93zM711 98q0 50 37 86.5t88 36.5q53 0 92 -38t39 -89q0 -52 -38 -90.5t-89 -38.5t-90 40t-39 93zM1270 98q0 50 37 86.5t88 36.5q53 0 92 -38t39 -89q0 -52 -38 -90.5 t-89 -38.5t-90 40t-39 93z" />
<glyph unicode="&#x202f;" horiz-adv-x="374" />
<glyph unicode="&#x2039;" horiz-adv-x="260" d="M-6 547q0 7 8 18l203 324q13 20 28 20q27 0 27 -28q0 -19 -4 -31l-102 -303l108 -322q6 -18 6 -24q0 -12 -8 -20.5t-20 -8.5q-19 0 -33 21l-209 339q-4 8 -4 15z" />
<glyph unicode="&#x203a;" horiz-adv-x="260" d="M-6 203q0 6 4 22l108 322l-102 303q-6 15 -6 31q0 28 27 28q20 0 30 -20l203 -324q8 -11 8 -18t-4 -15l-209 -339q-12 -21 -33 -21q-12 0 -19 8.5t-7 22.5z" />
<glyph unicode="&#x205f;" horiz-adv-x="468" />
<glyph unicode="&#x2122;" horiz-adv-x="1937" d="M20 1073q0 1 5 51q4 54 4 68q0 37 -4 57q-1 9 -2 21t-2 19.5t-1 10.5q0 56 54 56q47 0 80 -2q62 -4 243 -4q107 0 236 6q20 2 53 2q66 0 66 -53l-2 -48q-7 -58 -7 -75q0 -27 5 -52q4 -50 4 -59q0 -25 -15 -39t-41 -14q-53 0 -53 63q0 18 6 88q2 10 2 33q0 37 -21.5 53.5 t-68.5 16.5h-35q-25 0 -45 -7t-26 -18q-15 -30 -15 -231v-96q0 -152 1 -180.5t5 -45.5q10 -30 50 -30q16 0 24 2q28 4 35 4q19 0 32 -13t13 -30q0 -20 -16.5 -32.5t-44.5 -12.5q-8 0 -78 8q-40 4 -78 4q-45 0 -141 -10q-6 -2 -17 -2q-28 0 -44.5 12.5t-16.5 32.5q0 17 13 30 t32 13q3 0 35 -4q8 -2 26 -2q32 0 45 26q6 13 7.5 44.5t1.5 185.5v96q0 154 -2 184.5t-11 44.5q-12 27 -69 27h-41q-43 0 -61.5 -17t-18.5 -57q0 -17 6 -78q2 -10 2 -30q0 -40 -13 -58t-44 -18q-52 0 -52 59zM795 629q0 17 13 30t32 13q2 0 34 -4q8 -2 25 -2q39 0 49 32 q4 15 5 43t1 181v96q0 152 -0.5 180t-5.5 45q-10 31 -49 31q-17 0 -25 -2q-32 -4 -34 -4q-19 0 -32 13t-13 30q0 22 16.5 34.5t44.5 12.5q9 0 62 -6q36 -4 61 -4q23 0 63 4q38 6 56 6q30 0 46.5 -19t31.5 -71l182 -551l190 551q19 56 32.5 73t39.5 17q19 0 63 -8 q28 -4 58 -4q40 0 106 10q6 2 19 2q28 0 44.5 -12.5t16.5 -34.5q0 -17 -13 -30t-32 -13q-7 0 -35 4q-10 2 -26 2q-39 0 -49 -33q-5 -14 -6 -45t-1 -178v-96q0 -144 1 -175t6 -49q10 -30 49 -30q16 0 24 2q28 4 35 4q19 0 32 -13t13 -32q0 -20 -16.5 -33.5t-42.5 -13.5 q-13 0 -19 2q-87 10 -143 10q-61 0 -113 -8q-32 -4 -41 -4q-23 0 -38 13t-15 32q0 20 15 32.5t40 12.5q15 0 21 -2l33 -2q29 0 39 39t10 153l2 109q2 53 2 100v197l-227 -641q-9 -28 -26.5 -39t-49.5 -11q-34 0 -50.5 11t-25.5 39l-223 643l6 -254l-2 -103q0 -83 1.5 -126.5 t6.5 -71.5t13 -35.5t24 -7.5q5 0 37 4q6 2 16 2q25 0 40 -12.5t15 -34.5t-15 -34.5t-40 -12.5q-12 0 -86 10q-14 4 -67 4q-58 0 -132 -12q-6 -2 -18 -2q-28 0 -44.5 12.5t-16.5 34.5z" />
<glyph unicode="&#xe000;" horiz-adv-x="1024" d="M0 0v1024h1024v-1024h-1024z" />
</font>
</defs>
</svg>
